<?xml version="1.0" encoding="UTF-8"?>
<svg id="Layer_1" xmlns="http://www.w3.org/2000/svg" version="1.1" viewBox="0 0 844.72 489.74">
  <!-- Generator: Adobe Illustrator 30.6.0, SVG Export Plug-In . SVG Version: 2.1.4 Build 109)  -->
  <path d="M12.13,250.91c8.93,23.75,19.42,42.68,31.44,56.79,20.97,24.61,46.99,36.92,78.09,36.92,16.84,0,31.41-5.33,43.69-16.01,12.28-10.66,18.42-25.55,18.42-44.66,0-17.21-6.18-32.18-18.55-44.92-8.08-8.09-25.08-20.22-51.01-36.39l-45.09-28.14c-13.57-8.61-24.4-17.3-32.49-26.07-14.97-16.69-22.45-35.11-22.45-55.24,0-26.67,8.86-48.87,26.59-66.6C58.5,8.87,82,0,111.26,0c12.04,0,26.54,2.97,43.49,8.91,16.95,5.94,26.62,8.91,29.04,8.91,6.54,0,11.05-1.54,13.55-4.64s4.43-7.48,5.81-13.17h10.84l11.61,112.54h-12.65c-8.61-33.9-22.42-57.56-41.43-70.98-19.02-13.42-37.82-20.14-56.4-20.14-14.45,0-27.06,4.26-37.82,12.78-10.76,8.51-16.14,20.35-16.14,35.49,0,13.6,4.12,25.21,12.37,34.85,8.24,9.81,21.05,20.05,38.41,30.72l46.43,28.65c29.05,17.9,49.55,34.33,61.47,49.3,11.75,15.15,17.62,33.04,17.62,53.69,0,27.71-10.45,50.85-31.36,69.44s-47.63,27.88-80.15,27.88c-16.35,0-33.43-3.1-51.24-9.3-17.81-6.2-28.01-9.3-30.59-9.3-6.2,0-10.37,1.9-12.52,5.68-2.15,3.79-3.57,7.83-4.26,12.13h-11.61L0,250.91h12.13Z"/>
  <path d="M161.72,436.66v-9.81c13.6-1.54,23.78-6.64,30.59-15.34,6.79-8.69,18.44-32.49,34.95-71.37l110.13-259.43h10.52l131.71,299.69c8.78,19.85,15.78,32.13,21.04,36.83,5.25,4.71,14.07,7.91,26.46,9.62v9.81h-134.44v-9.81c15.45-1.37,25.4-3.04,29.88-5.01,4.47-1.96,6.71-6.81,6.71-14.52,0-2.57-.87-7.1-2.58-13.61-1.72-6.51-4.13-13.36-7.23-20.56l-21.16-50.85h-139.32c-13.73,34.59-21.93,55.69-24.59,63.31-2.67,7.62-4,13.66-4,18.11,0,8.91,3.61,15.07,10.83,18.5,4.47,2.06,12.88,3.6,25.25,4.62v9.81h-104.75,0ZM389.39,300.89l-60.59-145.59-60.86,145.59h121.45Z"/>
  <path d="M566.99,479.92c20.14-1.88,32.69-5.86,37.69-11.95,4.99-6.08,7.48-20,7.48-41.74v-228.95c0-18.42-2.8-30.54-8.39-36.39-5.59-5.84-17.86-9.55-36.78-11.1v-9.81h139.39c44.74,0,78.99,8.69,102.73,26.07s35.62,40.27,35.62,68.67c0,35.97-13.17,62.04-39.49,78.21-26.33,16.17-59.29,24.27-98.86,24.27-5.68,0-12.95-.13-21.81-.39-8.87-.26-15.45-.39-19.75-.39v96.02c0,19.86,3.05,32.36,9.17,37.48,6.1,5.14,19.75,8.47,40.92,10.01v9.81h-147.91v-9.81h0ZM745.36,169.4c-14.97-6.54-33.9-9.81-56.79-9.81-10.84,0-17.51,1.08-20.01,3.23s-3.74,6.93-3.74,14.33v137.84c9.46.87,15.66,1.38,18.58,1.54,2.92.18,5.76.26,8.51.26,24.27,0,43.36-3.44,57.3-10.33,25.29-12.56,37.95-36.05,37.95-70.47,0-32.36-13.94-54.55-41.82-66.6h0Z"/>
  <rect x="507.62" y=".47" width="18.61" height="228.44"/>
  <rect x="402.71" y="105.39" width="228.44" height="18.61"/>
</svg>