<?xml version="1.0" encoding="UTF-8"?>
<svg id="Layer_1" xmlns="http://www.w3.org/2000/svg" version="1.1" viewBox="0 0 959.92 414.72">
  <!-- Generator: Adobe Illustrator 30.6.0, SVG Export Plug-In . SVG Version: 2.1.4 Build 109)  -->
  <path d="M200.54,2.84l21.02,119.3-11.36,2.84c-.76-3.03-1.8-7-3.12-11.93-1.33-4.92-4.83-13.72-10.51-26.42-5.68-12.68-11.93-23.95-18.75-33.8-6.82-9.84-16.29-18.75-28.41-26.7-12.13-7.95-25-11.93-38.63-11.93-18.56,0-35.51,5.96-50.85,17.9-15.34,11.93-23.01,29.64-23.01,53.12,0,15.91,6.53,31.06,19.6,45.45,13.07,14.4,28.97,27.27,47.72,38.63s37.4,23.29,55.96,35.79c18.55,12.5,34.37,27.65,47.44,45.45,13.07,17.81,19.6,37.49,19.6,59.08,0,33.71-10.42,59.65-31.25,77.83-20.83,18.18-46.4,27.27-76.69,27.27-12.5,0-24.71-1.9-36.64-5.68s-20.74-7.57-26.42-11.36l-7.95-5.68-27.27,19.88L0,292.57l11.36-2.84c.75,3.04,1.99,7.01,3.69,11.93,1.7,4.93,5.77,13.73,12.21,26.42s13.44,23.96,21.02,33.8c7.57,9.85,17.7,18.75,30.39,26.7,12.68,7.95,26.22,11.93,40.62,11.93,21.21,0,39.29-6.25,54.25-18.75s22.44-31.81,22.44-57.95c0-19.32-6.53-37.11-19.6-53.4-13.07-16.28-28.88-30.3-47.44-42.04s-37.21-23.58-55.96-35.51c-18.75-11.93-34.65-25.85-47.72-41.75-13.07-15.91-19.6-33.14-19.6-51.7,0-31.05,10.31-55.39,30.96-73C57.28,8.81,81.99,0,110.78,0c11.73,0,22.81,1.62,33.23,4.83,10.41,3.22,17.9,6.53,22.44,9.94l6.82,5.11,27.27-17.04h0Z"/>
  <path d="M270.52,346.54L354.03,2.84h11.36l84.65,348.25c4.16,17.42,8.99,29.07,14.49,34.94,5.49,5.88,15.62,8.81,30.39,8.81v11.36h-105.1v-11.36h2.84c13.63,0,22.06-2.65,25.28-7.95,3.21-5.3,2.93-14.96-.85-28.97l-21.02-85.22h-93.17l-18.18,75.56c-4.54,15.15-4.93,26.7-1.14,34.65,3.78,7.95,13.63,11.93,29.54,11.93h2.84v11.36h-93.74v-11.36c15.53,0,26.51-3.98,32.95-11.93,6.44-7.95,11.55-20.07,15.34-36.36h.01ZM349.49,80.67l-43.18,177.82h86.35l-43.18-177.82h0Z"/>
  <path d="M676.38,270.77v-18.17h132.32V109.35h18.17v143.24h133.05v18.17h-133.05v143.95h-18.17v-143.95h-132.32Z"/>
  <path d="M620.2,210.2h-31.25v147.71c0,14.77,2.36,24.62,7.1,29.54,4.73,4.93,14.67,7.39,29.83,7.39h2.84v11.36h-113.62v-11.36h2.84c15.14,0,25.09-2.46,29.83-7.39,4.73-4.92,7.1-14.77,7.1-29.54V56.81c0-14.77-2.37-24.62-7.1-29.54-4.74-4.92-14.68-7.39-29.83-7.39h-2.84v-11.36h105.1c43.18,0,78.58,8.24,106.24,24.71,27.64,16.48,41.47,41.38,41.47,74.71s-13.92,59.18-41.76,76.41c-27.84,17.24-63.16,25.85-105.95,25.85h0ZM620.2,22.72h-5.68c-9.85,0-16.57,2.47-20.17,7.39-3.6,4.93-5.4,13.83-5.4,26.7v139.19h31.25c30.3,0,55.86-6.91,76.69-20.74,20.83-13.82,31.25-36.26,31.25-67.32,0-16.28-3.12-30.2-9.37-41.76-6.25-11.55-14.77-20.35-25.56-26.42-10.79-6.05-22.16-10.41-34.09-13.07-11.93-2.65-24.91-3.98-38.92-3.98h0Z"/>
</svg>