<?xml version="1.0" encoding="UTF-8"?>
<svg id="Layer_1" xmlns="http://www.w3.org/2000/svg" version="1.1" viewBox="0 0 1041.53 405.62">
  <!-- Generator: Adobe Illustrator 30.6.0, SVG Export Plug-In . SVG Version: 2.1.4 Build 109)  -->
  <path d="M250.34,293.95c0-20.81-5.74-37.59-17.23-50.34-11.5-12.74-33.38-21.81-65.68-27.19l-46.3-7.53c-36.97-6.46-64.88-17.49-83.72-33.11-18.84-15.62-28.27-39.75-28.27-72.41,0-22.61,5.66-41.54,16.96-56.8,11.31-15.25,27.09-26.83,47.37-34.72C93.75,3.95,117.17,0,143.73,0c29.43,0,53.3,4.13,71.61,12.39,18.31,8.26,32.48,19.57,42.53,33.92,10.05,14.36,17.41,30.88,22.07,49.53l-30.69,6.46c-6.82-25.12-18.03-43.7-33.65-55.72-15.62-12.02-39.39-18.03-71.33-18.03-35.9,0-61.83,6.73-77.79,20.19-15.98,13.46-23.96,31.32-23.96,53.57s6.1,38.59,18.31,50.07c12.2,11.49,33.38,19.74,63.53,24.76l48.99,8.07c38.76,6.46,67.11,18.22,85.06,35.26,17.94,17.05,26.92,41.73,26.92,74.02s-11.31,58.51-33.92,78.6c-22.61,20.1-56.18,30.15-100.68,30.15s-78.43-9.07-104.98-27.19C19.2,357.93,3.94,330.2,0,292.87h32.84c8.96,54.2,48.27,81.29,117.9,81.29,35.53,0,61.01-7.35,76.45-22.07,15.43-14.72,23.15-34.1,23.15-58.14Z"/>
  <path d="M512.64,283.48h-185.77l-46.58,122.14h-36.93L401.86,0h37.49l158.5,405.62h-38.63l-46.58-122.14h0ZM420.04,39.19l-81.81,213.61h163.05l-81.24-213.61h0Z"/>
  <path d="M627.92,223.83h-114.19v-29.54h114.19v-122.14h30.68v122.14h114.19v29.54h-114.19v122.14h-30.68v-122.14h0Z"/>
  <path d="M764.86,0h137.48c34.84,0,62.39,5.02,82.66,15.05,20.26,10.04,34.74,23.96,43.46,41.75,8.71,17.81,13.07,38.44,13.07,61.92s-4.54,44.98-13.63,63.34c-9.09,18.38-23.86,32.86-44.31,43.46-20.45,10.61-47.92,15.91-82.38,15.91h-101.69v164.18h-34.65V0h0ZM1006.31,119.3c0-30.3-7.86-52.74-23.58-67.32-15.72-14.58-43.09-21.87-82.09-21.87h-101.12v181.22h101.69c39.39,0,66.75-7.95,82.09-23.86s23.01-38.63,23.01-68.17Z"/>
</svg>