<?xml version="1.0" encoding="UTF-8"?>
<svg id="Layer_1" xmlns="http://www.w3.org/2000/svg" version="1.1" viewBox="0 0 275.88 86.87">
  <!-- Generator: Adobe Illustrator 30.6.0, SVG Export Plug-In . SVG Version: 2.1.4 Build 109)  -->
  <path d="M17.68,57.44c0,2.79.5,5.16,1.52,7.09s2.33,3.52,3.95,4.76c1.71,1.16,3.68,2.05,5.93,2.67,2.25.54,4.57.81,6.97.81,1.62,0,3.37-.12,5.23-.35,1.86-.31,3.61-.85,5.23-1.62s2.98-1.83,4.07-3.14c1.09-1.4,1.62-3.14,1.62-5.23,0-2.25-.74-4.07-2.21-5.47-1.4-1.4-3.26-2.56-5.58-3.49-2.33-.93-4.97-1.74-7.9-2.45-2.95-.69-5.93-1.47-8.95-2.33-3.1-.78-6.12-1.71-9.07-2.79-2.95-1.16-5.58-2.64-7.9-4.42-2.33-1.78-4.23-3.99-5.7-6.63-1.4-2.71-2.09-5.97-2.09-9.77,0-4.26.89-7.94,2.67-11.04,1.86-3.18,4.26-5.81,7.21-7.9,2.95-2.09,6.28-3.64,9.99-4.65,3.72-1,7.44-1.52,11.16-1.52,4.34,0,8.49.5,12.44,1.52,4.03.93,7.59,2.48,10.7,4.65s5.54,4.97,7.33,8.37c1.86,3.33,2.79,7.4,2.79,12.21h-17.67c-.16-2.48-.69-4.54-1.62-6.16-.85-1.62-2.02-2.9-3.49-3.83s-3.18-1.59-5.11-1.98c-1.86-.38-3.92-.58-6.16-.58-1.47,0-2.95.16-4.42.47s-2.83.85-4.07,1.62c-1.16.78-2.14,1.74-2.9,2.9-.78,1.16-1.16,2.64-1.16,4.42,0,1.62.31,2.95.93,3.95.62,1,1.83,1.93,3.61,2.79,1.86.85,4.38,1.71,7.56,2.56,3.26.85,7.48,1.93,12.67,3.26,1.55.31,3.68.89,6.4,1.74,2.79.78,5.54,2.05,8.25,3.83s5.04,4.19,6.97,7.21c2.02,2.95,3.02,6.74,3.02,11.39,0,3.8-.74,7.33-2.21,10.58s-3.68,6.09-6.63,8.49c-2.87,2.33-6.47,4.14-10.82,5.47-4.26,1.31-9.23,1.98-14.89,1.98-4.57,0-9.03-.58-13.37-1.74-4.26-1.09-8.06-2.83-11.39-5.23-3.26-2.4-5.85-5.47-7.79-9.18C.86,66.97-.07,62.56,0,57.44h17.68Z"/>
  <path d="M96.09,53.28h22.51l-10.94-31.87h-.25l-11.31,31.87h0ZM97.91,0h19.59l32.47,86.85h-19.82l-6.57-19.34h-32.47l-6.81,19.34h-19.22L97.91,0Z"/>
  <path d="M177.26,36.93h24.2v13.01h-24.2v24.2h-13.01v-24.2h-24.2v-13.01h24.2V12.72h13.01s0,24.2,0,24.2Z"/>
  <path d="M225.77,40.88h14.84c2.19,0,4.3-.16,6.32-.48,2.03-.33,3.82-.93,5.35-1.83,1.54-.98,2.76-2.31,3.65-4.02.98-1.71,1.46-3.93,1.46-6.69s-.48-4.98-1.46-6.69c-.89-1.71-2.11-3-3.65-3.89-1.54-.98-3.32-1.62-5.35-1.94-2.03-.33-4.13-.48-6.32-.48h-14.84v26.03h0ZM206.67,0h39.16c5.43,0,10.06.81,13.86,2.44,3.82,1.54,6.89,3.61,9.25,6.21,2.44,2.59,4.18,5.56,5.23,8.88,1.13,3.32,1.71,6.77,1.71,10.34s-.57,6.94-1.71,10.34c-1.05,3.32-2.8,6.29-5.23,8.88-2.35,2.59-5.43,4.7-9.25,6.32-3.82,1.54-8.43,2.31-13.86,2.31h-20.07v31.14h-19.09V0Z"/>
</svg>