<?xml version="1.0" encoding="UTF-8"?>
<svg id="Layer_1" xmlns="http://www.w3.org/2000/svg" version="1.1" viewBox="0 0 1057.68 267.8">
  <!-- Generator: Adobe Illustrator 30.5.1, SVG Export Plug-In . SVG Version: 2.1.4 Build 3)  -->
  <rect x="138.42" y=".8" width="44.66" height="44.66"/>
  <rect x="319.11" y=".8" width="44.66" height="44.66"/>
  <rect x="375.27" y=".8" width="44.66" height="44.66"/>
  <rect x="319.11" y="139.4" width="44.66" height="44.66"/>
  <rect x="375.27" y="139.4" width="44.66" height="44.66"/>
  <rect x="402.49" y="55.98" width="44.66" height="44.66"/>
  <rect x="292.68" y="55.98" width="44.66" height="44.66"/>
  <rect x="429.72" y="111.16" width="44.66" height="44.66"/>
  <rect x="528.04" y="111.16" width="44.66" height="44.66"/>
  <rect x="583.19" y="111.16" width="44.66" height="44.66"/>
  <rect x="638.35" y="111.16" width="44.66" height="44.66"/>
  <rect x="693.5" y="111.16" width="44.66" height="44.66"/>
  <rect x="748.65" y="111.16" width="44.66" height="44.66"/>
  <rect x="847.75" width="44.66" height="44.66"/>
  <rect x="902.84" width="44.66" height="44.66"/>
  <rect x="957.92" width="44.66" height="44.66"/>
  <rect x="1013.01" y="42.14" width="44.66" height="44.66"/>
  <rect x="1013.01" y="97.53" width="44.66" height="44.66"/>
  <rect x="957.92" y="138.47" width="44.66" height="44.66"/>
  <rect x="902.84" y="138.47" width="44.66" height="44.66"/>
  <rect x="847.75" y="111.16" width="44.66" height="44.66"/>
  <rect x="847.75" y="166.74" width="44.66" height="44.66"/>
  <rect x="847.75" y="222.32" width="44.66" height="44.66"/>
  <rect x="847.75" y="55.58" width="44.66" height="44.66"/>
  <rect x="429.72" y="166.34" width="44.66" height="44.66"/>
  <rect x="429.72" y="221.52" width="44.66" height="44.66"/>
  <rect x="263.68" y="221.52" width="44.66" height="44.66"/>
  <rect x="263.68" y="166.34" width="44.66" height="44.66"/>
  <rect x="263.68" y="111.16" width="44.66" height="44.66"/>
  <rect x="83.2" y=".8" width="44.66" height="44.66"/>
  <rect x="27.98" y=".8" width="44.66" height="44.66"/>
  <rect y="55.28" width="44.66" height="44.66"/>
  <rect x="27.98" y="111.23" width="44.66" height="44.66"/>
  <rect x="83.2" y="111.23" width="44.66" height="44.66"/>
  <rect x="138.42" y="111.23" width="44.66" height="44.66"/>
  <rect x="166.03" y="167.19" width="44.66" height="44.66"/>
  <rect x="138.42" y="223.14" width="44.66" height="44.66"/>
  <rect x="83.2" y="223.14" width="44.66" height="44.66"/>
  <rect x="27.98" y="223.14" width="44.66" height="44.66"/>
  <rect x="638.35" y=".86" width="44.66" height="44.66" transform="translate(683.87 -637.49) rotate(90)"/>
  <rect x="638.35" y="56.01" width="44.66" height="44.66" transform="translate(739.02 -582.34) rotate(90)"/>
  <rect x="638.35" y="166.31" width="44.66" height="44.66" transform="translate(849.32 -472.03) rotate(90)"/>
  <rect x="638.35" y="221.46" width="44.66" height="44.66" transform="translate(904.47 -416.88) rotate(90)"/>
</svg>