<?xml version="1.0" encoding="UTF-8"?>
<svg id="Layer_1" xmlns="http://www.w3.org/2000/svg" version="1.1" viewBox="0 0 340.26 99.55">
  <!-- Generator: Adobe Illustrator 30.6.0, SVG Export Plug-In . SVG Version: 2.1.4 Build 109)  -->
  <defs>
    <style>
      .st0 {
        fill: none;
      }
    </style>
  </defs>
  <rect class="st0" x="0" width="340.26" height="99.55"/>
  <path d="M19.37,65.13c0,3.06.55,5.65,1.66,7.77s2.55,3.86,4.33,5.22c1.87,1.27,4.03,2.25,6.5,2.93,2.46.59,5.01.89,7.64.89,1.78,0,3.69-.13,5.73-.38,2.04-.34,3.95-.93,5.73-1.78s3.27-2,4.46-3.44c1.19-1.53,1.78-3.44,1.78-5.73,0-2.46-.81-4.46-2.42-5.99-1.53-1.53-3.57-2.8-6.11-3.82-2.55-1.02-5.44-1.91-8.66-2.68-3.23-.76-6.5-1.61-9.81-2.55-3.4-.85-6.71-1.87-9.94-3.06-3.23-1.27-6.11-2.89-8.66-4.84-2.55-1.95-4.63-4.37-6.24-7.26-1.53-2.97-2.29-6.54-2.29-10.7,0-4.67.98-8.7,2.93-12.1,2.04-3.48,4.67-6.37,7.9-8.66,3.23-2.29,6.88-3.99,10.95-5.1,4.08-1.1,8.15-1.66,12.23-1.66,4.76,0,9.3.55,13.63,1.66,4.42,1.02,8.32,2.72,11.72,5.1s6.07,5.44,8.03,9.17c2.04,3.65,3.06,8.11,3.06,13.38h-19.36c-.17-2.72-.76-4.97-1.78-6.75-.93-1.78-2.21-3.18-3.82-4.2s-3.48-1.74-5.6-2.17c-2.04-.42-4.29-.64-6.75-.64-1.61,0-3.23.17-4.84.51s-3.1.93-4.46,1.78c-1.27.85-2.34,1.91-3.18,3.18-.85,1.27-1.27,2.89-1.27,4.84,0,1.78.34,3.23,1.02,4.33.68,1.1,2,2.12,3.95,3.06,2.04.93,4.8,1.87,8.28,2.8,3.57.93,8.2,2.12,13.88,3.57,1.7.34,4.03.98,7.01,1.91,3.06.85,6.07,2.25,9.04,4.2s5.52,4.59,7.64,7.9c2.21,3.23,3.31,7.39,3.31,12.48,0,4.16-.81,8.03-2.42,11.59s-4.03,6.67-7.26,9.3c-3.14,2.55-7.09,4.54-11.85,5.99-4.67,1.44-10.11,2.17-16.31,2.17-5.01,0-9.89-.64-14.65-1.91-4.67-1.19-8.83-3.1-12.48-5.73-3.57-2.63-6.41-5.99-8.53-10.06C.94,75.57-.08,70.73,0,65.13h19.37Z"/>
  <path d="M105.28,60.57h24.66l-11.99-34.92h-.27l-12.39,34.92h-.01ZM107.27,2.2h21.46l35.58,95.16h-21.72l-7.2-21.19h-35.58l-7.46,21.19h-21.06L107.27,2.2Z"/>
  <path d="M194.21,42.65h26.52v14.26h-26.52v26.52h-14.26v-26.52h-26.52v-14.26h26.52v-26.52h14.26s0,26.52,0,26.52Z"/>
  <path d="M247.36,46.98h16.26c2.4,0,4.71-.18,6.93-.53,2.22-.36,4.18-1.02,5.86-2,1.69-1.07,3.02-2.53,4-4.4,1.07-1.87,1.6-4.31,1.6-7.33s-.53-5.46-1.6-7.33c-.98-1.87-2.31-3.29-4-4.26-1.69-1.07-3.64-1.78-5.86-2.13-2.22-.36-4.53-.53-6.93-.53h-16.26v28.52h0ZM226.44,2.2h42.91c5.95,0,11.02.89,15.19,2.67,4.18,1.69,7.55,3.95,10.13,6.8,2.67,2.84,4.58,6.09,5.73,9.73,1.24,3.64,1.87,7.42,1.87,11.33s-.62,7.6-1.87,11.33c-1.15,3.64-3.07,6.89-5.73,9.73-2.58,2.84-5.95,5.15-10.13,6.93-4.18,1.69-9.24,2.53-15.19,2.53h-21.99v34.12h-20.92V2.2Z"/>
</svg>