<?xml version="1.0" encoding="UTF-8"?>
<svg id="Layer_1" xmlns="http://www.w3.org/2000/svg" version="1.1" viewBox="0 0 115.43 52.18">
  <!-- Generator: Adobe Illustrator 30.5.1, SVG Export Plug-In . SVG Version: 2.1.4 Build 3)  -->
  <defs>
    <style>
      .st0 {
        font-family: MyriadPro-Regular, 'Myriad Pro';
        font-size: 48px;
        letter-spacing: -.01em;
      }
    </style>
  </defs>
  <g>
    <path d="M23.99.19v12h-4v-3.97s0-.03-.02-.03h-3.97v-3.97s0-.03-.02-.03H4.02s-.02,0-.02.03v11.95s0,.03.02.03h7.97v3.97s0,.03.02.03h7.97v3.97s0,.03.02.03h3.97v12h-3.97s-.02,0-.02.03v3.97H8v-3.97s0-.03-.02-.03h-3.95s-.02,0-.02.03v3.97H0v-12h4v3.97s0,.03.02.03h3.97v3.97s0,.03.02.03h11.95s.02,0,.02-.03v-11.95s0-.03-.02-.03h-7.97v-3.97s0-.03-.02-.03H4v-3.97s0-.03-.02-.03H0V4.18h3.97s.02,0,.02-.03V.19h12v3.97s0,.03.02.03h3.95s.02,0,.02-.03V.19h4Z"/>
    <path d="M63.42,36.18v4h-12v-4h3.97s.02,0,.02-.03v-7.95s0-.03-.02-.03h-19.95s-.02,0-.02.03v7.95s0,.03.02.03h3.97v4h-12v-4h3.97s.02,0,.02-.03v-7.97h3.97s.02,0,.02-.03v-11.97h3.97s.02,0,.02-.03v-7.97h3.97s.02,0,.02-.03V.19h4v7.97s0,.03.02.03h3.97v7.97s0,.03.02.03h3.97v11.97s0,.03.02.03h3.97v7.97s0,.03.02.03h3.97ZM51.42,24.15v-7.95s0-.03-.02-.03h-3.97v-7.97s0-.03-.02-.03h-3.95s-.02,0-.02.03v7.97h-3.97s-.02,0-.02.03v7.95s0,.03.02.03h11.95s.02,0,.02-.03Z"/>
    <path d="M115.43,4.18v12h-3.97s-.02,0-.02.03v3.97h-15.97s-.02,0-.02.03v15.95s0,.03.02.03h7.97v4h-16v-4h3.97s.02,0,.02-.03V4.21s0-.03-.02-.03h-3.97V.19h23.99v3.97s0,.03.02.03h3.97ZM111.41,4.18h-15.95s-.02,0-.02.03v11.95s0,.03.02.03h15.95s.02,0,.02-.03V4.21s0-.03-.02-.03Z"/>
  </g>
  <text class="st0" transform="translate(60.36 40.18)"><tspan x="0" y="0">+</tspan></text>
</svg>