<svg width="341" height="100" viewBox="0 0 341 100" fill="none" xmlns="http://www.w3.org/2000/svg">
<g clip-path="url(#clip0_1_2)">
<rect width="340.258" height="99.5537" fill="white"/>
<path d="M20.2624 65.836C20.2624 69.0346 20.8399 71.7444 21.9949 73.9656C23.1499 76.1868 24.6603 78.0082 26.5261 79.4297C28.4808 80.7624 30.7464 81.7842 33.323 82.495C35.8995 83.1169 38.565 83.4279 41.3192 83.4279C43.185 83.4279 45.1841 83.2946 47.3164 83.028C49.4488 82.6726 51.4479 82.0507 53.3137 81.1622C55.1795 80.2738 56.7343 79.0743 57.9782 77.5639C59.222 75.9647 59.844 73.9656 59.844 71.5667C59.844 68.9901 58.9999 66.9022 57.3118 65.303C55.7125 63.7037 53.5802 62.371 50.9148 61.3048C48.2494 60.2386 45.2285 59.3057 41.8523 58.5061C38.4761 57.7065 35.0555 56.818 31.5904 55.8407C28.0365 54.9522 24.5715 53.886 21.1953 52.6422C17.8191 51.3095 14.7982 49.6214 12.1328 47.5779C9.46739 45.5344 7.29062 43.0022 5.60252 39.9814C4.00327 36.8717 3.20364 33.1401 3.20364 28.7866C3.20364 23.9 4.22538 19.6797 6.26888 16.1258C8.40122 12.4831 11.1555 9.46226 14.5317 7.06338C17.9079 4.66449 21.7284 2.88754 25.993 1.73252C30.2577 0.577506 34.5224 0 38.7871 0C43.7626 0 48.5159 0.577506 53.0471 1.73252C57.6672 2.79869 61.7542 4.57565 65.3081 7.06338C68.862 9.55111 71.6607 12.7496 73.7042 16.6589C75.8365 20.4794 76.9027 25.1439 76.9027 30.6524H56.6454C56.4678 27.8093 55.8458 25.4548 54.7796 23.589C53.8023 21.7232 52.4696 20.2572 50.7815 19.1911C49.0934 18.1249 47.1388 17.3697 44.9176 16.9255C42.7852 16.4812 40.4308 16.2591 37.8542 16.2591C36.1661 16.2591 34.478 16.4368 32.7899 16.7922C31.1018 17.1476 29.5469 17.7695 28.1254 18.658C26.7927 19.5465 25.6821 20.6571 24.7936 21.9898C23.9051 23.3225 23.4609 25.0106 23.4609 27.0541C23.4609 28.9199 23.8163 30.4303 24.5271 31.5853C25.2378 32.7403 26.615 33.8065 28.6585 34.7838C30.7908 35.7611 33.6784 36.7385 37.3211 37.7158C41.0527 38.6931 45.8949 39.937 51.8477 41.4474C53.6246 41.8028 56.0679 42.4691 59.1776 43.4465C62.3761 44.3349 65.5302 45.8009 68.6399 47.8444C71.7495 49.8879 74.415 52.6422 76.6361 56.1072C78.9462 59.4834 80.1012 63.837 80.1012 69.1678C80.1012 73.5214 79.2571 77.5639 77.569 81.2955C75.8809 85.0271 73.3488 88.2701 69.9726 91.0243C66.6852 93.6898 62.5538 95.7777 57.5783 97.2881C52.6917 98.7985 47.0055 99.5537 40.5196 99.5537C35.2776 99.5537 30.1689 98.8873 25.1934 97.5546C20.3068 96.3108 15.9533 94.3117 12.1328 91.5574C8.40122 88.8031 5.42483 85.2937 3.20364 81.029C0.982449 76.7643 -0.0837216 71.7 0.0051258 65.836H20.2624Z" fill="black"/>
<path d="M122.085 60.5718H146.741L134.746 25.6547H134.48L122.085 60.5718ZM124.084 2.19897H145.541L181.125 97.3547H159.401L152.205 76.1646H116.621L109.158 97.3547H88.1012L124.084 2.19897Z" fill="black"/>
<path d="M229.906 42.6468H256.427V56.9069H229.906V83.4279H215.646V56.9069H189.125V42.6468H215.646V16.1258H229.906V42.6468Z" fill="black"/>
<path d="M285.35 46.9782H301.609C304.008 46.9782 306.318 46.8005 308.539 46.4451C310.761 46.0897 312.715 45.4233 314.403 44.446C316.091 43.3798 317.424 41.9138 318.402 40.048C319.468 38.1822 320.001 35.7389 320.001 32.7181C320.001 29.6973 319.468 27.254 318.402 25.3882C317.424 23.5224 316.091 22.1008 314.403 21.1235C312.715 20.0573 310.761 19.3466 308.539 18.9912C306.318 18.6358 304.008 18.4581 301.609 18.4581H285.35V46.9782ZM264.427 2.19897H307.34C313.293 2.19897 318.357 3.08745 322.533 4.86441C326.709 6.55251 330.085 8.81812 332.662 11.6612C335.327 14.5044 337.237 17.7473 338.392 21.39C339.636 25.0328 340.258 28.8088 340.258 32.7181C340.258 36.5386 339.636 40.3146 338.392 44.0462C337.237 47.6889 335.327 50.9319 332.662 53.775C330.085 56.6181 326.709 58.9282 322.533 60.7051C318.357 62.3932 313.293 63.2373 307.34 63.2373H285.35V97.3547H264.427V2.19897Z" fill="black"/>
</g>
<defs>
<clipPath id="clip0_1_2">
<rect width="340.258" height="99.5537" fill="white"/>
</clipPath>
</defs>
</svg>
