<?xml version="1.0" encoding="UTF-8"?>
<svg id="Layer_1" xmlns="http://www.w3.org/2000/svg" version="1.1" viewBox="0 0 679.94 825.95">
  <!-- Generator: Adobe Illustrator 30.6.0, SVG Export Plug-In . SVG Version: 2.1.4 Build 109)  -->
  <path d="M66.58,263.02c2.73,51.29,40.38,78.04,80.22,84.59v55.67C61.67,396.18,3.82,342.16,0,264.67l66.58-1.63h0ZM146.79,0v55.67c-58.93,3.28-65.48,39.29-65.48,53.48,0,16.37,6.55,37.11,55.67,49.66l61.67,14.74c55.67,11.46,122.23,34.93,122.23,113.5,0,35.47-19.64,67.12-51.84,88.4-25.65,16.92-59.48,26.74-94.95,28.38v-55.12c25.65-2.18,78.58-14.74,78.58-61.12,0-25.1-18.56-39.29-67.66-51.84l-56.2-13.64c-56.2-14.19-113.5-38.74-113.5-112.96C15.28,58.39,56.2,3.82,146.79,0ZM306.68,129.88h-66.58c0-48.57-32.75-68.21-66.03-73.12V.55c82.4,6.55,132.61,54.57,132.61,129.33h0Z"/>
  <path d="M376.53,320.87h70.39l-22.92,77.49h-73.67l26.19-77.49h0ZM402.73,234.1h225.38v58.94h-225.38v-58.94ZM481.85,5.46h67.12l67.12,201.36h-65.48l-34.93-126.06-35.47,126.06h-65.48L481.85,5.46ZM654.29,320.87l25.65,77.49h-73.67l-22.37-77.49h70.39Z"/>
  <path d="M203.12,664v109.78h-70.07v-109.78H23.8v-69.55h109.25v-109.25h70.07v109.25h109.25v69.55h-109.25,0Z"/>
  <path d="M386.35,433.05h63.3v392.9h-63.3v-392.9h0ZM679.94,553.65c0,74.76-58.39,116.23-123.88,116.23h-78.58v-60.57h72.58c54.57,0,66.58-31.65,66.58-56.75,0-23.47-14.74-54.57-66.58-54.57h-72.58v-64.93h84.04c62.75,0,118.42,40.38,118.42,120.6h0Z"/>
</svg>