<?xml version="1.0" encoding="UTF-8"?>
<svg id="Layer_1" xmlns="http://www.w3.org/2000/svg" version="1.1" viewBox="0 0 365.09 588.52">
  <!-- Generator: Adobe Illustrator 30.6.0, SVG Export Plug-In . SVG Version: 2.1.4 Build 109)  -->
  <path d="M138.81,1.97l14.55,82.58-7.86,1.97c-.53-2.1-1.24-4.85-2.16-8.25s-3.34-9.5-7.27-18.28c-3.93-8.78-8.25-16.58-12.98-23.4-4.72-6.81-11.27-12.98-19.67-18.49-8.39-5.51-17.3-8.25-26.74-8.25-12.85,0-24.58,4.12-35.2,12.39-10.62,8.25-15.93,20.52-15.93,36.77,0,11.01,4.52,21.5,13.57,31.46,9.05,9.97,20.05,18.88,33.03,26.74,12.98,7.86,25.89,16.12,38.74,24.77,12.84,8.66,23.79,19.14,32.84,31.46,9.05,12.33,13.57,25.95,13.57,40.89,0,23.33-7.21,41.29-21.63,53.87-14.42,12.59-32.12,18.88-53.09,18.88-8.66,0-17.1-1.31-25.37-3.93-8.25-2.62-14.35-5.24-18.28-7.86l-5.51-3.93-18.88,13.76L0,202.52l7.86-1.97c.52,2.11,1.37,4.85,2.56,8.25,1.17,3.41,3.99,9.51,8.46,18.28,4.46,8.78,9.3,16.59,14.55,23.4,5.24,6.82,12.25,12.98,21.03,18.49,8.78,5.51,18.15,8.25,28.11,8.25,14.68,0,27.2-4.32,37.55-12.98,10.35-8.66,15.54-22.02,15.54-40.11,0-13.37-4.52-25.69-13.57-36.96-9.05-11.27-19.99-20.97-32.84-29.1-12.85-8.12-25.76-16.32-38.74-24.58-12.98-8.25-23.98-17.89-33.03-28.9-9.05-11.01-13.57-22.94-13.57-35.79,0-21.49,7.13-38.34,21.43-50.53C39.65,6.1,56.75,0,76.68,0c8.12,0,15.79,1.12,23,3.34,7.2,2.23,12.39,4.52,15.54,6.88l4.72,3.54,18.88-11.8h0Z"/>
  <path d="M209.77,239.88L267.58,1.97h7.86l58.59,241.06c2.88,12.06,6.22,20.12,10.03,24.18,3.8,4.07,10.81,6.1,21.03,6.1v7.86h-72.75v-7.86h1.97c9.44,0,15.27-1.84,17.5-5.51,2.22-3.67,2.03-10.35-.59-20.05l-14.55-58.99h-64.49l-12.59,52.31c-3.14,10.49-3.41,18.49-.79,23.98,2.62,5.51,9.44,8.25,20.45,8.25h1.97v7.86h-64.89v-7.86c10.75,0,18.35-2.76,22.81-8.25,4.46-5.51,7.99-13.89,10.62-25.17h0ZM264.43,55.84l-29.89,123.09h59.77l-29.89-123.09h0Z"/>
  <path d="M0,463.39v-10.66h77.6v-84h10.66v84h78.02v10.66h-78.02v84.42h-10.66v-84.42H0Z"/>
  <path d="M254.81,452.85h-23.33v102.25c0,10.22,1.77,17.04,5.3,20.45,3.53,3.41,10.95,5.11,22.27,5.11h2.12v7.86h-84.83v-7.86h2.12c11.3,0,18.73-1.71,22.27-5.11,3.53-3.41,5.3-10.22,5.3-20.45v-208.42c0-10.22-1.77-17.04-5.3-20.45-3.54-3.41-10.96-5.11-22.27-5.11h-2.12v-7.87h78.47c32.24,0,58.67,5.71,79.32,17.1,20.64,11.4,30.97,28.65,30.97,51.71s-10.39,40.96-31.18,52.89c-20.79,11.93-47.16,17.89-79.1,17.89h0ZM254.81,323.08h-4.24c-7.35,0-12.37,1.71-15.06,5.11-2.69,3.41-4.03,9.57-4.03,18.49v96.35h23.33c22.62,0,41.71-4.78,57.26-14.35,15.55-9.57,23.33-25.1,23.33-46.6,0-11.27-2.33-20.9-7-28.91-4.66-7.99-11.03-14.08-19.08-18.28-8.05-4.19-16.55-7.2-25.45-9.05-8.9-1.84-18.6-2.76-29.06-2.76h0Z"/>
</svg>