<?xml version="1.0" encoding="UTF-8"?>
<svg id="Layer_1" xmlns="http://www.w3.org/2000/svg" version="1.1" viewBox="0 0 1391.15 421.44">
  <!-- Generator: Adobe Illustrator 30.5.1, SVG Export Plug-In . SVG Version: 2.1.4 Build 3)  -->
  <defs>
    <style>
      .st0 {
        fill: none;
        stroke: #000;
        stroke-miterlimit: 10;
      }
    </style>
  </defs>
  <path class="st0" d="M69.83,274.34c2.84,53.4,42.04,81.24,83.51,88.06v57.95C64.72,412.96,4.5,356.72.52,276.05l69.31-1.7h0ZM153.34.52v57.95c-61.35,3.41-68.17,40.9-68.17,55.67,0,17.04,6.82,38.63,57.95,51.7l64.2,15.34c57.95,11.93,127.25,36.36,127.25,118.16,0,36.93-20.45,69.88-53.97,92.03-26.7,17.61-61.92,27.84-98.85,29.54v-57.38c26.7-2.27,81.81-15.34,81.81-63.63,0-26.13-19.32-40.9-70.44-53.97l-58.51-14.2c-58.51-14.77-118.16-40.33-118.16-117.6C16.43,61.31,59.03,4.5,153.34.52ZM319.79,135.73h-69.31c0-50.56-34.09-71.01-68.74-76.12V1.09c85.78,6.82,138.05,56.81,138.05,134.64h0Z"/>
  <path class="st0" d="M392.51,334.56h73.28l-23.86,80.67h-76.69l27.27-80.67h0ZM419.78,244.23h234.63v61.36h-234.63v-61.36ZM502.15,6.2h69.88l69.88,209.63h-68.17l-36.36-131.23-36.93,131.23h-68.17L502.15,6.2ZM681.67,334.56l26.7,80.67h-76.69l-23.29-80.67h73.28Z"/>
  <path class="st0" d="M928.37,300.95v114.29h-72.95v-114.29h-113.73v-72.4h113.73v-113.73h72.95v113.73h113.73v72.4h-113.73Z"/>
  <path class="st0" d="M1085.01,6.2h65.9v409.03h-65.9V6.2ZM1390.65,131.75c0,77.83-60.79,121-128.96,121h-81.81v-63.06h75.56c56.81,0,69.31-32.95,69.31-59.08,0-24.43-15.34-56.81-69.31-56.81h-75.56V6.2h87.49c65.33,0,123.28,42.04,123.28,125.55h0Z"/>
</svg>