<?xml version="1.0" encoding="UTF-8"?>
<svg id="Layer_1" xmlns="http://www.w3.org/2000/svg" version="1.1" viewBox="0 0 1365.62 426.5">
  <!-- Generator: Adobe Illustrator 30.5.1, SVG Export Plug-In . SVG Version: 2.1.4 Build 3)  -->
  <defs>
    <style>
      .st0 {
        fill: none;
        stroke: #000;
        stroke-miterlimit: 10;
      }
    </style>
  </defs>
  <path class="st0" d="M264.72,310.68c0-21.96-6.06-39.67-18.18-53.12-12.13-13.44-35.22-23.01-69.31-28.69l-48.86-7.95c-39.01-6.82-68.46-18.46-88.34-34.94-19.88-16.48-29.83-41.94-29.83-76.41,0-23.86,5.97-43.83,17.9-59.94,11.93-16.09,28.59-28.31,49.99-36.64C99.49,4.67,124.2.5,152.23.5c31.05,0,56.24,4.36,75.56,13.07,19.32,8.72,34.27,20.65,44.88,35.79,10.6,15.15,18.37,32.58,23.29,52.27l-32.38,6.82c-7.2-26.51-19.03-46.11-35.51-58.8-16.48-12.68-41.57-19.03-75.27-19.03-37.88,0-65.24,7.1-82.09,21.3-16.86,14.2-25.28,33.05-25.28,56.53s6.44,40.72,19.32,52.83c12.87,12.12,35.22,20.83,67.04,26.13l51.7,8.52c40.9,6.82,70.82,19.23,89.76,37.21,18.93,17.99,28.41,44.03,28.41,78.11s-11.93,61.74-35.79,82.94c-23.86,21.21-59.28,31.81-106.24,31.81s-82.76-9.57-110.78-28.69c-28.03-19.12-44.13-48.38-48.29-87.77h34.65c9.46,57.19,50.93,85.78,124.41,85.78,37.49,0,64.38-7.76,80.67-23.29,16.28-15.53,24.43-35.98,24.43-61.35Z"/>
  <path class="st0" d="M610.69,294.21h-185.77l-46.58,122.14h-36.93L499.91,10.73h37.49l158.5,405.62h-38.63l-46.58-122.14h0ZM518.09,49.92l-81.81,213.61h163.05l-81.24-213.61Z"/>
  <path class="st0" d="M858.38,234.56h-114.19v-29.54h114.19v-122.14h30.68v122.14h114.19v29.54h-114.19v122.14h-30.68v-122.14h0Z"/>
  <path class="st0" d="M1088.45,10.73h137.48c34.84,0,62.39,5.02,82.66,15.05,20.26,10.04,34.74,23.96,43.46,41.75,8.71,17.81,13.07,38.44,13.07,61.92s-4.54,44.98-13.63,63.34c-9.09,18.38-23.86,32.86-44.31,43.46-20.45,10.61-47.92,15.91-82.38,15.91h-101.69v164.18h-34.65V10.73h0ZM1329.9,130.03c0-30.3-7.86-52.74-23.58-67.32-15.72-14.58-43.09-21.87-82.09-21.87h-101.12v181.22h101.69c39.39,0,66.75-7.95,82.09-23.86s23.01-38.63,23.01-68.17Z"/>
</svg>