<?xml version="1.0" encoding="UTF-8"?>
<svg id="Layer_1" xmlns="http://www.w3.org/2000/svg" version="1.1" viewBox="0 0 1059.17 367.78">
  <!-- Generator: Adobe Illustrator 30.5.1, SVG Export Plug-In . SVG Version: 2.1.4 Build 3)  -->
  <defs>
    <style>
      .st0 {
        isolation: isolate;
      }

      .st1 {
        fill: none;
        stroke: #000;
        stroke-miterlimit: 10;
      }
    </style>
  </defs>
  <g>
    <path class="st1" d="M220.42.5v110.01h-36.67v-36.39s0-.28-.18-.28h-36.39v-36.39s0-.28-.18-.28H37.35s-.18,0-.18.28v109.55s0,.28.18.28h73.06v36.39s0,.28.18.28h73.06v36.39s0,.28.18.28h36.39v110.01h-36.39s-.18,0-.18.28v36.39h-109.82v-36.39s0-.28-.18-.28h-36.21s-.18,0-.18.28v36.39H.5v-110.01h36.67v36.39s0,.28.18.28h36.39v36.39s0,.28.18.28h109.55s.18,0,.18-.28v-109.55s0-.28-.18-.28h-73.06v-36.39s0-.28-.18-.28H37.17v-36.39s0-.28-.18-.28H.5V37.08h36.39s.18,0,.18-.28V.5h110.01v36.39s0,.28.18.28h36.21s.18,0,.18-.28V.5h36.76Z"/>
    <path class="st1" d="M581.88,330.43v36.67h-110.01v-36.67h36.39s.18,0,.18-.28v-72.88s0-.28-.18-.28h-182.89s-.18,0-.18.28v72.88s0,.28.18.28h36.39v36.67h-110.01v-36.67h36.39s.18,0,.18-.28v-73.06h36.39s.18,0,.18-.28v-109.73h36.39s.18,0,.18-.28v-73.06h36.39s.18,0,.18-.28V.5h36.67v73.06s0,.28.18.28h36.39v73.06s0,.28.18.28h36.39v109.73s0,.28.18.28h36.39v73.06s0,.28.18.28h36.39l.82-.09ZM471.88,220.15v-72.88s0-.28-.18-.28h-36.39v-73.06s0-.28-.18-.28h-36.21s-.18,0-.18.28v73.06h-36.39s-.18,0-.18.28v72.88s0,.28.18.28h109.55s.18,0,.18-.28h-.18Z"/>
    <path class="st1" d="M1058.67,37.08v110.01h-36.39s-.18,0-.18.28v36.39h-146.4s-.18,0-.18.28v146.22s0,.28.18.28h73.06v36.67h-146.68v-36.67h36.39s.18,0,.18-.28V37.35s0-.28-.18-.28h-36.39V.5h219.92v36.39s0,.28.18.28h36.39l.09-.09ZM1021.82,37.08h-146.22s-.18,0-.18.28v109.55s0,.28.18.28h146.22s.18,0,.18-.28V37.35s0-.28-.18-.28Z"/>
  </g>
  <g class="st0">
    <g class="st0">
      <path class="st1" d="M699.05,132.99v103.42h99.46v26.4h-99.46v104.29h-28.16v-104.29h-99.45v-26.4h99.45v-103.42h28.16Z"/>
    </g>
  </g>
</svg>