<?xml version="1.0" encoding="UTF-8"?>
<svg id="Layer_1" xmlns="http://www.w3.org/2000/svg" version="1.1" viewBox="0 0 1331.73 392.4">
  <!-- Generator: Adobe Illustrator 30.5.1, SVG Export Plug-In . SVG Version: 2.1.4 Build 3)  -->
  <defs>
    <style>
      .st0 {
        fill: none;
        stroke: #000;
      }
    </style>
  </defs>
  <path class="st0" d="M13.61,270.13c9.6,25.52,20.87,45.87,33.79,61.03,22.53,26.45,50.5,39.67,83.92,39.67,18.1,0,33.75-5.73,46.95-17.2,13.2-11.46,19.8-27.46,19.8-47.99,0-18.49-6.64-34.58-19.93-48.27-8.68-8.69-26.95-21.73-54.82-39.11l-48.45-30.24c-14.58-9.25-26.22-18.59-34.91-28.02-16.09-17.94-24.13-37.73-24.13-59.36,0-28.66,9.52-52.52,28.57-71.57C63.45,10.03,88.69.5,120.13.5c12.94,0,28.52,3.19,46.74,9.57,18.21,6.38,28.61,9.57,31.21,9.57,7.03,0,11.88-1.66,14.56-4.99,2.68-3.33,4.76-8.04,6.24-14.15h11.65l12.48,120.94h-13.59c-9.25-36.43-24.09-61.86-44.52-76.28-20.44-14.42-40.64-21.64-60.61-21.64-15.53,0-29.08,4.58-40.64,13.73-11.56,9.15-17.34,21.87-17.34,38.14,0,14.61,4.43,27.09,13.29,37.45,8.85,10.54,22.62,21.55,41.28,33.01l49.89,30.79c31.22,19.24,53.25,36.89,66.06,52.98,12.63,16.28,18.94,35.51,18.94,57.7,0,29.78-11.23,54.65-33.7,74.62-22.47,19.97-51.18,29.96-86.13,29.96-17.57,0-35.92-3.33-55.06-9.99-19.14-6.66-30.1-9.99-32.87-9.99-6.66,0-11.14,2.04-13.45,6.1-2.31,4.07-3.84,8.41-4.58,13.04h-12.48L.57,270.13h13.04Z"/>
  <path class="st0" d="M301.32,384.41v-10.54c14.61-1.65,25.56-7.14,32.87-16.49,7.3-9.34,19.82-34.91,37.56-76.7L490.11,1.89h11.31l141.54,322.06c9.43,21.33,16.96,34.53,22.61,39.58,5.64,5.06,15.12,8.5,28.43,10.34v10.54h-144.47v-10.54c16.6-1.47,27.3-3.27,32.11-5.38,4.8-2.11,7.21-7.32,7.21-15.6,0-2.76-.93-7.63-2.77-14.63-1.85-7-4.44-14.36-7.77-22.09l-22.74-54.65h-149.72c-14.75,37.17-23.57,59.85-26.43,68.04-2.87,8.19-4.3,14.68-4.3,19.46,0,9.57,3.88,16.2,11.64,19.88,4.8,2.21,13.84,3.87,27.13,4.97v10.54h-112.57ZM545.99,238.5l-65.11-156.45-65.4,156.45h130.51Z"/>
  <path class="st0" d="M844.13,97.59h38.84v124h124v38.84h-124v124h-38.84v-124h-124v-38.84h124v-124Z"/>
  <path class="st0" d="M1032.76,373.87c21.64-2.02,35.13-6.3,40.5-12.84,5.36-6.53,8.04-21.49,8.04-44.86V70.13c0-19.79-3.01-32.82-9.02-39.11-6.01-6.28-19.19-10.26-39.53-11.93v-10.54h149.79c48.08,0,84.88,9.34,110.4,28.02,25.52,18.68,38.28,43.27,38.28,73.79,0,38.65-14.15,66.67-42.44,84.05-28.29,17.38-63.71,26.08-106.24,26.08-6.1,0-13.92-.14-23.44-.42-9.53-.28-16.6-.42-21.22-.42v103.19c0,21.34,3.28,34.77,9.85,40.28,6.56,5.52,21.22,9.1,43.97,10.76v10.54h-158.95v-10.54ZM1224.44,40.17c-16.09-7.03-36.43-10.54-61.03-10.54-11.65,0-18.82,1.16-21.5,3.47-2.68,2.31-4.02,7.45-4.02,15.4v148.13c10.17.93,16.83,1.48,19.97,1.66,3.14.19,6.19.28,9.15.28,26.08,0,46.6-3.7,61.58-11.1,27.18-13.5,40.78-38.74,40.78-75.73,0-34.77-14.98-58.62-44.94-71.57Z"/>
</svg>