<?xml version="1.0" encoding="UTF-8"?>
<svg id="Layer_1" xmlns="http://www.w3.org/2000/svg" version="1.1" viewBox="0 0 1058.67 268.8">
  <!-- Generator: Adobe Illustrator 30.5.1, SVG Export Plug-In . SVG Version: 2.1.4 Build 3)  -->
  <defs>
    <style>
      .st0 {
        fill: none;
        stroke: #000;
        stroke-miterlimit: 10;
      }
    </style>
  </defs>
  <rect class="st0" x="138.92" y="1.3" width="44.66" height="44.66"/>
  <rect class="st0" x="319.61" y="1.3" width="44.66" height="44.66"/>
  <rect class="st0" x="375.77" y="1.3" width="44.66" height="44.66"/>
  <rect class="st0" x="319.61" y="139.9" width="44.66" height="44.66"/>
  <rect class="st0" x="375.77" y="139.9" width="44.66" height="44.66"/>
  <rect class="st0" x="402.99" y="56.48" width="44.66" height="44.66"/>
  <rect class="st0" x="293.18" y="56.48" width="44.66" height="44.66"/>
  <rect class="st0" x="430.22" y="111.66" width="44.66" height="44.66"/>
  <rect class="st0" x="528.54" y="111.66" width="44.66" height="44.66"/>
  <rect class="st0" x="583.69" y="111.66" width="44.66" height="44.66"/>
  <rect class="st0" x="638.85" y="111.66" width="44.66" height="44.66"/>
  <rect class="st0" x="694" y="111.66" width="44.66" height="44.66"/>
  <rect class="st0" x="749.15" y="111.66" width="44.66" height="44.66"/>
  <rect class="st0" x="848.25" y=".5" width="44.66" height="44.66"/>
  <rect class="st0" x="903.34" y=".5" width="44.66" height="44.66"/>
  <rect class="st0" x="958.42" y=".5" width="44.66" height="44.66"/>
  <rect class="st0" x="1013.51" y="42.64" width="44.66" height="44.66"/>
  <rect class="st0" x="1013.51" y="98.03" width="44.66" height="44.66"/>
  <rect class="st0" x="958.42" y="138.97" width="44.66" height="44.66"/>
  <rect class="st0" x="903.34" y="138.97" width="44.66" height="44.66"/>
  <rect class="st0" x="848.25" y="111.66" width="44.66" height="44.66"/>
  <rect class="st0" x="848.25" y="167.24" width="44.66" height="44.66"/>
  <rect class="st0" x="848.25" y="222.82" width="44.66" height="44.66"/>
  <rect class="st0" x="848.25" y="56.08" width="44.66" height="44.66"/>
  <rect class="st0" x="430.22" y="166.84" width="44.66" height="44.66"/>
  <rect class="st0" x="430.22" y="222.02" width="44.66" height="44.66"/>
  <rect class="st0" x="264.18" y="222.02" width="44.66" height="44.66"/>
  <rect class="st0" x="264.18" y="166.84" width="44.66" height="44.66"/>
  <rect class="st0" x="264.18" y="111.66" width="44.66" height="44.66"/>
  <rect class="st0" x="83.7" y="1.3" width="44.66" height="44.66"/>
  <rect class="st0" x="28.48" y="1.3" width="44.66" height="44.66"/>
  <rect class="st0" x=".5" y="55.78" width="44.66" height="44.66"/>
  <rect class="st0" x="28.48" y="111.73" width="44.66" height="44.66"/>
  <rect class="st0" x="83.7" y="111.73" width="44.66" height="44.66"/>
  <rect class="st0" x="138.92" y="111.73" width="44.66" height="44.66"/>
  <rect class="st0" x="166.53" y="167.69" width="44.66" height="44.66"/>
  <rect class="st0" x="138.92" y="223.64" width="44.66" height="44.66"/>
  <rect class="st0" x="83.7" y="223.64" width="44.66" height="44.66"/>
  <rect class="st0" x="28.48" y="223.64" width="44.66" height="44.66"/>
  <rect class="st0" x="638.85" y="1.36" width="44.66" height="44.66"/>
  <rect class="st0" x="638.85" y="56.51" width="44.66" height="44.66"/>
  <rect class="st0" x="638.85" y="166.82" width="44.66" height="44.66"/>
  <rect class="st0" x="638.85" y="221.97" width="44.66" height="44.66"/>
</svg>