<?xml version="1.0" encoding="UTF-8"?>
<svg id="Layer_1" xmlns="http://www.w3.org/2000/svg" version="1.1" viewBox="0 0 1065.85 312.56">
  <!-- Generator: Adobe Illustrator 30.5.1, SVG Export Plug-In . SVG Version: 2.1.4 Build 3)  -->
  <defs>
    <style>
      .st0, .st1 {
        fill: none;
      }

      .st2 {
        fill: #fff;
      }

      .st1 {
        stroke: #000;
        stroke-miterlimit: 10;
      }
    </style>
  </defs>
  <rect class="st0" x=".5" y=".5" width="1064.85" height="311.56"/>
  <rect class="st2" x=".5" y=".5" width="1064.85" height="311.56"/>
  <path class="st1" d="M63.91,206.54c0,10.01,1.81,18.49,5.42,25.44s8.34,12.65,14.18,17.1c6.12,4.17,13.21,7.37,21.27,9.59,8.06,1.95,16.41,2.92,25.02,2.92,5.84,0,12.1-.42,18.77-1.25,6.67-1.11,12.93-3.06,18.77-5.84,5.84-2.78,10.7-6.53,14.6-11.26,3.89-5,5.84-11.26,5.84-18.77,0-8.06-2.64-14.6-7.92-19.6-5.01-5.01-11.68-9.18-20.02-12.51-8.34-3.34-17.8-6.26-28.36-8.76-10.57-2.5-21.27-5.28-32.11-8.34-11.12-2.78-21.97-6.12-32.53-10.01-10.57-4.17-20.02-9.45-28.36-15.85-8.34-6.4-15.15-14.32-20.44-23.77-5-9.73-7.51-21.41-7.51-35.03,0-15.29,3.2-28.5,9.59-39.62,6.67-11.4,15.29-20.85,25.86-28.36,10.57-7.51,22.52-13.07,35.87-16.68,13.35-3.61,26.69-5.42,40.04-5.42,15.57,0,30.45,1.81,44.63,5.42,14.46,3.34,27.25,8.9,38.37,16.68,11.12,7.79,19.88,17.8,26.28,30.03,6.67,11.96,10.01,26.55,10.01,43.79h-63.4c-.56-8.9-2.5-16.27-5.84-22.11-3.06-5.84-7.23-10.43-12.51-13.76-5.28-3.34-11.4-5.7-18.35-7.09-6.67-1.39-14.04-2.09-22.11-2.09-5.28,0-10.57.56-15.85,1.67-5.28,1.11-10.15,3.06-14.6,5.84-4.17,2.78-7.65,6.26-10.43,10.43-2.78,4.17-4.17,9.45-4.17,15.85,0,5.84,1.11,10.57,3.34,14.18,2.22,3.61,6.53,6.95,12.93,10.01,6.67,3.06,15.71,6.12,27.11,9.18,11.68,3.06,26.83,6.95,45.46,11.68,5.56,1.11,13.21,3.2,22.94,6.26,10.01,2.78,19.88,7.37,29.61,13.76,9.73,6.4,18.07,15.01,25.02,25.86,7.23,10.57,10.84,24.19,10.84,40.87,0,13.62-2.64,26.28-7.92,37.95s-13.21,21.83-23.77,30.45c-10.29,8.34-23.22,14.88-38.79,19.6-15.29,4.73-33.09,7.09-53.39,7.09-16.41,0-32.39-2.09-47.96-6.26-15.29-3.89-28.92-10.15-40.87-18.77-11.68-8.62-20.99-19.6-27.94-32.95C3.57,240.74.24,224.89.52,206.54h63.4Z"/>
  <path class="st1" d="M382.57,190.06h77.16l-37.54-109.27h-.83l-38.79,109.27ZM388.83,7.38h67.15l111.36,297.79h-67.99l-22.52-66.32h-111.36l-23.36,66.32h-65.9L388.83,7.38Z"/>
  <path class="st1" d="M720,133.96h83v44.63h-83v83h-44.63v-83h-83v-44.63h83V50.97h44.63v83Z"/>
  <path class="st1" d="M893.51,147.52h50.88c7.51,0,14.74-.56,21.69-1.67,6.95-1.11,13.07-3.2,18.35-6.26,5.28-3.34,9.45-7.92,12.51-13.76,3.34-5.84,5-13.49,5-22.94s-1.67-17.1-5-22.94c-3.06-5.84-7.23-10.29-12.51-13.35-5.28-3.34-11.4-5.56-18.35-6.67-6.95-1.11-14.18-1.67-21.69-1.67h-50.88v89.25ZM828.03,7.38h134.3c18.63,0,34.48,2.78,47.55,8.34,13.07,5.28,23.63,12.37,31.7,21.27,8.34,8.9,14.32,19.05,17.93,30.45,3.89,11.4,5.84,23.22,5.84,35.45s-1.95,23.77-5.84,35.45c-3.61,11.4-9.59,21.55-17.93,30.45-8.06,8.9-18.63,16.13-31.7,21.69-13.07,5.28-28.92,7.92-47.55,7.92h-68.82v106.77h-65.48V7.38Z"/>
</svg>