<?xml version="1.0" encoding="UTF-8"?>
<svg id="Layer_1" xmlns="http://www.w3.org/2000/svg" version="1.1" viewBox="0 0 765.94 464.24">
  <!-- Generator: Adobe Illustrator 30.6.0, SVG Export Plug-In . SVG Version: 2.1.4 Build 109)  -->
  <path d="M6.98,91.35l13.43-1.43c.72,7.23,2.34,12.85,4.88,16.88s6.16,7.27,10.88,9.72,10.03,3.67,15.94,3.67c8.48,0,15.06-2.07,19.75-6.21,4.69-4.14,7.03-9.52,7.03-16.13,0-3.87-.85-7.25-2.55-10.14-1.7-2.89-4.27-5.26-7.7-7.11-3.43-1.85-10.85-4.46-22.26-7.83-10.15-3.01-17.38-6.04-21.67-9.09s-7.64-6.91-10.03-11.6c-2.39-4.69-3.58-9.99-3.58-15.9,0-10.63,3.43-19.31,10.3-26.06S37.52,0,49.16,0C57.16,0,64.16,1.58,70.16,4.75s10.66,7.7,13.97,13.61,5.09,12.87,5.33,20.87l-13.7,1.25c-.72-8.54-3.27-14.87-7.66-18.99s-10.55-6.18-18.5-6.18-14.21,1.81-18.45,5.42c-4.24,3.61-6.36,8.28-6.36,14.01,0,5.32,1.55,9.43,4.66,12.36,3.1,2.93,10.09,5.89,20.95,8.89,10.62,2.94,18.08,5.49,22.38,7.65,6.56,3.36,11.52,7.77,14.87,13.22,3.35,5.46,5.03,11.97,5.03,19.55s-1.76,14.36-5.28,20.53-8.31,10.87-14.37,14.09-13.36,4.83-21.9,4.83c-13.31,0-23.93-4-31.84-12s-12.02-18.84-12.31-32.51Z"/>
  <path d="M154.7,98.78l12.99,2.06c-1.49,11.34-5.24,20-11.24,25.97s-13.21,8.96-21.63,8.96c-10.21,0-18.62-4.19-25.21-12.58-6.6-8.39-9.9-20.79-9.9-37.21s3.33-28.94,9.99-37.21c6.66-8.27,15.21-12.4,25.66-12.4,8.06,0,14.85,2.51,20.38,7.52,5.52,5.02,9.06,12.54,10.61,22.57l-12.81,2.33c-1.25-6.42-3.43-11.22-6.54-14.4-3.11-3.18-6.84-4.77-11.2-4.77-6.51,0-11.9,2.88-16.17,8.64-4.27,5.76-6.4,14.91-6.4,27.45s2.04,22.33,6.13,28.12,9.33,8.69,15.72,8.69c5.02,0,9.3-1.93,12.85-5.78,3.55-3.85,5.81-9.84,6.76-17.96h.01Z"/>
  <path d="M176.12,133.62V2.32h13.17v47.11c3.1-4.36,6.61-7.63,10.52-9.81s8.22-3.27,12.94-3.27c8.3,0,14.85,2.64,19.66,7.93,4.81,5.28,7.21,14.97,7.21,29.06v60.27h-13.17v-60.27c0-8.24-1.46-14.15-4.39-17.73-2.93-3.58-6.96-5.37-12.09-5.37-5.73,0-10.61,2.3-14.64,6.9-4.03,4.6-6.04,12.75-6.04,24.45v52.04h-13.17,0Z"/>
  <path d="M252.01,86.07c0-16.42,3.45-28.81,10.34-37.17,6.9-8.36,15.63-12.54,26.2-12.54s19.08,4.18,26.06,12.54c6.99,8.36,10.48,20.42,10.48,36.18,0,17.08-3.43,29.79-10.3,38.15s-15.61,12.54-26.24,12.54-19.15-4.19-26.11-12.58c-6.96-8.39-10.43-20.76-10.43-37.12h0ZM265.53,86.02c0,12.31,2.24,21.48,6.72,27.48,4.48,6.01,10.03,9.01,16.66,9.01,6.21,0,11.54-3.03,15.99-9.1s6.67-15.2,6.67-27.39-2.24-21.39-6.72-27.39c-4.48-6.01-10.03-9.01-16.66-9.01-6.27,0-11.61,3.02-16.03,9.06-4.42,6.04-6.63,15.16-6.63,27.35h0Z"/>
  <path d="M332.91,86.07c0-16.42,3.45-28.81,10.34-37.17,6.9-8.36,15.63-12.54,26.2-12.54s19.08,4.18,26.06,12.54c6.99,8.36,10.48,20.42,10.48,36.18,0,17.08-3.43,29.79-10.3,38.15s-15.61,12.54-26.24,12.54-19.15-4.19-26.11-12.58c-6.96-8.39-10.43-20.76-10.43-37.12h0ZM346.43,86.02c0,12.31,2.24,21.48,6.72,27.48,4.48,6.01,10.03,9.01,16.66,9.01,6.21,0,11.54-3.03,15.99-9.1s6.67-15.2,6.67-27.39-2.24-21.39-6.72-27.39c-4.48-6.01-10.03-9.01-16.66-9.01-6.27,0-11.61,3.02-16.03,9.06-4.42,6.04-6.63,15.16-6.63,27.35h0Z"/>
  <path d="M418.37,133.62V2.32h13.17v131.3h-13.17Z"/>
  <path d="M486.4,69.68c0-22.39,4.93-39.6,14.78-51.63,9.85-12.03,22.12-18.05,36.81-18.05,9.49,0,18.15,2.69,25.97,8.06,7.82,5.37,14.02,13.18,18.58,23.42,4.57,10.24,6.85,22.43,6.85,36.59,0,19.46-4.42,35.32-13.25,47.56-9.73,13.49-22.48,20.24-38.24,20.24s-28.66-6.93-38.33-20.78c-8.78-12.54-13.17-27.67-13.17-45.41h0ZM501.09,69.9c0,16.2,3.57,28.76,10.7,37.69,7.13,8.93,15.81,13.4,26.02,13.4s19.21-4.51,26.29-13.54c7.08-9.02,10.61-22.29,10.61-39.8,0-11.29-1.82-21.39-5.46-30.3-2.81-6.81-7.03-12.27-12.67-16.36-5.64-4.09-11.81-6.14-18.49-6.14-10.75,0-19.6,4.48-26.56,13.45-6.96,8.96-10.43,22.83-10.43,41.59h-.01Z"/>
  <path d="M606.53,133.62V51.04h-11.73v-12.54h11.73v-10.12c0-7.46.78-13.06,2.33-16.79,1.56-3.73,3.94-6.58,7.14-8.55s7.23-2.96,12.08-2.96c3.77,0,7.9.57,12.39,1.7l-1.97,13.97c-2.75-.6-5.34-.9-7.79-.9-3.94,0-6.76,1.03-8.46,3.09s-2.55,5.99-2.55,11.78v8.78h15.23v12.54h-15.23v82.58h-13.17Z"/>
  <path d="M0,279.62l41.52-131.3h15.23l44.09,131.3h-16.3l-12.52-39.77H26.73l-11.7,39.77H0ZM30.89,225.71h36.68l-11.19-36.36c-3.46-11.16-6-20.24-7.61-27.23-1.39,8.42-3.36,16.78-5.9,25.08l-11.98,38.51h0Z"/>
  <path d="M107.5,279.62v-95.11h11.91v14.42c3.04-6.69,5.84-11.12,8.37-13.3,2.54-2.18,5.39-3.27,8.55-3.27,4.42,0,8.93,1.73,13.52,5.19l-4.48,14.96c-3.28-2.33-6.48-3.49-9.58-3.49-2.81,0-5.37.99-7.7,2.96-2.33,1.97-3.97,4.72-4.93,8.24-1.67,6.15-2.51,12.69-2.51,19.61v49.8h-13.17.02Z"/>
  <path d="M205.86,244.78l12.99,2.06c-1.49,11.34-5.24,20-11.24,25.97s-13.21,8.96-21.63,8.96c-10.21,0-18.62-4.19-25.21-12.58-6.6-8.39-9.9-20.79-9.9-37.21s3.33-28.94,9.99-37.21,15.21-12.4,25.66-12.4c8.06,0,14.85,2.51,20.38,7.52,5.52,5.02,9.06,12.54,10.61,22.57l-12.81,2.33c-1.25-6.42-3.43-11.22-6.54-14.4-3.11-3.18-6.84-4.77-11.2-4.77-6.51,0-11.9,2.88-16.17,8.64-4.27,5.76-6.4,14.91-6.4,27.45s2.04,22.33,6.13,28.12,9.33,8.69,15.72,8.69c5.02,0,9.3-1.93,12.85-5.78,3.55-3.85,5.81-9.84,6.76-17.96h.01Z"/>
  <path d="M227.29,279.62v-131.3h13.17v47.11c3.1-4.36,6.61-7.63,10.52-9.81,3.91-2.18,8.22-3.27,12.94-3.27,8.3,0,14.85,2.64,19.66,7.93,4.81,5.28,7.21,14.97,7.21,29.06v60.27h-13.17v-60.27c0-8.24-1.46-14.15-4.39-17.73-2.93-3.58-6.96-5.37-12.09-5.37-5.73,0-10.61,2.3-14.64,6.9s-6.04,12.75-6.04,24.45v52.04h-13.17Z"/>
  <path d="M308.19,166.87v-18.54h13.17v18.54h-13.17ZM308.19,279.62v-95.11h13.17v95.11h-13.17Z"/>
  <path d="M368.22,265.21l1.79,14.24c-3.64.95-6.93,1.43-9.85,1.43-4.6,0-8.3-.91-11.11-2.73s-4.73-4.31-5.78-7.48c-1.04-3.16-1.57-9.46-1.57-18.9v-54.72h-9.67v-12.54h9.67v-23.55l13.17-9.67v33.23h13.34v12.54h-13.34v55.62c0,5.14.39,8.45,1.16,9.94,1.13,2.15,3.25,3.22,6.36,3.22,1.49,0,3.43-.21,5.82-.63h.01Z"/>
  <path d="M431.21,248.99l13.61,2.06c-2.27,10.15-6.37,17.81-12.31,22.97-5.94,5.17-13.3,7.75-22.08,7.75-11.05,0-19.99-4.19-26.82-12.58-6.84-8.39-10.25-20.49-10.25-36.32s3.45-28.94,10.34-37.57c6.9-8.63,15.63-12.94,26.2-12.94s18.51,4.24,25.26,12.72,10.12,20.75,10.12,36.81l-.09,4.3h-58.21c.54,10.69,3.01,18.75,7.43,24.18s9.79,8.15,16.12,8.15c9.91,0,16.81-6.51,20.69-19.52h0ZM387.77,222.93h43.53c-.6-8.24-2.36-14.39-5.28-18.45-4.24-5.91-9.64-8.87-16.21-8.87-5.91,0-10.96,2.46-15.14,7.39-4.18,4.93-6.48,11.57-6.9,19.93h0Z"/>
  <path d="M509.87,244.78l12.99,2.06c-1.49,11.34-5.24,20-11.24,25.97s-13.21,8.96-21.63,8.96c-10.21,0-18.62-4.19-25.21-12.58-6.6-8.39-9.9-20.79-9.9-37.21s3.33-28.94,9.99-37.21,15.21-12.4,25.66-12.4c8.06,0,14.85,2.51,20.38,7.52,5.52,5.02,9.06,12.54,10.61,22.57l-12.81,2.33c-1.25-6.42-3.43-11.22-6.54-14.4s-6.84-4.77-11.2-4.77c-6.51,0-11.9,2.88-16.17,8.64-4.27,5.76-6.4,14.91-6.4,27.45s2.04,22.33,6.13,28.12,9.33,8.69,15.72,8.69c5.02,0,9.3-1.93,12.85-5.78s5.81-9.84,6.76-17.96h.01Z"/>
  <path d="M560.67,265.21l1.79,14.24c-3.64.95-6.93,1.43-9.85,1.43-4.6,0-8.3-.91-11.11-2.73s-4.73-4.31-5.78-7.48c-1.04-3.16-1.57-9.46-1.57-18.9v-54.72h-9.67v-12.54h9.67v-23.55l13.17-9.67v33.23h13.34v12.54h-13.34v55.62c0,5.14.39,8.45,1.16,9.94,1.13,2.15,3.25,3.22,6.36,3.22,1.49,0,3.43-.21,5.82-.63h.01Z"/>
  <path d="M621.42,279.62v-13.97c-3.04,5.37-6.63,9.4-10.75,12.09s-8.78,4.03-13.97,4.03c-6.15,0-11.4-1.66-15.76-4.97s-7.27-7.51-8.73-12.58c-1.46-5.07-2.19-12-2.19-20.78v-58.93h13.17v52.75c0,9.79.49,16.34,1.48,19.66.99,3.31,2.81,5.97,5.46,7.97,2.66,2,5.69,3,9.09,3,6.33,0,11.52-2.6,15.58-7.79,3.46-4.48,5.19-12.69,5.19-24.63v-50.96h13.26v95.11h-11.83Z"/>
  <path d="M651.27,279.62v-95.11h11.91v14.42c3.04-6.69,5.84-11.12,8.37-13.3,2.54-2.18,5.39-3.27,8.55-3.27,4.42,0,8.93,1.73,13.52,5.19l-4.48,14.96c-3.28-2.33-6.48-3.49-9.58-3.49-2.81,0-5.37.99-7.7,2.96s-3.97,4.72-4.93,8.24c-1.67,6.15-2.51,12.69-2.51,19.61v49.8h-13.17.02Z"/>
  <path d="M751.87,248.99l13.61,2.06c-2.27,10.15-6.37,17.81-12.31,22.97-5.94,5.17-13.3,7.75-22.08,7.75-11.05,0-19.99-4.19-26.82-12.58-6.84-8.39-10.25-20.49-10.25-36.32s3.45-28.94,10.34-37.57c6.9-8.63,15.63-12.94,26.2-12.94s18.51,4.24,25.26,12.72,10.12,20.75,10.12,36.81l-.09,4.3h-58.21c.54,10.69,3.01,18.75,7.43,24.18s9.79,8.15,16.12,8.15c9.91,0,16.81-6.51,20.69-19.52h0ZM708.44,222.93h43.53c-.6-8.24-2.36-14.39-5.28-18.45-4.24-5.91-9.64-8.87-16.21-8.87-5.91,0-10.96,2.46-15.14,7.39-4.18,4.93-6.48,11.57-6.9,19.93h0Z"/>
  <path d="M37.7,404.4v-36H8.41v-15.05h29.29v-35.73h12.54v35.73h29.29v15.05h-29.29v36h-12.54Z"/>
  <path d="M133.16,425.62v-131.3h40.57c9.55,0,16.6.84,21.14,2.51,6.21,2.27,11.17,6.48,14.87,12.63,3.7,6.15,5.55,13.7,5.55,22.66,0,11.82-3.02,21.46-9.05,28.93-6.03,7.46-16.45,11.2-31.26,11.2h-27.58v53.38h-14.24ZM147.4,356.75h27.85c8.78,0,15.19-1.98,19.26-5.96,4.06-3.97,6.09-9.96,6.09-17.96,0-5.2-1-9.64-3-13.34-2-3.7-4.42-6.24-7.25-7.61-2.84-1.37-7.96-2.06-15.36-2.06h-27.58v46.93h-.01Z"/>
  <path d="M228.48,425.62v-131.3h13.17v131.3h-13.17Z"/>
  <path d="M310.36,413.89c-4.42,4.6-9.02,8.06-13.79,10.39-4.78,2.33-9.73,3.49-14.87,3.49-8.12,0-14.6-2.45-19.43-7.34-4.84-4.9-7.25-11.49-7.25-19.79,0-5.49,1.13-10.36,3.4-14.6s5.37-7.55,9.31-9.94,9.91-4.15,17.91-5.28c10.75-1.58,18.63-3.46,23.64-5.64l.09-4.12c0-6.51-1.17-11.07-3.49-13.7-3.28-3.82-8.33-5.73-15.14-5.73-6.15,0-10.75,1.28-13.79,3.83s-5.28,7.34-6.72,14.36l-12.99-2.15c1.85-10.21,5.6-17.64,11.24-22.3,5.64-4.66,13.72-6.99,24.23-6.99,8.18,0,14.6,1.54,19.25,4.61,4.66,3.08,7.6,6.88,8.82,11.42,1.22,4.54,1.84,11.17,1.84,19.88v21.5c0,15.05.28,24.53.85,28.44.57,3.91,1.69,7.72,3.36,11.42h-13.79c-1.37-3.28-2.27-7.19-2.69-11.73v-.03ZM309.29,377.89c-4.84,2.39-12.03,4.42-21.58,6.09-5.55.96-9.43,2.05-11.64,3.27-2.21,1.22-3.93,2.96-5.15,5.19-1.22,2.24-1.84,4.82-1.84,7.75,0,4.54,1.4,8.17,4.21,10.88,2.81,2.72,6.69,4.08,11.64,4.08s9-1.22,12.85-3.67,6.73-5.72,8.64-9.81c1.91-4.09,2.87-10.04,2.87-17.87v-5.91h0Z"/>
  <path d="M340.48,425.62v-95.11h11.91v13.44c2.86-5.22,6.36-9.13,10.5-11.71s8.89-3.88,14.26-3.88c4.17,0,8.03.82,11.58,2.46,3.55,1.64,6.41,3.79,8.58,6.45,2.17,2.66,3.8,6.11,4.87,10.34,1.07,4.24,1.61,10.75,1.61,19.52v58.48h-13.17v-57.92c0-6.99-.6-12.11-1.79-15.33s-3.06-5.72-5.6-7.49c-2.54-1.76-5.48-2.65-8.82-2.65-6.33,0-11.37,2.36-15.14,7.08s-5.64,12.82-5.64,24.3v52h-13.17l.02.02Z"/>
  <path d="M421.38,425.62v-95.11h11.91v13.44c2.86-5.22,6.36-9.13,10.5-11.71s8.89-3.88,14.26-3.88c4.17,0,8.03.82,11.58,2.46,3.55,1.64,6.41,3.79,8.58,6.45,2.17,2.66,3.8,6.11,4.87,10.34,1.07,4.24,1.61,10.75,1.61,19.52v58.48h-13.17v-57.92c0-6.99-.6-12.11-1.79-15.33s-3.06-5.72-5.6-7.49c-2.54-1.76-5.48-2.65-8.82-2.65-6.33,0-11.37,2.36-15.14,7.08s-5.64,12.82-5.64,24.3v52h-13.17l.02.02Z"/>
  <path d="M502.28,312.87v-18.54h13.17v18.54h-13.17ZM502.28,425.62v-95.11h13.17v95.11h-13.17Z"/>
  <path d="M532.93,425.62v-95.11h11.91v13.44c2.86-5.22,6.36-9.13,10.5-11.71s8.89-3.88,14.26-3.88c4.17,0,8.03.82,11.58,2.46,3.55,1.64,6.41,3.79,8.58,6.45,2.17,2.66,3.8,6.11,4.87,10.34,1.07,4.24,1.61,10.75,1.61,19.52v58.48h-13.17v-57.92c0-6.99-.6-12.11-1.79-15.33s-3.06-5.72-5.6-7.49c-2.54-1.76-5.48-2.65-8.82-2.65-6.33,0-11.37,2.36-15.14,7.08s-5.64,12.82-5.64,24.3v52h-13.17l.02.02Z"/>
  <path d="M611.24,433.51l12.9,2.33c.6,5.11,2.39,8.9,5.37,11.4,2.98,2.49,7.13,3.74,12.45,3.74,5.79,0,10.4-1.39,13.84-4.16,3.43-2.78,5.78-6.91,7.03-12.41.78-3.34,1.17-10.39,1.17-21.14-2.87,4.09-6.09,7.18-9.67,9.25-3.58,2.08-7.55,3.11-11.91,3.11-9.31,0-17.05-3.94-23.2-11.82-7.05-9.08-10.57-21.23-10.57-36.45,0-10.21,1.55-19.14,4.66-26.78,3.1-7.64,7.18-13.25,12.23-16.84,5.04-3.58,10.7-5.37,16.97-5.37,4.6,0,8.79,1.13,12.58,3.38,3.79,2.25,7.15,5.64,10.08,10.14v-11.37h12.18v82.22c0,14.63-1.19,25.06-3.58,31.3s-6.3,11.16-11.73,14.78c-5.43,3.61-11.97,5.42-19.61,5.42-10.09,0-17.85-2.72-23.29-8.15-5.43-5.43-8.06-12.96-7.88-22.57h-.02ZM622.16,376.36c0,12.51,2.06,21.64,6.19,27.39s9.18,8.62,15.17,8.62,11.07-2.81,15.26-8.44,6.28-14.58,6.28-26.85-2.16-20.88-6.46-26.71c-4.31-5.84-9.54-8.75-15.71-8.75-5.5,0-10.34,2.92-14.5,8.75-4.16,5.84-6.24,14.5-6.24,25.99h.01Z"/>
</svg>