<?xml version="1.0" encoding="UTF-8"?>
<svg id="Layer_1" xmlns="http://www.w3.org/2000/svg" version="1.1" viewBox="0 0 394.55 210.95">
  <!-- Generator: Adobe Illustrator 30.5.1, SVG Export Plug-In . SVG Version: 2.1.4 Build 3)  -->
  <defs>
    <style>
      .st0 {
        fill: none;
        stroke: #000;
        stroke-miterlimit: 10;
      }
    </style>
  </defs>
  <g>
    <path d="M37.57,83.28h-15.82c-12.41,0-21.75-7.14-21.75-25.71v-31.86C0,7.14,9.34,0,21.75,0h15.82c12.52,0,21.75,7.14,21.75,25.71v31.86c0,18.57-9.23,25.71-21.75,25.71ZM38.56,28.23c0-10.88-2.31-16.15-8.9-16.15s-8.9,5.27-8.9,16.15v26.92c0,10.77,2.31,16.04,8.9,16.04s8.9-5.27,8.9-16.04v-26.92Z"/>
    <path d="M100.74,83.39h-4.61c-6.7,0-10.33-2.97-12.41-6.37v25.49h-19.89V21.75h19.89v5.82c2.09-3.63,5.82-6.37,12.41-6.37h4.61c9.67,0,14.72,5.82,14.72,18.68v24.83c0,12.85-5.16,18.68-14.72,18.68ZM89.43,72.07c3.96,0,5.71-2.97,5.71-10.88v-17.91c0-7.91-1.76-10.77-5.71-10.77s-5.71,2.86-5.71,10.77v18.02c0,7.91,1.76,10.77,5.71,10.77Z"/>
    <path d="M149.96,65.48v-3.3h19.67v4.94c0,10.77-7.25,16.26-18.79,16.26h-12.52c-12.96,0-19.45-7.14-19.45-21.2v-19.78c0-13.95,6.37-21.2,18.9-21.2h13.29c12.41,0,18.57,6.26,18.57,19.56v15.49h-31.2v7.47c0,6.26,1.54,9.34,6.15,9.34,4.06,0,5.38-2.86,5.38-7.58ZM138.42,44.27h11.76v-4.83c0-5.82-1.43-8.68-5.93-8.68s-5.82,2.86-5.82,8.68v4.83Z"/>
    <path d="M202.91,39c0-4.17-1.43-6.37-4.72-6.37s-4.72,2.42-4.72,6.37v43.84h-19.88V21.75h19.45v6.37c1.76-3.19,5.6-6.92,11.87-6.92h5.16c8.24,0,12.74,4.94,12.74,14.61v47.02h-19.88v-43.84Z"/>
    <path d="M227.41,2.09h20.1v16.26h-20.1V2.09ZM247.41,21.75v61.08h-19.88V21.75h19.88Z"/>
    <path d="M281.57,39c0-4.17-1.43-6.37-4.72-6.37s-4.72,2.42-4.72,6.37v43.84h-19.88V21.75h19.45v6.37c1.76-3.19,5.6-6.92,11.87-6.92h5.16c8.24,0,12.74,4.94,12.74,14.61v47.02h-19.88v-43.84Z"/>
    <path d="M305.63,39.99c0-12.96,5.05-18.68,14.72-18.68h4.62c6.48,0,10.22,2.86,12.3,6.37v-5.93h19.78v63.72c0,12.74-7.47,17.69-18.68,17.69h-13.73c-11.54,0-18.79-4.61-18.79-14.94v-1.76h19.78v.66c.11,3.52,1.54,5.6,5.71,5.6s5.93-2.31,5.93-7.14v-9.56c-1.98,3.63-5.71,6.59-12.3,6.59h-4.62c-9.67,0-14.72-5.82-14.72-18.57v-24.06ZM331.45,71.3c3.96,0,5.82-2.86,5.82-10.77v-17.14c0-8.02-1.87-10.77-5.82-10.77s-5.49,2.86-5.49,10.77v17.14c0,7.91,1.65,10.77,5.49,10.77Z"/>
  </g>
  <g>
    <path d="M29.09,103.3v39.61c0,3.48.38,5.6,1.06,6.44.68.76,2.73,1.21,6.06,1.36v.83h-17.95v-.83c3.11-.23,5-.76,5.83-1.67.83-.98,1.29-3.03,1.29-6.14v-39.61h-11.06c-5.08,0-6.51,2.58-7.04,9.62h-.83l.45-11.51h40.68l.53,11.51h-.83c-.61-7.04-2.04-9.62-7.12-9.62h-11.06Z"/>
    <path d="M81.27,145.64c0,2.12.3,3.48.98,4.09.68.53,2.2.91,4.54.98v.83h-14.69v-.83c4.54-.23,5.6-1.06,5.6-5.08v-17.88c0-5.68-1.89-8.48-5.68-8.48-3.11,0-6.67,2.2-10.76,6.51v19.85c0,2.05.3,3.41.98,4.01s2.2.98,4.54,1.06v.83h-14.77v-.83c4.77-.08,5.68-1.06,5.68-5.08v-39.77c0-2.12-.83-3.18-2.5-3.18-.83,0-1.89.23-3.18.76l-.3-.76,9.01-3.71h.53v25.07c4.92-5.08,8.56-7.42,12.73-7.42,4.85,0,7.27,3.26,7.27,9.77v19.24Z"/>
    <path d="M94.15,130.49c0,12.19,5,18.48,11.97,18.48,5.98,0,9.77-3.48,11.44-10.38l.76.38c-.68,3.86-2.2,7.04-4.54,9.7-2.35,2.65-5.3,3.94-8.71,3.94-4.32,0-7.8-1.67-10.38-5-2.58-3.33-3.86-7.65-3.86-12.88,0-11.59,5.83-18.1,15-18.1,3.71,0,6.82,1.29,9.17,3.86,2.35,2.58,3.56,5.91,3.56,10h-24.39ZM113.38,128.75c.23-6.29-3.64-10.38-9.09-10.38-2.5,0-4.77.98-6.82,2.95-1.97,1.89-3.03,4.39-3.26,7.42h19.16Z"/>
  </g>
  <g>
    <path class="st0" d="M183.15,89.71l5.31,61.66,7.73-61.66h48.78v120.75h-31.23v-87.74l-12.4,87.74h-28.66l-12.72-86.78v86.78h-27.53v-120.75h50.71Z"/>
    <path class="st0" d="M315.16,89.71v23.99h-29.78v24.31h28.98v23.99h-28.98v24.15h30.59v24.31h-64.72v-120.75h63.92Z"/>
    <path class="st0" d="M394.05,89.71v24.47h-19.96v96.28h-34.78v-96.28h-20.12v-24.47h74.86Z"/>
  </g>
</svg>