<?xml version="1.0" encoding="UTF-8"?>
<svg id="Layer_1" xmlns="http://www.w3.org/2000/svg" version="1.1" viewBox="0 0 403.42 208.53">
  <!-- Generator: Adobe Illustrator 30.5.1, SVG Export Plug-In . SVG Version: 2.1.4 Build 3)  -->
  <defs>
    <style>
      .st0 {
        fill: none;
        stroke: #000;
      }
    </style>
  </defs>
  <g>
    <path class="st0" d="M.5,41.7c0-8.64,1.46-16.04,4.39-22.19,2.93-6.15,7.03-10.86,12.3-14.12C22.47,2.13,28.59.5,35.55.5s13.27,1.61,18.51,4.83c5.24,3.22,9.32,7.89,12.25,14.01,2.93,6.12,4.39,13.5,4.39,22.14s-1.45,16.15-4.34,22.3c-2.89,6.15-6.96,10.86-12.19,14.12-5.24,3.26-11.44,4.89-18.62,4.89s-13.17-1.61-18.4-4.83c-5.24-3.22-9.32-7.91-12.25-14.06C1.96,57.74.5,50.34.5,41.7ZM7.53,41.7c0,7.18,1.08,13.4,3.24,18.68,2.16,5.27,5.33,9.34,9.5,12.19,4.17,2.86,9.26,4.29,15.27,4.29s11.1-1.43,15.27-4.29,7.36-6.92,9.56-12.19,3.3-11.5,3.3-18.68-1.1-13.4-3.3-18.68-5.38-9.36-9.56-12.25c-4.17-2.89-9.27-4.34-15.27-4.34s-11.1,1.45-15.27,4.34c-4.17,2.89-7.34,6.98-9.5,12.25-2.16,5.27-3.24,11.5-3.24,18.68Z"/>
    <path class="st0" d="M84.54,24.45h6.37v10.11c2.2-3.88,5-6.83,8.4-8.84,3.41-2.01,7.42-3.02,12.03-3.02,7.84,0,13.82,2.71,17.96,8.13,4.14,5.42,6.21,12.63,6.21,21.64s-2.23,16.66-6.7,22.08c-4.47,5.42-10.62,8.13-18.46,8.13-4.03,0-7.76-.9-11.21-2.69-3.44-1.79-6.19-4.6-8.24-8.4v30.65h-6.37V24.45ZM128.71,52.47c0-8.5-1.76-14.68-5.27-18.57-3.52-3.88-7.87-5.82-13.07-5.82-6.23,0-11.04,2.02-14.45,6.04-3.41,4.03-5.11,9.3-5.11,15.82v4.94c0,6.96,1.56,12.43,4.67,16.42,3.11,3.99,7.82,5.99,14.12,5.99,5.79,0,10.42-2.03,13.9-6.1,3.48-4.07,5.22-10.31,5.22-18.73Z"/>
    <path class="st0" d="M146.51,53.12c0-9.74,2.38-17.25,7.14-22.52,4.76-5.27,11.06-7.91,18.9-7.91s14.15,2.53,18.07,7.58c3.92,5.05,5.88,11.87,5.88,20.43v3.52h-43.5c.22,7.4,1.99,13.11,5.33,17.14,3.33,4.03,8.07,6.04,14.23,6.04,4.83,0,8.61-.99,11.32-2.97,2.71-1.98,4.5-4.76,5.38-8.35h6.15c-.95,5.13-3.35,9.17-7.2,12.14-3.84,2.97-9.06,4.45-15.65,4.45-8.35,0-14.78-2.6-19.28-7.8-4.5-5.2-6.76-12.45-6.76-21.75ZM158.32,33.79c-3.04,4.03-4.78,9.19-5.22,15.49h37.02c-.22-6.96-1.69-12.29-4.39-15.98-2.71-3.7-7.14-5.55-13.29-5.55s-11.08,2.02-14.12,6.04Z"/>
    <path class="st0" d="M209.57,24.45h6.37v9.12c2.78-3.74,5.95-6.48,9.5-8.24,3.55-1.76,7.38-2.64,11.48-2.64,6.3,0,11.02,1.74,14.17,5.22,3.15,3.48,4.72,8.59,4.72,15.33v37.68h-6.37v-36.47c0-5.64-1.15-9.74-3.46-12.3-2.31-2.56-5.77-3.85-10.38-3.85-2.71,0-5.29.46-7.75,1.37-2.46.92-4.67,2.33-6.65,4.23-1.91,1.76-3.26,3.5-4.07,5.22-.81,1.72-1.21,4.23-1.21,7.53v34.28h-6.37V24.45Z"/>
    <path class="st0" d="M270.87,2.48h6.59v10.66h-6.59V2.48ZM270.98,24.45h6.37v56.47h-6.37V24.45Z"/>
    <path class="st0" d="M292.95,24.45h6.37v9.12c2.78-3.74,5.95-6.48,9.5-8.24,3.55-1.76,7.38-2.64,11.48-2.64,6.3,0,11.02,1.74,14.17,5.22,3.15,3.48,4.72,8.59,4.72,15.33v37.68h-6.37v-36.47c0-5.64-1.15-9.74-3.46-12.3-2.31-2.56-5.77-3.85-10.38-3.85-2.71,0-5.29.46-7.75,1.37-2.46.92-4.67,2.33-6.65,4.23-1.91,1.76-3.26,3.5-4.07,5.22-.81,1.72-1.21,4.23-1.21,7.53v34.28h-6.37V24.45Z"/>
    <path class="st0" d="M396.55,78.17v-10c-2.12,3.74-4.87,6.63-8.24,8.68-3.37,2.05-7.4,3.08-12.08,3.08-5.27,0-9.71-1.23-13.29-3.68-3.59-2.45-6.32-5.84-8.18-10.16-1.87-4.32-2.8-9.23-2.8-14.72,0-5.79,1.03-10.82,3.08-15.11,2.05-4.28,4.98-7.62,8.79-10,3.81-2.38,8.31-3.57,13.51-3.57,4.03,0,7.69.84,10.99,2.53,3.3,1.69,6.04,4.43,8.24,8.24v-9.01h6.37v51.09c0,5.93-.73,10.99-2.2,15.16-1.47,4.17-3.97,7.34-7.53,9.5-3.55,2.16-8.44,3.24-14.67,3.24-7.25,0-12.93-1.32-17.03-3.96-4.1-2.64-6.48-6.78-7.14-12.41h6.26c.8,3.81,2.6,6.61,5.38,8.4,2.78,1.79,6.96,2.69,12.52,2.69,6.52,0,11.15-1.65,13.9-4.94,2.75-3.3,4.12-8.31,4.12-15.05ZM392.16,33.9c-3-3.88-7.65-5.82-13.95-5.82-5.79,0-10.47,1.92-14.06,5.77-3.59,3.85-5.38,9.69-5.38,17.52s1.78,13.73,5.33,17.47c3.55,3.74,7.93,5.6,13.13,5.6,6.37,0,11.21-1.98,14.5-5.93s4.94-9.01,4.94-15.16v-3.74c0-6.59-1.5-11.83-4.5-15.71Z"/>
  </g>
  <g>
    <path class="st0" d="M20.41,99.72H1.93v-4.17h41.66v4.17h-18.56v49.91h-4.62v-49.91Z"/>
    <path class="st0" d="M50.33,95.55h4.39v21.36c1.92-2.52,4.11-4.39,6.59-5.6,2.47-1.21,5.1-1.82,7.88-1.82,4.34,0,7.6,1.2,9.77,3.6,2.17,2.4,3.26,5.92,3.26,10.56v25.98h-4.39v-25.14c0-3.89-.8-6.71-2.39-8.48-1.59-1.77-3.98-2.65-7.16-2.65-1.87,0-3.65.32-5.34.95-1.69.63-3.22,1.6-4.58,2.92-1.31,1.26-2.25,2.47-2.8,3.64-.56,1.16-.83,2.88-.83,5.15v23.63h-4.39v-54.08Z"/>
    <path class="st0" d="M91.08,130.47c0-6.71,1.64-11.89,4.92-15.53,3.28-3.64,7.62-5.45,13.03-5.45s9.76,1.74,12.46,5.23c2.7,3.48,4.05,8.18,4.05,14.09v2.42h-29.99c.15,5.1,1.38,9.04,3.67,11.81,2.3,2.78,5.57,4.17,9.81,4.17,3.33,0,5.93-.68,7.8-2.04,1.87-1.36,3.1-3.28,3.71-5.76h4.24c-.66,3.53-2.31,6.32-4.96,8.37s-6.25,3.07-10.79,3.07c-5.76,0-10.19-1.79-13.29-5.38-3.11-3.58-4.66-8.58-4.66-15ZM99.22,117.14c-2.1,2.78-3.29,6.34-3.6,10.68h25.52c-.15-4.8-1.16-8.47-3.03-11.02-1.87-2.55-4.92-3.82-9.16-3.82s-7.64,1.39-9.73,4.17Z"/>
  </g>
  <g>
    <path d="M152.75,95.84l19,90.8,18.35-90.8h20.77v3.22c-4.29,0-7.11.7-8.45,2.09-1.34,1.4-2.01,4.19-2.01,8.37v85.33c0,4.19.67,6.98,2.01,8.37,1.34,1.4,4.16,2.09,8.45,2.09v3.22h-30.59v-3.22c4.29,0,7.11-.7,8.45-2.09,1.34-1.39,2.01-4.19,2.01-8.37v-82.11l-19.32,95.79h-3.22l-20.93-95.79v78.89c0,4.29.78,7.65,2.33,10.06,1.55,2.42,4.53,3.62,8.94,3.62v3.22h-26.56v-3.22c4.4,0,7.38-1.21,8.94-3.62,1.55-2.42,2.33-5.77,2.33-10.06v-78.89c0-4.29-.78-7.65-2.33-10.06-1.56-2.42-4.54-3.62-8.94-3.62v-3.22h20.77Z"/>
    <path d="M289.43,208.53h-65.69v-3.22h.81c4.29,0,7.11-.7,8.45-2.09,1.34-1.39,2.01-4.19,2.01-8.37v-85.33c0-4.19-.67-6.98-2.01-8.37-1.34-1.39-4.16-2.09-8.45-2.09h-.81v-3.22h64.08l5.96,25.76-3.22.81c-4.51-15.03-13.1-22.54-25.76-22.54h-9.66c-4.29,0-7.11.67-8.45,2.01-1.34,1.34-2.01,3.89-2.01,7.65v39.44h11.27c4.29,0,7.65-.78,10.06-2.33,2.42-1.55,3.62-4.53,3.62-8.94v-.81h3.22v28.17h-3.22v-.81c0-4.4-1.21-7.38-3.62-8.94-2.42-1.55-5.77-2.33-10.06-2.33h-11.27v41.86c0,3.76.67,6.31,2.01,7.65,1.34,1.34,4.16,2.01,8.45,2.01h11.27c12.66,0,21.25-7.51,25.76-22.54l3.22.8-5.96,25.76Z"/>
    <path d="M312.62,95.84h65.37l5.96,25.76-3.22.81c-2.25-7.62-5.23-13.28-8.93-16.99-3.7-3.7-7.7-5.55-12-5.55h-9.66v94.99c0,4.19.67,6.98,2.01,8.37,1.34,1.4,4.16,2.09,8.45,2.09h1.61v3.22h-33.81v-3.22h1.61c4.29,0,7.11-.7,8.45-2.09,1.34-1.39,2.01-4.19,2.01-8.37v-94.99h-9.66c-4.29,0-8.29,1.85-11.99,5.55-3.7,3.7-6.68,9.37-8.94,16.99l-3.22-.81,5.96-25.76Z"/>
  </g>
</svg>