<?xml version="1.0" encoding="UTF-8"?>
<svg id="Layer_1" xmlns="http://www.w3.org/2000/svg" version="1.1" viewBox="0 0 1058.14 296.52">
  <!-- Generator: Adobe Illustrator 30.5.1, SVG Export Plug-In . SVG Version: 2.1.4 Build 3)  -->
  <g>
    <path d="M11.63,63.96H0v-17.44h11.63v17.44ZM11.63,87.21H0v-17.44h11.63v17.44ZM11.63,110.47H0v-17.44h11.63v17.44ZM11.63,133.73H0v-17.44h11.63v17.44ZM11.63,156.98H0v-17.44h11.63v17.44ZM11.63,180.24H0v-17.44h11.63v17.44ZM11.63,250.01H0v-17.44h11.63v17.44ZM11.63,273.26H0v-17.44h11.63v17.44ZM11.63,296.52H0v-17.44h11.63v17.44ZM34.88,63.96h-11.63v-17.44h11.63v17.44ZM34.88,87.21h-11.63v-17.44h11.63v17.44ZM34.88,110.47h-11.63v-17.44h11.63v17.44ZM34.88,133.73h-11.63v-17.44h11.63v17.44ZM34.88,156.98h-11.63v-17.44h11.63v17.44ZM34.88,180.24h-11.63v-17.44h11.63v17.44ZM34.88,250.01h-11.63v-17.44h11.63v17.44ZM34.88,273.26h-11.63v-17.44h11.63v17.44ZM34.88,296.52h-11.63v-17.44h11.63v17.44ZM58.14,17.44h-11.63V0h11.63v17.44ZM58.14,40.7h-11.63v-17.44h11.63v17.44ZM58.14,63.96h-11.63v-17.44h11.63v17.44ZM58.14,87.21h-11.63v-17.44h11.63v17.44ZM58.14,110.47h-11.63v-17.44h11.63v17.44ZM58.14,133.73h-11.63v-17.44h11.63v17.44ZM58.14,156.98h-11.63v-17.44h11.63v17.44ZM58.14,180.24h-11.63v-17.44h11.63v17.44ZM58.14,250.01h-11.63v-17.44h11.63v17.44ZM58.14,273.26h-11.63v-17.44h11.63v17.44ZM58.14,296.52h-11.63v-17.44h11.63v17.44ZM81.4,17.44h-11.63V0h11.63v17.44ZM81.4,40.7h-11.63v-17.44h11.63v17.44ZM81.4,63.96h-11.63v-17.44h11.63v17.44ZM81.4,133.73h-11.63v-17.44h11.63v17.44ZM81.4,156.98h-11.63v-17.44h11.63v17.44ZM81.4,180.24h-11.63v-17.44h11.63v17.44ZM81.4,250.01h-11.63v-17.44h11.63v17.44ZM81.4,273.26h-11.63v-17.44h11.63v17.44ZM81.4,296.52h-11.63v-17.44h11.63v17.44ZM104.65,17.44h-11.63V0h11.63v17.44ZM104.65,40.7h-11.63v-17.44h11.63v17.44ZM104.65,63.96h-11.63v-17.44h11.63v17.44ZM104.65,133.73h-11.63v-17.44h11.63v17.44ZM104.65,156.98h-11.63v-17.44h11.63v17.44ZM104.65,180.24h-11.63v-17.44h11.63v17.44ZM104.65,250.01h-11.63v-17.44h11.63v17.44ZM104.65,273.26h-11.63v-17.44h11.63v17.44ZM104.65,296.52h-11.63v-17.44h11.63v17.44ZM127.91,17.44h-11.63V0h11.63v17.44ZM127.91,40.7h-11.63v-17.44h11.63v17.44ZM127.91,63.96h-11.63v-17.44h11.63v17.44ZM127.91,133.73h-11.63v-17.44h11.63v17.44ZM127.91,156.98h-11.63v-17.44h11.63v17.44ZM127.91,180.24h-11.63v-17.44h11.63v17.44ZM127.91,250.01h-11.63v-17.44h11.63v17.44ZM127.91,273.26h-11.63v-17.44h11.63v17.44ZM127.91,296.52h-11.63v-17.44h11.63v17.44ZM151.17,17.44h-11.63V0h11.63v17.44ZM151.17,40.7h-11.63v-17.44h11.63v17.44ZM151.17,63.96h-11.63v-17.44h11.63v17.44ZM151.17,133.73h-11.63v-17.44h11.63v17.44ZM151.17,156.98h-11.63v-17.44h11.63v17.44ZM151.17,180.24h-11.63v-17.44h11.63v17.44ZM151.17,250.01h-11.63v-17.44h11.63v17.44ZM151.17,273.26h-11.63v-17.44h11.63v17.44ZM151.17,296.52h-11.63v-17.44h11.63v17.44ZM174.42,17.44h-11.63V0h11.63v17.44ZM174.42,40.7h-11.63v-17.44h11.63v17.44ZM174.42,63.96h-11.63v-17.44h11.63v17.44ZM174.42,133.73h-11.63v-17.44h11.63v17.44ZM174.42,156.98h-11.63v-17.44h11.63v17.44ZM174.42,180.24h-11.63v-17.44h11.63v17.44ZM174.42,203.5h-11.63v-17.44h11.63v17.44ZM174.42,226.75h-11.63v-17.44h11.63v17.44ZM174.42,250.01h-11.63v-17.44h11.63v17.44ZM174.42,273.26h-11.63v-17.44h11.63v17.44ZM174.42,296.52h-11.63v-17.44h11.63v17.44ZM197.68,17.44h-11.63V0h11.63v17.44ZM197.68,40.7h-11.63v-17.44h11.63v17.44ZM197.68,63.96h-11.63v-17.44h11.63v17.44ZM197.68,133.73h-11.63v-17.44h11.63v17.44ZM197.68,156.98h-11.63v-17.44h11.63v17.44ZM197.68,180.24h-11.63v-17.44h11.63v17.44ZM197.68,203.5h-11.63v-17.44h11.63v17.44ZM197.68,226.75h-11.63v-17.44h11.63v17.44ZM197.68,250.01h-11.63v-17.44h11.63v17.44ZM220.94,17.44h-11.63V0h11.63v17.44ZM220.94,40.7h-11.63v-17.44h11.63v17.44ZM220.94,63.96h-11.63v-17.44h11.63v17.44ZM220.94,133.73h-11.63v-17.44h11.63v17.44ZM220.94,156.98h-11.63v-17.44h11.63v17.44ZM220.94,180.24h-11.63v-17.44h11.63v17.44ZM220.94,203.5h-11.63v-17.44h11.63v17.44ZM220.94,226.75h-11.63v-17.44h11.63v17.44ZM220.94,250.01h-11.63v-17.44h11.63v17.44Z"/>
    <path d="M267.45,110.47h-11.63v-17.44h11.63v17.44ZM267.45,133.73h-11.63v-17.44h11.63v17.44ZM267.45,156.98h-11.63v-17.44h11.63v17.44ZM267.45,180.24h-11.63v-17.44h11.63v17.44ZM267.45,203.5h-11.63v-17.44h11.63v17.44ZM267.45,226.75h-11.63v-17.44h11.63v17.44ZM267.45,250.01h-11.63v-17.44h11.63v17.44ZM267.45,273.26h-11.63v-17.44h11.63v17.44ZM267.45,296.52h-11.63v-17.44h11.63v17.44ZM290.7,110.47h-11.63v-17.44h11.63v17.44ZM290.7,133.73h-11.63v-17.44h11.63v17.44ZM290.7,156.98h-11.63v-17.44h11.63v17.44ZM290.7,180.24h-11.63v-17.44h11.63v17.44ZM290.7,203.5h-11.63v-17.44h11.63v17.44ZM290.7,226.75h-11.63v-17.44h11.63v17.44ZM290.7,250.01h-11.63v-17.44h11.63v17.44ZM290.7,273.26h-11.63v-17.44h11.63v17.44ZM290.7,296.52h-11.63v-17.44h11.63v17.44ZM313.96,63.96h-11.63v-17.44h11.63v17.44ZM313.96,87.21h-11.63v-17.44h11.63v17.44ZM313.96,110.47h-11.63v-17.44h11.63v17.44ZM313.96,133.73h-11.63v-17.44h11.63v17.44ZM313.96,156.98h-11.63v-17.44h11.63v17.44ZM313.96,180.24h-11.63v-17.44h11.63v17.44ZM313.96,203.5h-11.63v-17.44h11.63v17.44ZM313.96,226.75h-11.63v-17.44h11.63v17.44ZM313.96,250.01h-11.63v-17.44h11.63v17.44ZM313.96,273.26h-11.63v-17.44h11.63v17.44ZM313.96,296.52h-11.63v-17.44h11.63v17.44ZM337.22,63.96h-11.63v-17.44h11.63v17.44ZM337.22,87.21h-11.63v-17.44h11.63v17.44ZM337.22,110.47h-11.63v-17.44h11.63v17.44ZM337.22,180.24h-11.63v-17.44h11.63v17.44ZM337.22,203.5h-11.63v-17.44h11.63v17.44ZM337.22,226.75h-11.63v-17.44h11.63v17.44ZM360.47,17.44h-11.63V0h11.63v17.44ZM360.47,40.7h-11.63v-17.44h11.63v17.44ZM360.47,63.96h-11.63v-17.44h11.63v17.44ZM360.47,87.21h-11.63v-17.44h11.63v17.44ZM360.47,110.47h-11.63v-17.44h11.63v17.44ZM360.47,180.24h-11.63v-17.44h11.63v17.44ZM360.47,203.5h-11.63v-17.44h11.63v17.44ZM360.47,226.75h-11.63v-17.44h11.63v17.44ZM383.73,17.44h-11.63V0h11.63v17.44ZM383.73,40.7h-11.63v-17.44h11.63v17.44ZM383.73,63.96h-11.63v-17.44h11.63v17.44ZM383.73,180.24h-11.63v-17.44h11.63v17.44ZM383.73,203.5h-11.63v-17.44h11.63v17.44ZM383.73,226.75h-11.63v-17.44h11.63v17.44ZM406.99,17.44h-11.63V0h11.63v17.44ZM406.99,40.7h-11.63v-17.44h11.63v17.44ZM406.99,63.96h-11.63v-17.44h11.63v17.44ZM406.99,180.24h-11.63v-17.44h11.63v17.44ZM406.99,203.5h-11.63v-17.44h11.63v17.44ZM406.99,226.75h-11.63v-17.44h11.63v17.44ZM430.24,17.44h-11.63V0h11.63v17.44ZM430.24,40.7h-11.63v-17.44h11.63v17.44ZM430.24,63.96h-11.63v-17.44h11.63v17.44ZM430.24,180.24h-11.63v-17.44h11.63v17.44ZM430.24,203.5h-11.63v-17.44h11.63v17.44ZM430.24,226.75h-11.63v-17.44h11.63v17.44ZM453.5,17.44h-11.63V0h11.63v17.44ZM453.5,40.7h-11.63v-17.44h11.63v17.44ZM453.5,63.96h-11.63v-17.44h11.63v17.44ZM453.5,87.21h-11.63v-17.44h11.63v17.44ZM453.5,110.47h-11.63v-17.44h11.63v17.44ZM453.5,133.73h-11.63v-17.44h11.63v17.44ZM453.5,156.98h-11.63v-17.44h11.63v17.44ZM453.5,180.24h-11.63v-17.44h11.63v17.44ZM453.5,203.5h-11.63v-17.44h11.63v17.44ZM453.5,226.75h-11.63v-17.44h11.63v17.44ZM453.5,250.01h-11.63v-17.44h11.63v17.44ZM453.5,273.26h-11.63v-17.44h11.63v17.44ZM453.5,296.52h-11.63v-17.44h11.63v17.44ZM476.76,17.44h-11.63V0h11.63v17.44ZM476.76,40.7h-11.63v-17.44h11.63v17.44ZM476.76,63.96h-11.63v-17.44h11.63v17.44ZM476.76,87.21h-11.63v-17.44h11.63v17.44ZM476.76,110.47h-11.63v-17.44h11.63v17.44ZM476.76,133.73h-11.63v-17.44h11.63v17.44ZM476.76,156.98h-11.63v-17.44h11.63v17.44ZM476.76,180.24h-11.63v-17.44h11.63v17.44ZM476.76,203.5h-11.63v-17.44h11.63v17.44ZM476.76,226.75h-11.63v-17.44h11.63v17.44ZM476.76,250.01h-11.63v-17.44h11.63v17.44ZM476.76,273.26h-11.63v-17.44h11.63v17.44ZM476.76,296.52h-11.63v-17.44h11.63v17.44ZM500.01,17.44h-11.63V0h11.63v17.44ZM500.01,40.7h-11.63v-17.44h11.63v17.44ZM500.01,63.96h-11.63v-17.44h11.63v17.44ZM500.01,87.21h-11.63v-17.44h11.63v17.44ZM500.01,110.47h-11.63v-17.44h11.63v17.44ZM500.01,133.73h-11.63v-17.44h11.63v17.44ZM500.01,156.98h-11.63v-17.44h11.63v17.44ZM500.01,180.24h-11.63v-17.44h11.63v17.44ZM500.01,203.5h-11.63v-17.44h11.63v17.44ZM500.01,226.75h-11.63v-17.44h11.63v17.44ZM500.01,250.01h-11.63v-17.44h11.63v17.44ZM500.01,273.26h-11.63v-17.44h11.63v17.44ZM500.01,296.52h-11.63v-17.44h11.63v17.44Z"/>
    <path d="M813.95,0h11.63v17.44h-11.63V0ZM813.95,23.26h11.63v17.44h-11.63v-17.44ZM813.95,46.51h11.63v17.44h-11.63v-17.44ZM813.95,69.77h11.63v17.44h-11.63v-17.44ZM813.95,93.03h11.63v17.44h-11.63v-17.44ZM813.95,116.28h11.63v17.44h-11.63v-17.44ZM813.95,139.54h11.63v17.44h-11.63v-17.44ZM813.95,162.8h11.63v17.44h-11.63v-17.44ZM813.95,186.05h11.63v17.44h-11.63v-17.44ZM813.95,209.31h11.63v17.44h-11.63v-17.44ZM813.95,232.57h11.63v17.44h-11.63v-17.44ZM813.95,255.82h11.63v17.44h-11.63v-17.44ZM813.95,279.08h11.63v17.44h-11.63v-17.44ZM837.2,0h11.63v17.44h-11.63V0ZM837.2,23.26h11.63v17.44h-11.63v-17.44ZM837.2,46.51h11.63v17.44h-11.63v-17.44ZM837.2,69.77h11.63v17.44h-11.63v-17.44ZM837.2,93.03h11.63v17.44h-11.63v-17.44ZM837.2,116.28h11.63v17.44h-11.63v-17.44ZM837.2,139.54h11.63v17.44h-11.63v-17.44ZM837.2,162.8h11.63v17.44h-11.63v-17.44ZM837.2,186.05h11.63v17.44h-11.63v-17.44ZM837.2,209.31h11.63v17.44h-11.63v-17.44ZM837.2,232.57h11.63v17.44h-11.63v-17.44ZM837.2,255.82h11.63v17.44h-11.63v-17.44ZM837.2,279.08h11.63v17.44h-11.63v-17.44ZM860.46,0h11.63v17.44h-11.63V0ZM860.46,23.26h11.63v17.44h-11.63v-17.44ZM860.46,46.51h11.63v17.44h-11.63v-17.44ZM860.46,69.77h11.63v17.44h-11.63v-17.44ZM860.46,93.03h11.63v17.44h-11.63v-17.44ZM860.46,116.28h11.63v17.44h-11.63v-17.44ZM860.46,139.54h11.63v17.44h-11.63v-17.44ZM860.46,162.8h11.63v17.44h-11.63v-17.44ZM860.46,186.05h11.63v17.44h-11.63v-17.44ZM860.46,209.31h11.63v17.44h-11.63v-17.44ZM860.46,232.57h11.63v17.44h-11.63v-17.44ZM860.46,255.82h11.63v17.44h-11.63v-17.44ZM860.46,279.08h11.63v17.44h-11.63v-17.44ZM883.71,0h11.63v17.44h-11.63V0ZM883.71,23.26h11.63v17.44h-11.63v-17.44ZM883.71,46.51h11.63v17.44h-11.63v-17.44ZM883.71,139.54h11.63v17.44h-11.63v-17.44ZM883.71,162.8h11.63v17.44h-11.63v-17.44ZM883.71,186.05h11.63v17.44h-11.63v-17.44ZM906.97,0h11.63v17.44h-11.63V0ZM906.97,23.26h11.63v17.44h-11.63v-17.44ZM906.97,46.51h11.63v17.44h-11.63v-17.44ZM906.97,139.54h11.63v17.44h-11.63v-17.44ZM906.97,162.8h11.63v17.44h-11.63v-17.44ZM906.97,186.05h11.63v17.44h-11.63v-17.44ZM930.23,0h11.63v17.44h-11.63V0ZM930.23,23.26h11.63v17.44h-11.63v-17.44ZM930.23,46.51h11.63v17.44h-11.63v-17.44ZM930.23,139.54h11.63v17.44h-11.63v-17.44ZM930.23,162.8h11.63v17.44h-11.63v-17.44ZM930.23,186.05h11.63v17.44h-11.63v-17.44ZM953.48,0h11.63v17.44h-11.63V0ZM953.48,23.26h11.63v17.44h-11.63v-17.44ZM953.48,46.51h11.63v17.44h-11.63v-17.44ZM953.48,139.54h11.63v17.44h-11.63v-17.44ZM953.48,162.8h11.63v17.44h-11.63v-17.44ZM953.48,186.05h11.63v17.44h-11.63v-17.44ZM976.74,0h11.63v17.44h-11.63V0ZM976.74,23.26h11.63v17.44h-11.63v-17.44ZM976.74,46.51h11.63v17.44h-11.63v-17.44ZM976.74,139.54h11.63v17.44h-11.63v-17.44ZM976.74,162.8h11.63v17.44h-11.63v-17.44ZM976.74,186.05h11.63v17.44h-11.63v-17.44ZM1000,0h11.63v17.44h-11.63V0ZM1000,23.26h11.63v17.44h-11.63v-17.44ZM1000,46.51h11.63v17.44h-11.63v-17.44ZM1000,69.77h11.63v17.44h-11.63v-17.44ZM1000,93.03h11.63v17.44h-11.63v-17.44ZM1000,116.28h11.63v17.44h-11.63v-17.44ZM1000,139.54h11.63v17.44h-11.63v-17.44ZM1000,162.8h11.63v17.44h-11.63v-17.44ZM1000,186.05h11.63v17.44h-11.63v-17.44ZM1023.25,46.51h11.63v17.44h-11.63v-17.44ZM1023.25,69.77h11.63v17.44h-11.63v-17.44ZM1023.25,93.03h11.63v17.44h-11.63v-17.44ZM1023.25,116.28h11.63v17.44h-11.63v-17.44ZM1023.25,139.54h11.63v17.44h-11.63v-17.44ZM1046.51,46.51h11.63v17.44h-11.63v-17.44ZM1046.51,69.77h11.63v17.44h-11.63v-17.44ZM1046.51,93.03h11.63v17.44h-11.63v-17.44ZM1046.51,116.28h11.63v17.44h-11.63v-17.44ZM1046.51,139.54h11.63v17.44h-11.63v-17.44Z"/>
  </g>
  <g>
    <path d="M641,40.6h-11.63v-17.44h11.63v17.44ZM641,63.86h-11.63v-17.44h11.63v17.44ZM641,87.11h-11.63v-17.44h11.63v17.44ZM641,110.37h-11.63v-17.44h11.63v17.44ZM641,133.63h-11.63v-17.44h11.63v17.44ZM641,156.88h-11.63v-17.44h11.63v17.44ZM641,180.14h-11.63v-17.44h11.63v17.44ZM641,203.39h-11.63v-17.44h11.63v17.44ZM641,226.65h-11.63v-17.44h11.63v17.44ZM641,249.91h-11.63v-17.44h11.63v17.44ZM641,273.16h-11.63v-17.44h11.63v17.44ZM664.26,40.6h-11.63v-17.44h11.63v17.44ZM664.26,63.86h-11.63v-17.44h11.63v17.44ZM664.26,87.11h-11.63v-17.44h11.63v17.44ZM664.26,110.37h-11.63v-17.44h11.63v17.44ZM664.26,133.63h-11.63v-17.44h11.63v17.44ZM664.26,156.88h-11.63v-17.44h11.63v17.44ZM664.26,180.14h-11.63v-17.44h11.63v17.44ZM664.26,203.39h-11.63v-17.44h11.63v17.44ZM664.26,226.65h-11.63v-17.44h11.63v17.44ZM664.26,249.91h-11.63v-17.44h11.63v17.44ZM664.26,273.16h-11.63v-17.44h11.63v17.44ZM687.51,40.6h-11.63v-17.44h11.63v17.44ZM687.51,63.86h-11.63v-17.44h11.63v17.44ZM687.51,87.11h-11.63v-17.44h11.63v17.44ZM687.51,110.37h-11.63v-17.44h11.63v17.44ZM687.51,133.63h-11.63v-17.44h11.63v17.44ZM687.51,156.88h-11.63v-17.44h11.63v17.44ZM687.51,180.14h-11.63v-17.44h11.63v17.44ZM687.51,203.39h-11.63v-17.44h11.63v17.44ZM687.51,226.65h-11.63v-17.44h11.63v17.44ZM687.51,249.91h-11.63v-17.44h11.63v17.44ZM687.51,273.16h-11.63v-17.44h11.63v17.44Z"/>
    <rect x="536.34" y="116.18" width="11.63" height="17.44"/>
    <rect x="536.34" y="139.44" width="11.63" height="17.44"/>
    <rect x="536.34" y="162.7" width="11.63" height="17.44"/>
    <rect x="559.6" y="116.18" width="11.63" height="17.44"/>
    <rect x="559.6" y="139.44" width="11.63" height="17.44"/>
    <rect x="559.6" y="162.7" width="11.63" height="17.44"/>
    <rect x="582.86" y="116.18" width="11.63" height="17.44"/>
    <rect x="582.86" y="139.44" width="11.63" height="17.44"/>
    <rect x="582.86" y="162.7" width="11.63" height="17.44"/>
    <rect x="606.11" y="116.18" width="11.63" height="17.44"/>
    <rect x="606.11" y="139.44" width="11.63" height="17.44"/>
    <rect x="606.11" y="162.7" width="11.63" height="17.44"/>
    <rect x="699.14" y="116.18" width="11.63" height="17.44"/>
    <rect x="699.14" y="139.44" width="11.63" height="17.44"/>
    <rect x="699.14" y="162.7" width="11.63" height="17.44"/>
    <rect x="722.4" y="116.18" width="11.63" height="17.44"/>
    <rect x="722.4" y="139.44" width="11.63" height="17.44"/>
    <rect x="722.4" y="162.7" width="11.63" height="17.44"/>
    <rect x="745.65" y="116.18" width="11.63" height="17.44"/>
    <rect x="745.65" y="139.44" width="11.63" height="17.44"/>
    <rect x="745.65" y="162.7" width="11.63" height="17.44"/>
    <rect x="768.91" y="116.18" width="11.63" height="17.44"/>
    <rect x="768.91" y="139.44" width="11.63" height="17.44"/>
    <rect x="768.91" y="162.7" width="11.63" height="17.44"/>
  </g>
</svg>