<?xml version="1.0" encoding="UTF-8"?>
<svg id="Layer_1" xmlns="http://www.w3.org/2000/svg" version="1.1" viewBox="0 0 1310.19 451.87">
  <!-- Generator: Adobe Illustrator 30.5.1, SVG Export Plug-In . SVG Version: 2.1.4 Build 3)  -->
  <polygon points="285.39 118.91 332.96 118.91 380.52 118.91 380.52 95.13 332.96 95.13 285.39 95.13 285.39 118.91"/>
  <polygon points="142.7 166.48 332.96 166.48 380.52 166.48 380.52 142.7 332.96 142.7 142.7 142.7 142.7 166.48"/>
  <polygon points="285.39 380.52 285.39 404.3 332.96 404.3 380.52 404.3 380.52 380.52 332.96 380.52 285.39 380.52"/>
  <rect y="380.52" width="47.57" height="23.78"/>
  <rect y="332.96" width="47.57" height="23.78"/>
  <rect y="190.26" width="47.57" height="23.78"/>
  <rect y="95.13" width="47.57" height="23.78"/>
  <rect y="285.39" width="190.26" height="23.78"/>
  <rect y="142.7" width="47.57" height="23.78"/>
  <rect y="47.57" width="47.57" height="23.78"/>
  <rect y="237.83" width="47.57" height="23.78"/>
  <rect x="475.65" y="332.96" width="47.56" height="23.78"/>
  <rect x="475.65" y="142.7" width="47.56" height="23.78"/>
  <rect x="475.65" y="285.39" width="47.56" height="23.78"/>
  <rect x="475.65" y="380.52" width="47.56" height="23.78"/>
  <polygon points="618.34 47.57 618.34 71.35 665.91 71.35 665.91 71.35 977.23 71.35 977.23 71.35 1024.8 71.35 1024.8 47.57 977.23 47.57 977.23 47.59 665.91 47.59 665.91 47.57 618.34 47.57"/>
  <polygon points="618.34 118.91 665.91 118.91 665.91 118.91 977.23 118.91 977.23 118.91 1024.8 118.91 1024.8 95.13 1001.26 95.13 1001.26 95.13 664.87 95.13 664.87 95.13 618.34 95.13 618.34 118.91"/>
  <polygon points="380.52 237.83 332.96 237.83 285.39 237.83 285.39 261.61 332.96 261.61 380.52 261.61 380.52 237.83"/>
  <polygon points="380.52 285.39 332.96 285.39 285.39 285.39 285.39 309.17 332.96 309.17 380.52 309.17 380.52 285.39"/>
  <polygon points="380.52 332.96 332.96 332.96 285.39 332.96 285.39 356.74 332.96 356.74 380.52 356.74 380.52 332.96"/>
  <polygon points="380.52 71.35 380.52 47.57 332.96 47.57 285.39 47.57 285.39 71.35 332.96 71.35 380.52 71.35"/>
  <polygon points="380.52 190.26 332.96 190.26 285.39 190.26 285.39 214.04 332.96 214.04 380.52 214.04 380.52 190.26"/>
  <polygon points="618.34 166.48 665.91 166.48 665.91 166.48 760.98 166.48 760.98 142.7 664.87 142.7 664.87 142.7 618.34 142.7 618.34 166.48"/>
  <polygon points="618.34 214.04 665.91 214.04 665.91 214.04 760.98 214.04 760.98 190.26 664.87 190.26 664.87 190.26 618.34 190.26 618.34 214.04"/>
  <rect x="618.34" y="285.39" width="47.57" height="23.78"/>
  <rect x="618.34" y="237.83" width="47.57" height="23.78"/>
  <polygon points="618.34 404.3 665.91 404.3 665.91 404.3 760.98 404.3 760.98 380.52 664.87 380.52 664.87 380.52 618.34 380.52 618.34 404.3"/>
  <polygon points="618.34 356.74 665.91 356.74 665.91 356.74 760.98 356.74 760.98 332.96 664.87 332.96 664.87 332.96 618.34 332.96 618.34 356.74"/>
  <rect x="1119.93" y="332.96" width="190.26" height="23.78"/>
  <rect x="1262.62" y="237.83" width="47.56" height="23.78"/>
  <rect x="1119.93" y="285.39" width="190.26" height="23.78"/>
  <rect x="1262.62" y="190.26" width="47.56" height="23.78"/>
  <rect x="1119.93" y="142.7" width="47.57" height="23.78"/>
  <rect x="1262.62" y="47.57" width="47.56" height="23.78"/>
  <rect x="1262.62" y="95.13" width="47.56" height="23.78"/>
  <rect x="1262.62" y="142.7" width="47.56" height="23.78"/>
  <polygon points="1001.26 0 1001.26 0 664.87 0 664.87 0 332.96 0 0 0 0 23.78 332.96 23.78 665.91 23.78 665.91 23.78 977.23 23.78 977.23 23.78 1310.19 23.78 1310.19 0 1001.26 0"/>
  <polygon points="1024.8 237.83 1001.26 237.83 1001.26 237.83 953.21 237.83 953.21 261.61 977.23 261.61 977.23 261.61 1024.8 261.61 1024.8 237.83"/>
  <rect x="1119.93" y="380.52" width="190.26" height="23.78"/>
  <polygon points="1024.8 142.7 1001.26 142.7 1001.26 142.7 857.09 142.7 857.09 166.48 977.23 166.48 977.23 166.48 1024.8 166.48 1024.8 142.7"/>
  <polygon points="1024.8 190.26 1001.26 190.26 1001.26 190.26 857.09 190.26 857.09 214.04 977.23 214.04 977.23 214.04 1024.8 214.04 1024.8 190.26"/>
  <polygon points="1024.8 285.39 1001.26 285.39 1001.26 285.39 953.21 285.39 953.21 309.17 977.23 309.17 977.23 309.17 1024.8 309.17 1024.8 285.39"/>
  <polygon points="1024.8 332.96 1001.26 332.96 1001.26 332.96 857.09 332.96 857.09 356.74 977.23 356.74 977.23 356.74 1024.8 356.74 1024.8 332.96"/>
  <polygon points="1024.8 404.3 1024.8 380.52 1001.26 380.52 1001.26 380.52 857.09 380.52 857.09 404.3 977.23 404.3 977.23 404.3 1024.8 404.3"/>
  <polygon points="1001.26 428.08 664.87 428.08 664.87 428.09 332.96 428.09 0 428.09 0 451.87 332.96 451.87 665.91 451.87 665.91 451.87 977.23 451.87 977.23 451.87 1310.19 451.87 1310.19 428.09 1001.26 428.09 1001.26 428.08"/>
</svg>