<?xml version="1.0" encoding="UTF-8"?>
<svg id="Layer_1" xmlns="http://www.w3.org/2000/svg" version="1.1" viewBox="0 0 1052.33 296.52">
  <!-- Generator: Adobe Illustrator 30.5.1, SVG Export Plug-In . SVG Version: 2.1.4 Build 3)  -->
  <g>
    <path d="M5.81,63.96H0v-17.44h5.81v17.44ZM5.81,87.21H0v-17.44h5.81v17.44ZM5.81,110.47H0v-17.44h5.81v17.44ZM5.81,133.72H0v-17.44h5.81v17.44ZM5.81,156.98H0v-17.44h5.81v17.44ZM5.81,180.24H0v-17.44h5.81v17.44ZM5.81,250.01H0v-17.44h5.81v17.44ZM5.81,273.26H0v-17.44h5.81v17.44ZM5.81,296.52H0v-17.44h5.81v17.44ZM29.07,63.96h-5.81v-17.44h5.81v17.44ZM29.07,87.21h-5.81v-17.44h5.81v17.44ZM29.07,110.47h-5.81v-17.44h5.81v17.44ZM29.07,133.72h-5.81v-17.44h5.81v17.44ZM29.07,156.98h-5.81v-17.44h5.81v17.44ZM29.07,180.24h-5.81v-17.44h5.81v17.44ZM29.07,250.01h-5.81v-17.44h5.81v17.44ZM29.07,273.26h-5.81v-17.44h5.81v17.44ZM29.07,296.52h-5.81v-17.44h5.81v17.44ZM52.33,17.44h-5.81V0h5.81v17.44ZM52.33,40.7h-5.81v-17.44h5.81v17.44ZM52.33,63.96h-5.81v-17.44h5.81v17.44ZM52.33,87.21h-5.81v-17.44h5.81v17.44ZM52.33,110.47h-5.81v-17.44h5.81v17.44ZM52.33,133.72h-5.81v-17.44h5.81v17.44ZM52.33,156.98h-5.81v-17.44h5.81v17.44ZM52.33,180.24h-5.81v-17.44h5.81v17.44ZM52.33,250.01h-5.81v-17.44h5.81v17.44ZM52.33,273.26h-5.81v-17.44h5.81v17.44ZM52.33,296.52h-5.81v-17.44h5.81v17.44ZM75.58,17.44h-5.81V0h5.81v17.44ZM75.58,40.7h-5.81v-17.44h5.81v17.44ZM75.58,63.96h-5.81v-17.44h5.81v17.44ZM75.58,133.72h-5.81v-17.44h5.81v17.44ZM75.58,156.98h-5.81v-17.44h5.81v17.44ZM75.58,180.24h-5.81v-17.44h5.81v17.44ZM75.58,250.01h-5.81v-17.44h5.81v17.44ZM75.58,273.26h-5.81v-17.44h5.81v17.44ZM75.58,296.52h-5.81v-17.44h5.81v17.44ZM98.84,17.44h-5.81V0h5.81v17.44ZM98.84,40.7h-5.81v-17.44h5.81v17.44ZM98.84,63.96h-5.81v-17.44h5.81v17.44ZM98.84,133.72h-5.81v-17.44h5.81v17.44ZM98.84,156.98h-5.81v-17.44h5.81v17.44ZM98.84,180.24h-5.81v-17.44h5.81v17.44ZM98.84,250.01h-5.81v-17.44h5.81v17.44ZM98.84,273.26h-5.81v-17.44h5.81v17.44ZM98.84,296.52h-5.81v-17.44h5.81v17.44ZM122.1,17.44h-5.81V0h5.81v17.44ZM122.1,40.7h-5.81v-17.44h5.81v17.44ZM122.1,63.96h-5.81v-17.44h5.81v17.44ZM122.1,133.72h-5.81v-17.44h5.81v17.44ZM122.1,156.98h-5.81v-17.44h5.81v17.44ZM122.1,180.24h-5.81v-17.44h5.81v17.44ZM122.1,250.01h-5.81v-17.44h5.81v17.44ZM122.1,273.26h-5.81v-17.44h5.81v17.44ZM122.1,296.52h-5.81v-17.44h5.81v17.44ZM145.35,17.44h-5.81V0h5.81v17.44ZM145.35,40.7h-5.81v-17.44h5.81v17.44ZM145.35,63.96h-5.81v-17.44h5.81v17.44ZM145.35,133.72h-5.81v-17.44h5.81v17.44ZM145.35,156.98h-5.81v-17.44h5.81v17.44ZM145.35,180.24h-5.81v-17.44h5.81v17.44ZM145.35,250.01h-5.81v-17.44h5.81v17.44ZM145.35,273.26h-5.81v-17.44h5.81v17.44ZM145.35,296.52h-5.81v-17.44h5.81v17.44ZM168.61,17.44h-5.81V0h5.81v17.44ZM168.61,40.7h-5.81v-17.44h5.81v17.44ZM168.61,63.96h-5.81v-17.44h5.81v17.44ZM168.61,133.72h-5.81v-17.44h5.81v17.44ZM168.61,156.98h-5.81v-17.44h5.81v17.44ZM168.61,180.24h-5.81v-17.44h5.81v17.44ZM168.61,203.49h-5.81v-17.44h5.81v17.44ZM168.61,226.75h-5.81v-17.44h5.81v17.44ZM168.61,250.01h-5.81v-17.44h5.81v17.44ZM168.61,273.26h-5.81v-17.44h5.81v17.44ZM168.61,296.52h-5.81v-17.44h5.81v17.44ZM191.87,17.44h-5.81V0h5.81v17.44ZM191.87,40.7h-5.81v-17.44h5.81v17.44ZM191.87,63.96h-5.81v-17.44h5.81v17.44ZM191.87,133.72h-5.81v-17.44h5.81v17.44ZM191.87,156.98h-5.81v-17.44h5.81v17.44ZM191.87,180.24h-5.81v-17.44h5.81v17.44ZM191.87,203.49h-5.81v-17.44h5.81v17.44ZM191.87,226.75h-5.81v-17.44h5.81v17.44ZM191.87,250.01h-5.81v-17.44h5.81v17.44ZM215.12,17.44h-5.81V0h5.81v17.44ZM215.12,40.7h-5.81v-17.44h5.81v17.44ZM215.12,63.96h-5.81v-17.44h5.81v17.44ZM215.12,133.72h-5.81v-17.44h5.81v17.44ZM215.12,156.98h-5.81v-17.44h5.81v17.44ZM215.12,180.24h-5.81v-17.44h5.81v17.44ZM215.12,203.49h-5.81v-17.44h5.81v17.44ZM215.12,226.75h-5.81v-17.44h5.81v17.44ZM215.12,250.01h-5.81v-17.44h5.81v17.44Z"/>
    <path d="M261.63,110.47h-5.81v-17.44h5.81v17.44ZM261.63,133.72h-5.81v-17.44h5.81v17.44ZM261.63,156.98h-5.81v-17.44h5.81v17.44ZM261.63,180.24h-5.81v-17.44h5.81v17.44ZM261.63,203.49h-5.81v-17.44h5.81v17.44ZM261.63,226.75h-5.81v-17.44h5.81v17.44ZM261.63,250.01h-5.81v-17.44h5.81v17.44ZM261.63,273.26h-5.81v-17.44h5.81v17.44ZM261.63,296.52h-5.81v-17.44h5.81v17.44ZM284.89,110.47h-5.81v-17.44h5.81v17.44ZM284.89,133.72h-5.81v-17.44h5.81v17.44ZM284.89,156.98h-5.81v-17.44h5.81v17.44ZM284.89,180.24h-5.81v-17.44h5.81v17.44ZM284.89,203.49h-5.81v-17.44h5.81v17.44ZM284.89,226.75h-5.81v-17.44h5.81v17.44ZM284.89,250.01h-5.81v-17.44h5.81v17.44ZM284.89,273.26h-5.81v-17.44h5.81v17.44ZM284.89,296.52h-5.81v-17.44h5.81v17.44ZM308.15,63.96h-5.81v-17.44h5.81v17.44ZM308.15,87.21h-5.81v-17.44h5.81v17.44ZM308.15,110.47h-5.81v-17.44h5.81v17.44ZM308.15,133.72h-5.81v-17.44h5.81v17.44ZM308.15,156.98h-5.81v-17.44h5.81v17.44ZM308.15,180.24h-5.81v-17.44h5.81v17.44ZM308.15,203.49h-5.81v-17.44h5.81v17.44ZM308.15,226.75h-5.81v-17.44h5.81v17.44ZM308.15,250.01h-5.81v-17.44h5.81v17.44ZM308.15,273.26h-5.81v-17.44h5.81v17.44ZM308.15,296.52h-5.81v-17.44h5.81v17.44ZM331.4,63.96h-5.81v-17.44h5.81v17.44ZM331.4,87.21h-5.81v-17.44h5.81v17.44ZM331.4,110.47h-5.81v-17.44h5.81v17.44ZM331.4,180.24h-5.81v-17.44h5.81v17.44ZM331.4,203.49h-5.81v-17.44h5.81v17.44ZM331.4,226.75h-5.81v-17.44h5.81v17.44ZM354.66,17.44h-5.81V0h5.81v17.44ZM354.66,40.7h-5.81v-17.44h5.81v17.44ZM354.66,63.96h-5.81v-17.44h5.81v17.44ZM354.66,87.21h-5.81v-17.44h5.81v17.44ZM354.66,110.47h-5.81v-17.44h5.81v17.44ZM354.66,180.24h-5.81v-17.44h5.81v17.44ZM354.66,203.49h-5.81v-17.44h5.81v17.44ZM354.66,226.75h-5.81v-17.44h5.81v17.44ZM377.92,17.44h-5.81V0h5.81v17.44ZM377.92,40.7h-5.81v-17.44h5.81v17.44ZM377.92,63.96h-5.81v-17.44h5.81v17.44ZM377.92,180.24h-5.81v-17.44h5.81v17.44ZM377.92,203.49h-5.81v-17.44h5.81v17.44ZM377.92,226.75h-5.81v-17.44h5.81v17.44ZM401.17,17.44h-5.81V0h5.81v17.44ZM401.17,40.7h-5.81v-17.44h5.81v17.44ZM401.17,63.96h-5.81v-17.44h5.81v17.44ZM401.17,180.24h-5.81v-17.44h5.81v17.44ZM401.17,203.49h-5.81v-17.44h5.81v17.44ZM401.17,226.75h-5.81v-17.44h5.81v17.44ZM424.43,17.44h-5.81V0h5.81v17.44ZM424.43,40.7h-5.81v-17.44h5.81v17.44ZM424.43,63.96h-5.81v-17.44h5.81v17.44ZM424.43,180.24h-5.81v-17.44h5.81v17.44ZM424.43,203.49h-5.81v-17.44h5.81v17.44ZM424.43,226.75h-5.81v-17.44h5.81v17.44ZM447.69,17.44h-5.81V0h5.81v17.44ZM447.69,40.7h-5.81v-17.44h5.81v17.44ZM447.69,63.96h-5.81v-17.44h5.81v17.44ZM447.69,87.21h-5.81v-17.44h5.81v17.44ZM447.69,110.47h-5.81v-17.44h5.81v17.44ZM447.69,133.72h-5.81v-17.44h5.81v17.44ZM447.69,156.98h-5.81v-17.44h5.81v17.44ZM447.69,180.24h-5.81v-17.44h5.81v17.44ZM447.69,203.49h-5.81v-17.44h5.81v17.44ZM447.69,226.75h-5.81v-17.44h5.81v17.44ZM447.69,250.01h-5.81v-17.44h5.81v17.44ZM447.69,273.26h-5.81v-17.44h5.81v17.44ZM447.69,296.52h-5.81v-17.44h5.81v17.44ZM470.94,17.44h-5.81V0h5.81v17.44ZM470.94,40.7h-5.81v-17.44h5.81v17.44ZM470.94,63.96h-5.81v-17.44h5.81v17.44ZM470.94,87.21h-5.81v-17.44h5.81v17.44ZM470.94,110.47h-5.81v-17.44h5.81v17.44ZM470.94,133.72h-5.81v-17.44h5.81v17.44ZM470.94,156.98h-5.81v-17.44h5.81v17.44ZM470.94,180.24h-5.81v-17.44h5.81v17.44ZM470.94,203.49h-5.81v-17.44h5.81v17.44ZM470.94,226.75h-5.81v-17.44h5.81v17.44ZM470.94,250.01h-5.81v-17.44h5.81v17.44ZM470.94,273.26h-5.81v-17.44h5.81v17.44ZM470.94,296.52h-5.81v-17.44h5.81v17.44ZM494.2,17.44h-5.81V0h5.81v17.44ZM494.2,40.7h-5.81v-17.44h5.81v17.44ZM494.2,63.96h-5.81v-17.44h5.81v17.44ZM494.2,87.21h-5.81v-17.44h5.81v17.44ZM494.2,110.47h-5.81v-17.44h5.81v17.44ZM494.2,133.72h-5.81v-17.44h5.81v17.44ZM494.2,156.98h-5.81v-17.44h5.81v17.44ZM494.2,180.24h-5.81v-17.44h5.81v17.44ZM494.2,203.49h-5.81v-17.44h5.81v17.44ZM494.2,226.75h-5.81v-17.44h5.81v17.44ZM494.2,250.01h-5.81v-17.44h5.81v17.44ZM494.2,273.26h-5.81v-17.44h5.81v17.44ZM494.2,296.52h-5.81v-17.44h5.81v17.44Z"/>
    <path d="M813.95,0h5.81v17.44h-5.81V0ZM813.95,23.26h5.81v17.44h-5.81v-17.44ZM813.95,46.51h5.81v17.44h-5.81v-17.44ZM813.95,69.77h5.81v17.44h-5.81v-17.44ZM813.95,93.03h5.81v17.44h-5.81v-17.44ZM813.95,116.28h5.81v17.44h-5.81v-17.44ZM813.95,139.54h5.81v17.44h-5.81v-17.44ZM813.95,162.8h5.81v17.44h-5.81v-17.44ZM813.95,186.05h5.81v17.44h-5.81v-17.44ZM813.95,209.31h5.81v17.44h-5.81v-17.44ZM813.95,232.57h5.81v17.44h-5.81v-17.44ZM813.95,255.82h5.81v17.44h-5.81v-17.44ZM813.95,279.08h5.81v17.44h-5.81v-17.44ZM837.2,0h5.81v17.44h-5.81V0ZM837.2,23.26h5.81v17.44h-5.81v-17.44ZM837.2,46.51h5.81v17.44h-5.81v-17.44ZM837.2,69.77h5.81v17.44h-5.81v-17.44ZM837.2,93.03h5.81v17.44h-5.81v-17.44ZM837.2,116.28h5.81v17.44h-5.81v-17.44ZM837.2,139.54h5.81v17.44h-5.81v-17.44ZM837.2,162.8h5.81v17.44h-5.81v-17.44ZM837.2,186.05h5.81v17.44h-5.81v-17.44ZM837.2,209.31h5.81v17.44h-5.81v-17.44ZM837.2,232.57h5.81v17.44h-5.81v-17.44ZM837.2,255.82h5.81v17.44h-5.81v-17.44ZM837.2,279.08h5.81v17.44h-5.81v-17.44ZM860.46,0h5.81v17.44h-5.81V0ZM860.46,23.26h5.81v17.44h-5.81v-17.44ZM860.46,46.51h5.81v17.44h-5.81v-17.44ZM860.46,69.77h5.81v17.44h-5.81v-17.44ZM860.46,93.03h5.81v17.44h-5.81v-17.44ZM860.46,116.28h5.81v17.44h-5.81v-17.44ZM860.46,139.54h5.81v17.44h-5.81v-17.44ZM860.46,162.8h5.81v17.44h-5.81v-17.44ZM860.46,186.05h5.81v17.44h-5.81v-17.44ZM860.46,209.31h5.81v17.44h-5.81v-17.44ZM860.46,232.57h5.81v17.44h-5.81v-17.44ZM860.46,255.82h5.81v17.44h-5.81v-17.44ZM860.46,279.08h5.81v17.44h-5.81v-17.44ZM883.71,0h5.81v17.44h-5.81V0ZM883.71,23.26h5.81v17.44h-5.81v-17.44ZM883.71,46.51h5.81v17.44h-5.81v-17.44ZM883.71,139.54h5.81v17.44h-5.81v-17.44ZM883.71,162.8h5.81v17.44h-5.81v-17.44ZM883.71,186.05h5.81v17.44h-5.81v-17.44ZM906.97,0h5.81v17.44h-5.81V0ZM906.97,23.26h5.81v17.44h-5.81v-17.44ZM906.97,46.51h5.81v17.44h-5.81v-17.44ZM906.97,139.54h5.81v17.44h-5.81v-17.44ZM906.97,162.8h5.81v17.44h-5.81v-17.44ZM906.97,186.05h5.81v17.44h-5.81v-17.44ZM930.23,0h5.81v17.44h-5.81V0ZM930.23,23.26h5.81v17.44h-5.81v-17.44ZM930.23,46.51h5.81v17.44h-5.81v-17.44ZM930.23,139.54h5.81v17.44h-5.81v-17.44ZM930.23,162.8h5.81v17.44h-5.81v-17.44ZM930.23,186.05h5.81v17.44h-5.81v-17.44ZM953.48,0h5.81v17.44h-5.81V0ZM953.48,23.26h5.81v17.44h-5.81v-17.44ZM953.48,46.51h5.81v17.44h-5.81v-17.44ZM953.48,139.54h5.81v17.44h-5.81v-17.44ZM953.48,162.8h5.81v17.44h-5.81v-17.44ZM953.48,186.05h5.81v17.44h-5.81v-17.44ZM976.74,0h5.81v17.44h-5.81V0ZM976.74,23.26h5.81v17.44h-5.81v-17.44ZM976.74,46.51h5.81v17.44h-5.81v-17.44ZM976.74,139.54h5.81v17.44h-5.81v-17.44ZM976.74,162.8h5.81v17.44h-5.81v-17.44ZM976.74,186.05h5.81v17.44h-5.81v-17.44ZM1000,0h5.81v17.44h-5.81V0ZM1000,23.26h5.81v17.44h-5.81v-17.44ZM1000,46.51h5.81v17.44h-5.81v-17.44ZM1000,69.77h5.81v17.44h-5.81v-17.44ZM1000,93.03h5.81v17.44h-5.81v-17.44ZM1000,116.28h5.81v17.44h-5.81v-17.44ZM1000,139.54h5.81v17.44h-5.81v-17.44ZM1000,162.8h5.81v17.44h-5.81v-17.44ZM1000,186.05h5.81v17.44h-5.81v-17.44ZM1023.25,46.51h5.81v17.44h-5.81v-17.44ZM1023.25,69.77h5.81v17.44h-5.81v-17.44ZM1023.25,93.03h5.81v17.44h-5.81v-17.44ZM1023.25,116.28h5.81v17.44h-5.81v-17.44ZM1023.25,139.54h5.81v17.44h-5.81v-17.44ZM1046.51,46.51h5.81v17.44h-5.81v-17.44ZM1046.51,69.77h5.81v17.44h-5.81v-17.44ZM1046.51,93.03h5.81v17.44h-5.81v-17.44ZM1046.51,116.28h5.81v17.44h-5.81v-17.44ZM1046.51,139.54h5.81v17.44h-5.81v-17.44Z"/>
  </g>
  <g>
    <path d="M630.66,40.71h-5.81v-17.44h5.81v17.44ZM630.66,63.96h-5.81v-17.44h5.81v17.44ZM630.66,87.22h-5.81v-17.44h5.81v17.44ZM630.66,110.48h-5.81v-17.44h5.81v17.44ZM630.66,133.73h-5.81v-17.44h5.81v17.44ZM630.66,156.99h-5.81v-17.44h5.81v17.44ZM630.66,180.25h-5.81v-17.44h5.81v17.44ZM630.66,203.5h-5.81v-17.44h5.81v17.44ZM630.66,226.76h-5.81v-17.44h5.81v17.44ZM630.66,250.02h-5.81v-17.44h5.81v17.44ZM630.66,273.27h-5.81v-17.44h5.81v17.44ZM653.92,40.71h-5.81v-17.44h5.81v17.44ZM653.92,63.96h-5.81v-17.44h5.81v17.44ZM653.92,87.22h-5.81v-17.44h5.81v17.44ZM653.92,110.48h-5.81v-17.44h5.81v17.44ZM653.92,133.73h-5.81v-17.44h5.81v17.44ZM653.92,156.99h-5.81v-17.44h5.81v17.44ZM653.92,180.25h-5.81v-17.44h5.81v17.44ZM653.92,203.5h-5.81v-17.44h5.81v17.44ZM653.92,226.76h-5.81v-17.44h5.81v17.44ZM653.92,250.02h-5.81v-17.44h5.81v17.44ZM653.92,273.27h-5.81v-17.44h5.81v17.44ZM677.18,40.71h-5.81v-17.44h5.81v17.44ZM677.18,63.96h-5.81v-17.44h5.81v17.44ZM677.18,87.22h-5.81v-17.44h5.81v17.44ZM677.18,110.48h-5.81v-17.44h5.81v17.44ZM677.18,133.73h-5.81v-17.44h5.81v17.44ZM677.18,156.99h-5.81v-17.44h5.81v17.44ZM677.18,180.25h-5.81v-17.44h5.81v17.44ZM677.18,203.5h-5.81v-17.44h5.81v17.44ZM677.18,226.76h-5.81v-17.44h5.81v17.44ZM677.18,250.02h-5.81v-17.44h5.81v17.44ZM677.18,273.27h-5.81v-17.44h5.81v17.44Z"/>
    <rect x="531.82" y="116.29" width="5.81" height="17.44"/>
    <rect x="531.82" y="139.55" width="5.81" height="17.44"/>
    <rect x="531.82" y="162.8" width="5.81" height="17.44"/>
    <rect x="555.08" y="116.29" width="5.81" height="17.44"/>
    <rect x="555.08" y="139.55" width="5.81" height="17.44"/>
    <rect x="555.08" y="162.8" width="5.81" height="17.44"/>
    <rect x="578.34" y="116.29" width="5.81" height="17.44"/>
    <rect x="578.34" y="139.55" width="5.81" height="17.44"/>
    <rect x="578.34" y="162.8" width="5.81" height="17.44"/>
    <rect x="601.59" y="116.29" width="5.81" height="17.44"/>
    <rect x="601.59" y="139.55" width="5.81" height="17.44"/>
    <rect x="601.59" y="162.8" width="5.81" height="17.44"/>
    <rect x="694.62" y="116.29" width="5.81" height="17.44"/>
    <rect x="694.62" y="139.55" width="5.81" height="17.44"/>
    <rect x="694.62" y="162.8" width="5.81" height="17.44"/>
    <rect x="717.88" y="116.29" width="5.81" height="17.44"/>
    <rect x="717.88" y="139.55" width="5.81" height="17.44"/>
    <rect x="717.88" y="162.8" width="5.81" height="17.44"/>
    <rect x="741.13" y="116.29" width="5.81" height="17.44"/>
    <rect x="741.13" y="139.55" width="5.81" height="17.44"/>
    <rect x="741.13" y="162.8" width="5.81" height="17.44"/>
    <rect x="764.39" y="116.29" width="5.81" height="17.44"/>
    <rect x="764.39" y="139.55" width="5.81" height="17.44"/>
    <rect x="764.39" y="162.8" width="5.81" height="17.44"/>
  </g>
</svg>