<?xml version="1.0" encoding="UTF-8"?>
<svg id="Layer_1" xmlns="http://www.w3.org/2000/svg" version="1.1" viewBox="0 0 215.62 42.76">
  <!-- Generator: Adobe Illustrator 30.6.0, SVG Export Plug-In . SVG Version: 2.1.4 Build 109)  -->
  <g>
    <path d="M93.73,29.26h2.12c.41,6.37,5.54,11.55,13.55,11.55,6.25,0,12.08-3.36,12.08-9.72,0-4.24-2.59-6.6-8.48-8.25l-8.54-2.35c-5.48-1.53-9.37-4.53-9.37-9.78,0-5.95,5.65-10.72,13.55-10.72s13.55,5.13,13.97,11.78h-2.12c-.47-5.54-5.36-9.84-11.83-9.84-6.89,0-11.42,3.77-11.42,8.77,0,4.24,3,6.36,8.48,7.9l8.77,2.48c5.54,1.59,9.18,4.59,9.18,10.01,0,7.31-6.95,11.66-14.25,11.66-9.48,0-15.25-6.01-15.67-13.49h0Z"/>
    <path d="M140.32.76h2.18l15.08,41.23h-2.35l-4.89-13.67h-17.67l-4.83,13.67h-2.17L140.33.76h0ZM149.62,26.44l-6.53-18.2c-.54-1.53-1.18-3.24-1.71-4.83-.54,1.47-1.12,3.36-1.65,4.83l-6.42,18.2h16.32,0Z"/>
    <path d="M167.85,22.11h-12.9v-1.94h12.9V6.86h2.12v13.32h12.9v1.94h-12.9v13.55h-2.12s0-13.55,0-13.55Z"/>
    <path d="M189.18.76h12.9c8.54,0,13.55,4.18,13.55,11.19s-4.95,11.25-13.55,11.25h-10.78v18.79h-2.12V.76h0ZM202.08,21.26c7.14,0,11.37-3.29,11.37-9.31s-4.24-9.25-11.37-9.25h-10.78v18.56h10.78Z"/>
  </g>
  <path d="M25.8,1.87v38.87h-1.95V4.37l-9.5,26.37h-2.27L2.45,4.37v36.37H.5V1.87h3.1l7.89,21.55c.6,1.66,1.22,3.27,1.77,4.95.55-1.66,1.17-3.33,1.77-4.95L22.81,1.87h2.99M26.3,1.37h-3.84l-.12.33-7.78,21.55-.13.34c-.39,1.06-.79,2.14-1.17,3.22-.25-.7-.5-1.4-.75-2.08-.18-.49-.36-.99-.54-1.49L4.07,1.7l-.12-.33H0v39.87h2.95V7.2l8.67,23.71.12.33h2.97l.12-.33L23.35,7.23v34h2.95V1.37h0Z"/>
  <path d="M56.77,1.87v1.95h-12.16v34.98h12.16v1.95h-26.31v-1.97h0s12.16,0,12.16,0V3.8h-12.16v-1.93h26.31M57.27,1.37h-27.31v2.93h12.16v33.98h-12.16v2.98h27.31v-2.95h-12.16V4.32h12.16V1.37h0Z"/>
  <path d="M89.9,1.87v1.82h-13.66v37.02h-2.01V3.69h.02-13.66v-1.82h29.31M90.4,1.37h-30.31v2.82h13.65v37.02h3.01V4.19h13.66V1.37h0Z"/>
</svg>