<?xml version="1.0" encoding="UTF-8"?>
<svg id="Layer_1" xmlns="http://www.w3.org/2000/svg" version="1.1" viewBox="0 0 77.09 69.48">
  <!-- Generator: Adobe Illustrator 30.6.0, SVG Export Plug-In . SVG Version: 2.1.4 Build 109)  -->
  <defs>
    <style>
      .st0 {
        isolation: isolate;
      }
    </style>
  </defs>
  <path d="M0,58.71l3.25-.35c.17,1.75.57,3.12,1.18,4.09.61.98,1.49,1.76,2.64,2.35,1.15.6,2.43.89,3.85.89,2.05,0,3.65-.51,4.78-1.5s1.71-2.31,1.71-3.91c0-.94-.2-1.75-.62-2.45s-1.04-1.27-1.86-1.72-2.63-1.07-5.39-1.9c-2.45-.73-4.21-1.46-5.26-2.2-1.05-.74-1.85-1.67-2.43-2.81s-.86-2.42-.86-3.85c0-2.58.84-4.68,2.5-6.32,1.66-1.64,3.91-2.45,6.72-2.45,1.95,0,3.63.38,5.09,1.15,1.45.76,2.58,1.86,3.38,3.3s1.23,3.12,1.29,5.06l-3.32.3c-.17-2.07-.79-3.6-1.85-4.6-1.06-.99-2.55-1.49-4.48-1.49s-3.45.44-4.47,1.31-1.55,2.01-1.55,3.39c0,1.29.37,2.28,1.13,2.99s2.45,1.43,5.07,2.15c2.57.71,4.38,1.33,5.42,1.85,1.59.82,2.79,1.88,3.61,3.21.81,1.32,1.22,2.9,1.22,4.73s-.43,3.47-1.28,4.97c-.85,1.49-2.02,2.64-3.48,3.41s-3.24,1.16-5.3,1.16c-3.22,0-5.79-.97-7.71-2.9-1.92-1.95-2.91-4.56-2.98-7.87h.02H0Z"/>
  <path d="M22.22,68.94l10.06-31.8h3.69l10.68,31.8h-3.95l-3.04-9.64h-10.97l-2.83,9.64h-3.65ZM29.7,55.9h8.88l-2.71-8.81c-.84-2.7-1.45-4.9-1.85-6.59-.34,2.04-.82,4.06-1.43,6.08l-2.9,9.33h0Z"/>
  <path d="M57.19,68.94v-31.8h9.83c2.32,0,4.02.2,5.13.6,1.5.55,2.7,1.56,3.6,3.06s1.35,3.32,1.35,5.49c0,2.86-.74,5.2-2.19,7.01s-3.98,2.71-7.57,2.71h-6.68v12.93s-3.45,0-3.45,0ZM60.64,52.26h6.75c2.13,0,3.68-.48,4.66-1.45s1.47-2.42,1.47-4.35c0-1.25-.25-2.34-.73-3.23s-1.07-1.51-1.75-1.85-1.93-.5-3.72-.5h-6.68v11.36h0Z"/>
  <g class="st0">
    <g class="st0">
      <g class="st0">
        <path d="M47.36,53.16v-5.92h-4.82v-2.47h4.82v-5.88h2.06v5.88h4.82v2.47h-4.82v5.92h-2.06Z"/>
      </g>
    </g>
  </g>
  <path d="M0,31.8V0h5.19l6.19,22.52,1.24,4.71c.3-1.17.76-2.87,1.39-5.1L20.26,0h4.65v31.8h-3.32V5.21l-7.6,26.59h-3.1L3.32,4.75v27.06H0Z"/>
  <path d="M38.97,31.8V0h3.45v31.8h-3.45Z"/>
  <path d="M65.01,31.8V3.75h-8.59V0h20.67v3.75h-8.63v28.05h-3.45Z"/>
</svg>