<?xml version="1.0" encoding="UTF-8"?>
<svg id="Layer_1" xmlns="http://www.w3.org/2000/svg" version="1.1" viewBox="0 0 258.21 72.59">
  <!-- Generator: Adobe Illustrator 30.6.0, SVG Export Plug-In . SVG Version: 2.1.4 Build 109)  -->
  <defs>
    <style>
      .st0 {
        isolation: isolate;
      }
    </style>
  </defs>
  <g class="st0">
    <g class="st0">
      <g class="st0">
        <path d="M18.87,0l4.35,46.17L27.88,0h18.49v72.59h-10.93V8.99l-6.87,63.6h-11.23L10.26,9.48v63.11H0V0h18.87Z"/>
        <path d="M63.01,0v72.59h-12.38V0h12.38Z"/>
        <path d="M94.36,0v8.99h-7.85v63.6h-12.49V8.99h-7.94V0h28.28Z"/>
      </g>
    </g>
  </g>
  <path d="M139.26,11.13v11.13h-12.19v-9.97c0-3.39-.48-5.13-3.1-5.13s-3.19,1.64-3.19,5.13v6.58c0,4.06.77,5.52,4.06,8.23l8.81,7.35c3.1,2.81,5.61,5.52,5.61,13.16v13.45c0,9.1-4.06,11.52-9,11.52h-12.97c-4.74,0-9-2.32-9-11.13v-13.55h12.48v12.39c0,3.48.68,5.13,3.19,5.13s3.19-1.65,3.19-5.23v-8.42c0-4.65-.97-6.48-3.77-8.81l-9.19-7.64c-3.29-2.81-5.61-5.61-5.61-13.26v-11.03c0-8.42,4.06-11.03,8.9-11.03h13.45c4.65,0,8.32,2.71,8.32,11.13h.01Z"/>
  <path d="M168.19,0l7.84,72.58h-12.48l-1.65-16.55h-8.9l-1.55,16.55h-10.55L148.25,0h19.94ZM160.93,46.84l-3.58-35.9-3.39,35.9h6.97Z"/>
  <path d="M195.38,47.03h-19.35v-6.87h19.35v-20.13h7.06v20.13h19.45v6.87h-19.45v20.32h-7.06v-20.32Z"/>
  <path d="M239.15,45.78v26.81h-12.68V0h23.32c4.64,0,8.42,2.81,8.42,10.55v24.29c0,8.52-4.16,10.94-8.81,10.94h-10.26,0ZM239.15,7.75v29.9h2.61c3,0,3.87-1.06,3.87-5.42V13.17c0-4.26-.87-5.42-3.87-5.42,0,0-2.61,0-2.61,0Z"/>
</svg>