<?xml version="1.0" encoding="UTF-8"?>
<svg id="Layer_1" xmlns="http://www.w3.org/2000/svg" version="1.1" viewBox="0 0 108 81.43">
  <!-- Generator: Adobe Illustrator 30.6.0, SVG Export Plug-In . SVG Version: 2.1.4 Build 109)  -->
  <defs>
    <style>
      .st0 {
        isolation: isolate;
      }
    </style>
  </defs>
  <g class="st0">
    <g class="st0">
      <path d="M.65,40.75c-.57-.77-.76-1.6-.59-2.51s.73-1.58,1.67-2.01c.99-.43,1.72-.87,2.18-1.31s.8-1.07,1.03-1.89.41-2.09.57-3.8c.12-1.3.25-2.75.39-4.33.22-2.46.43-4.9.64-7.33.17-1.92.33-3.86.48-5.82.11-1.29.1-2.3-.03-3.03-.13-.74-.4-1.34-.81-1.81s-1.04-.93-1.9-1.37c-.81-.45-1.27-1.13-1.39-2.03s.14-1.72.78-2.43c.64-.71,1.56-1.08,2.77-1.08.74,0,1.41.02,2,.03.59,0,1.14.02,1.66.04.37.03.9.05,1.58.07,1.2.04,2.15.27,2.85.72s1.23,1.15,1.6,2.11c1.01,2.78,2.07,5.58,3.17,8.39,1.1,2.81,2.48,6.25,4.13,10.33l.78,1.97c.38.96.81,1.58,1.28,1.88.47.3.94.28,1.4-.06s.87-.95,1.24-1.85c.27-.64.48-1.16.65-1.57.36-.89.73-1.76,1.09-2.63.74-1.79,1.48-3.58,2.21-5.38.73-1.8,1.46-3.61,2.21-5.42.9-2.26,1.63-4.11,2.21-5.54.28-.71.62-1.27,1-1.69s.84-.73,1.36-.92,1.13-.3,1.84-.32c.4-.02.75-.03,1.06-.04s.62-.02.92-.03c.81-.03,1.47-.04,2-.05s1.1,0,1.72.01c1.08.02,1.91.4,2.49,1.15s.79,1.59.63,2.51c-.16.93-.68,1.61-1.56,2.05s-1.46.81-1.85,1.18-.64.8-.75,1.29-.14,1.18-.07,2.05c.22,3.16.42,5.84.6,8.06.18,2.22.44,5.13.76,8.73l.2,2.37c.15,1.69.34,2.95.58,3.76.23.82.57,1.43,1,1.83.43.41,1.11.81,2.03,1.21.98.42,1.55,1.08,1.72,2,.17.91-.04,1.75-.64,2.51s-1.43,1.15-2.49,1.16c-1.36.02-2.63.03-3.82.04-1.19,0-2.33,0-3.42,0h-2.23c-.74,0-1.49-.03-2.25-.05-1.21-.04-2.11-.46-2.69-1.24-.58-.78-.76-1.64-.54-2.57s.78-1.58,1.68-1.94c.85-.33,1.45-.64,1.81-.94.35-.3.58-.73.68-1.29s.1-1.42,0-2.59c-.22-2.73-.46-5.42-.72-8.06-.04-.46-.21-.8-.5-1s-.6-.24-.94-.11c-.34.14-.61.44-.81.91-.24.54-.42.95-.53,1.22s-.29.67-.52,1.2c-.2.47-.46,1.1-.8,1.9-.52,1.23-1.05,2.47-1.58,3.72-.53,1.25-1.05,2.5-1.58,3.76-.43,1.05-.81,1.95-1.12,2.7-.31.75-.69,1.65-1.12,2.69-.42.99-1.06,1.67-1.94,2.03s-1.75.36-2.63-.02c-.87-.38-1.5-1.06-1.88-2.05-.93-2.45-1.8-4.66-2.6-6.65s-1.91-4.73-3.33-8.21c-.2-.5-.36-.89-.47-1.17-.11-.28-.27-.66-.47-1.14-.19-.46-.45-.76-.77-.9-.32-.14-.61-.1-.88.11s-.43.54-.49,1c-.18,1.69-.34,3.39-.48,5.09-.05.58-.1,1.09-.13,1.53-.03.43-.07.94-.11,1.52-.09,1.2-.09,2.07-.01,2.61s.28.96.59,1.24c.31.28.86.56,1.63.83.99.39,1.61,1.06,1.85,2.01.24.95.09,1.83-.47,2.65s-1.4,1.23-2.51,1.24c-.69,0-1.45,0-2.27.02s-1.65,0-2.49,0c-2.3,0-4.05,0-5.23-.03-.98-.02-1.75-.41-2.31-1.18v-.05Z"/>
      <path d="M52.6,40.88c-.6-.72-.84-1.53-.7-2.41.14-.89.65-1.56,1.55-2.03.91-.48,1.57-.93,1.98-1.34.41-.42.7-1.01.86-1.79.17-.78.27-1.96.31-3.54.1-5.61.1-11.81,0-18.6-.02-1.12-.12-1.97-.3-2.57-.18-.59-.51-1.12-.97-1.57s-1.23-1.03-2.29-1.74c-.71-.49-1.11-1.15-1.2-1.99s.17-1.59.77-2.25c.6-.66,1.48-.98,2.62-.98,1.7-.02,3.71-.03,6.01-.03s4.18,0,5.61.03c1.12,0,1.97.34,2.55.99s.83,1.4.75,2.24-.49,1.51-1.2,1.99c-1.06.71-1.83,1.29-2.29,1.74s-.78.98-.96,1.57-.28,1.45-.3,2.57c-.11,6.89-.11,13.09-.01,18.6.04,1.6.14,2.79.31,3.57s.46,1.37.86,1.77c.4.41,1.06.85,1.97,1.33.88.45,1.38,1.12,1.52,2.01.13.89-.1,1.69-.68,2.41-.59.72-1.39,1.1-2.41,1.12-1.07.03-2.33.04-3.77.05-1.44,0-2.87,0-4.3,0-1.19,0-2.44,0-3.75-.04-1.09,0-1.94-.37-2.54-1.1Z"/>
      <path d="M79.21,40.84c-.6-.73-.85-1.54-.75-2.43s.56-1.55,1.36-1.99c1.21-.65,2.08-1.21,2.59-1.68.51-.47.86-1.09,1.04-1.85s.29-1.94.32-3.56c.04-2.56.05-5.42.05-8.58s-.03-6.12-.07-8.88c-.04-1.74-.15-3-.35-3.78s-.58-1.31-1.13-1.59c-.55-.28-1.44-.41-2.67-.41-.93,0-1.68.17-2.23.5-.56.32-1.05.89-1.47,1.71s-.88,2.03-1.36,3.66c-.4,1.34-1.12,2.19-2.17,2.55-1.05.36-2.01.23-2.9-.4s-1.3-1.54-1.24-2.75c.02-.42.05-.85.09-1.32.08-1.03.19-2.12.33-3.28s.29-2.27.45-3.32c.11-.69.32-1.29.65-1.79s.82-.89,1.47-1.18c.65-.28,1.48-.43,2.49-.43h28.77c1.05,0,1.89.14,2.54.42s1.14.68,1.47,1.2c.33.52.56,1.16.68,1.93.21,1.29.39,2.62.53,3.96.16,1.51.26,2.81.29,3.92.03,1.17-.4,2.06-1.27,2.66s-1.82.73-2.85.37-1.73-1.17-2.1-2.45c-.51-1.69-.99-2.96-1.46-3.81-.47-.85-.98-1.42-1.55-1.71s-1.31-.45-2.22-.47c-1.18,0-2.03.13-2.56.41s-.88.8-1.07,1.58-.3,2.03-.33,3.78c-.06,3.1-.1,6.18-.11,9.23,0,3.05,0,5.8.05,8.26.04,1.61.15,2.81.34,3.6.19.78.53,1.4,1.03,1.85.5.45,1.31.94,2.45,1.48.9.43,1.4,1.11,1.53,2.02.12.91-.11,1.75-.71,2.51s-1.4,1.16-2.4,1.18c-1.26.03-2.59.05-3.99.07h-4.61c-1.59,0-3.08-.03-4.47-.07-1.06-.03-1.88-.41-2.49-1.14v.02Z"/>
    </g>
  </g>
  <g class="st0">
    <g class="st0">
      <path d="M8.46,81.12c-1.15-.19-2.18-.44-3.1-.74-.92-.3-1.69-.63-2.31-.98-.7-.4-1.22-.79-1.58-1.17s-.62-.83-.77-1.36-.24-1.23-.25-2.11c-.02-.82-.02-1.68,0-2.57s.05-1.74.1-2.55c.08-1.07.56-1.85,1.44-2.34.88-.49,1.79-.56,2.74-.2.95.36,1.54,1.09,1.79,2.2.34,1.52.81,2.75,1.4,3.67.59.92,1.27,1.59,2.05,2s1.66.61,2.63.61c.82,0,1.54-.14,2.15-.41s1.08-.66,1.42-1.15c.33-.5.5-1.07.5-1.72,0-.76-.21-1.45-.62-2.07-.41-.62-1.06-1.25-1.95-1.86s-2.1-1.3-3.63-2.07c-2.17-1.08-3.96-2.2-5.36-3.35s-2.45-2.43-3.16-3.81-1.06-2.94-1.06-4.65c0-2.1.52-3.93,1.55-5.51,1.03-1.58,2.51-2.8,4.42-3.66s4.16-1.3,6.73-1.3c1.37,0,2.68.11,3.93.33s2.3.52,3.15.89c.7.31,1.27.68,1.7,1.08s.74.87.94,1.39.3,1.12.33,1.81v2.19c0,1-.03,2.03-.06,3.07-.04,1.21-.49,2.08-1.36,2.63s-1.8.65-2.77.29c-.97-.36-1.61-1.11-1.92-2.26-.38-1.45-.78-2.57-1.21-3.36s-.92-1.35-1.47-1.67c-.55-.31-1.21-.47-2-.47s-1.47.14-2.02.41c-.55.27-.96.66-1.24,1.15s-.41,1.06-.41,1.71c0,.76.19,1.46.57,2.09.38.64,1,1.28,1.86,1.92s2.02,1.32,3.48,2.05c2.45,1.22,4.38,2.42,5.8,3.61,1.42,1.19,2.43,2.41,3.03,3.67.6,1.26.9,2.65.9,4.18,0,2.1-.52,3.96-1.56,5.58-1.04,1.61-2.53,2.87-4.46,3.77s-4.2,1.35-6.8,1.35c-1.21,0-2.38-.1-3.53-.29v-.02Z"/>
      <path d="M24.55,79.61c-.54-.7-.73-1.48-.56-2.33s.71-1.52,1.63-2.02c1-.52,1.75-.97,2.26-1.37.51-.39.95-.88,1.32-1.46s.78-1.43,1.24-2.54c.7-1.71,1.52-3.72,2.44-6.03.92-2.3,1.84-4.6,2.75-6.9.81-2.04,1.51-3.8,2.11-5.3.6-1.49,1.3-3.27,2.13-5.32.43-1.06,1.04-1.78,1.85-2.16.81-.38,1.62-.37,2.43.03.81.41,1.44,1.15,1.88,2.22.35.85.61,1.49.79,1.91.17.42.43,1.04.77,1.88,1.74,4.3,3.23,7.95,4.47,10.96s2.43,5.85,3.55,8.51c.55,1.31,1.03,2.29,1.43,2.94s.81,1.14,1.23,1.48c.42.34,1.04.71,1.85,1.12.86.44,1.39,1.1,1.58,1.96s0,1.66-.6,2.37-1.5,1.11-2.74,1.2c-1.67.11-3.4.17-5.19.17-1.67,0-3.36-.06-5.07-.18-1.09-.08-1.89-.45-2.43-1.1s-.73-1.38-.61-2.2c.13-.81.54-1.46,1.24-1.95.58-.38,1.01-.69,1.27-.96.26-.26.42-.54.46-.84s0-.67-.12-1.13c-.11-.43-.24-.82-.38-1.15-.07-.19-.16-.37-.24-.53-.09-.17-.18-.33-.29-.5-.13-.18-.29-.33-.48-.46s-.43-.23-.72-.31c-.29-.08-.63-.13-1.03-.13-.95-.03-1.9-.04-2.84-.04s-1.98.02-3.11.06c-.52,0-.93.09-1.22.24s-.53.38-.72.67c-.09.13-.17.27-.24.41s-.13.28-.19.42c-.14.33-.27.71-.39,1.15-.14.49-.17.9-.09,1.21.08.32.29.58.61.8.33.22.81.45,1.47.69.94.36,1.53.98,1.77,1.88.25.89.1,1.73-.45,2.51s-1.4,1.22-2.56,1.31c-1.72.13-3.46.18-5.22.17-1.49,0-3.1-.06-4.82-.19-.94-.08-1.69-.46-2.23-1.17h.01ZM41.97,63.87c.21,0,.41,0,.6-.02.37,0,.67-.07.9-.21s.36-.34.39-.61c.04-.27-.02-.58-.18-.95-.08-.2-.13-.34-.17-.43-.04-.09-.1-.22-.17-.4-.08-.19-.14-.35-.21-.5-.06-.15-.14-.32-.22-.51-.16-.39-.37-.65-.63-.78-.27-.13-.53-.12-.79.03-.26.15-.47.41-.62.79-.08.22-.15.38-.19.49-.04.11-.11.27-.2.48-.08.2-.13.35-.17.44-.04.09-.09.23-.17.42-.15.39-.2.71-.15.97.05.25.19.44.42.57.23.12.53.19.92.2.23.01.44.02.65.02h-.01Z"/>
      <path d="M66.54,73.78c.02-.78.02-1.55.02-2.33,0-.4-.06-.74-.21-1.02-.15-.29-.36-.5-.63-.65-.28-.15-.61-.22-.99-.21h-1.35c-.29,0-.73.01-1.33.03-.31,0-.64,0-.97.01-1.52.03-2.59-.51-3.2-1.63-.61-1.12-.61-2.23,0-3.35.61-1.12,1.68-1.66,3.2-1.63h.62c1.04.03,2.08.05,3.12.07.36,0,.67-.07.93-.22s.46-.37.61-.66.21-.64.21-1.04v-.81c0-.22,0-.49-.01-.8v-.98c0-.32,0-.64-.01-.96-.03-1.53.51-2.59,1.62-3.2s2.22-.61,3.33,0,1.65,1.67,1.62,3.2c0,.28-.01.53-.01.73s0,.44-.01.71c0,.34-.01.69-.02,1.03,0,.34,0,.68-.02,1.03-.02.4.06.75.21,1.05s.39.52.7.69c.31.16.69.24,1.13.24h1.37c.34,0,.69-.01,1.03-.01s.69,0,1.06-.01c1.53-.03,2.6.51,3.2,1.62.61,1.11.61,2.22,0,3.33s-1.67,1.65-3.2,1.62c-.33,0-.58-.01-.74-.01s-.41,0-.73-.01h-1.01c-.34,0-.67-.01-1-.02-.41,0-.77.07-1.08.21s-.54.34-.71.62c-.17.27-.25.59-.24.96,0,1.51.02,2.49.04,2.94,0,.25,0,.51.02.77.03,1.53-.51,2.6-1.63,3.21-1.12.61-2.23.61-3.35,0s-1.66-1.68-1.63-3.21c0-.37,0-.8.02-1.29l.02-.02Z"/>
      <path d="M80.49,79.74c-.57-.68-.8-1.44-.71-2.28.09-.84.54-1.49,1.33-1.95.78-.44,1.34-.85,1.69-1.22.34-.37.58-.88.71-1.52s.21-1.63.24-2.97c.04-2.07.06-4.22.06-6.44s-.03-4.99-.08-8.3c-.02-.97-.1-1.73-.25-2.26s-.42-1.01-.8-1.45c-.38-.43-1.02-1-1.91-1.7-.65-.52-1-1.17-1.03-1.96s.23-1.49.79-2.09c.57-.6,1.33-.91,2.3-.93,1.39-.03,2.87-.05,4.44-.05s3.43,0,5.58.03c3.09.04,5.78.49,8.05,1.35,2.28.86,4.03,2.1,5.26,3.71s1.84,3.53,1.84,5.76-.57,4.11-1.72,5.8-2.74,3.04-4.77,4.05c-2.03,1.02-4.35,1.64-6.95,1.87-.61.06-1.12.17-1.51.34s-.69.42-.89.76c-.2.34-.3.79-.3,1.34,0,.09-.01.16-.01.2s0,.1.01.18c0,.14,0,.3-.01.46,0,.17,0,.34.01.52.02.94.1,1.63.23,2.07.13.44.39.81.76,1.13.38.31,1.05.75,2.02,1.31.79.46,1.24,1.11,1.38,1.95.13.84-.08,1.6-.65,2.28s-1.38,1.02-2.46,1.04c-1.99.04-3.75.07-5.28.07s-3.22-.02-5.08-.07c-.96-.02-1.72-.37-2.29-1.05v.02ZM96.88,60.64c.78-.47,1.37-1.12,1.76-1.93s.6-1.78.6-2.9-.21-2.1-.62-2.89-1.03-1.39-1.84-1.8c-.82-.42-1.81-.63-2.99-.65-.44,0-.8.07-1.07.22s-.48.37-.62.68-.22.71-.24,1.19c-.02.52-.03,1.14-.04,1.88-.02,2,0,3.74.04,5.22.01.41.11.76.28,1.04s.42.48.73.61c.31.12.7.17,1.15.14,1.13-.07,2.09-.34,2.86-.81Z"/>
    </g>
  </g>
</svg>