<?xml version="1.0" encoding="UTF-8"?>
<svg id="Layer_1" xmlns="http://www.w3.org/2000/svg" version="1.1" viewBox="0 0 125.05 102.46">
  <!-- Generator: Adobe Illustrator 30.6.0, SVG Export Plug-In . SVG Version: 2.1.4 Build 109)  -->
  <defs>
    <style>
      .st0 {
        isolation: isolate;
      }
    </style>
  </defs>
  <g>
    <path d="M0,88.61h2.17c.42,6.53,5.68,11.85,13.9,11.85,6.41,0,12.39-3.45,12.39-9.97,0-4.35-2.66-6.77-8.7-8.46l-8.76-2.41c-5.62-1.57-9.61-4.65-9.61-10.03,0-6.1,5.8-11,13.9-11s13.9,5.26,14.33,12.09h-2.17c-.48-5.68-5.5-10.09-12.14-10.09-7.07,0-11.72,3.87-11.72,9,0,4.35,3.08,6.52,8.7,8.1l9,2.54c5.68,1.63,9.42,4.71,9.42,10.27,0,7.5-7.13,11.96-14.62,11.96-9.73,0-15.65-6.17-16.08-13.84h0Z"/>
    <path d="M47.8,59.37h2.24l15.47,42.3h-2.41l-5.02-14.02h-18.13l-4.95,14.02h-2.23l15.04-42.3ZM57.34,85.71l-6.7-18.67c-.55-1.57-1.21-3.32-1.75-4.96-.55,1.51-1.15,3.45-1.69,4.96l-6.59,18.67h16.74Z"/>
    <path d="M78.51,84.51h-13.23v-1.99h13.23v-13.66h2.17v13.66h13.23v1.99h-13.23v13.9h-2.17s0-13.9,0-13.9Z"/>
    <path d="M97.92,59.37h13.23c8.76,0,13.9,4.29,13.9,11.48s-5.08,11.54-13.9,11.54h-11.06v19.28h-2.17v-42.3h0ZM111.16,80.4c7.32,0,11.66-3.38,11.66-9.55s-4.35-9.49-11.66-9.49h-11.06v19.04h11.06Z"/>
  </g>
  <g class="st0">
    <g class="st0">
      <g class="st0">
        <path d="M1.47,0h4.08l10.38,28.36c.79,2.19,1.61,4.31,2.33,6.51.72-2.19,1.54-4.38,2.33-6.51L30.83,0h3.94v51.15h-2.57V3.29l-12.5,34.7h-2.99L4.03,3.29v47.86H1.47V0Z"/>
        <path d="M44.64,48.58h16V2.54h-16V0h34.63v2.57h-16v46.04h16v2.57h-34.63v-2.59Z"/>
        <path d="M104.46,2.4h-17.98V0h38.58v2.4h-17.98v48.72h-2.64V2.4h.02Z"/>
      </g>
    </g>
  </g>
</svg>