<?xml version="1.0" encoding="UTF-8"?>
<svg id="Layer_1" xmlns="http://www.w3.org/2000/svg" version="1.1" viewBox="0 0 95.59 78.32">
  <!-- Generator: Adobe Illustrator 30.6.0, SVG Export Plug-In . SVG Version: 2.1.4 Build 109)  -->
  <defs>
    <style>
      .st0 {
        isolation: isolate;
      }
    </style>
  </defs>
  <g>
    <path d="M0,67.73h1.66c.32,4.99,4.34,9.06,10.62,9.06,4.9,0,9.47-2.64,9.47-7.62,0-3.33-2.04-5.17-6.65-6.47l-6.69-1.85c-4.29-1.2-7.35-3.56-7.35-7.67,0-4.67,4.44-8.41,10.62-8.41s10.62,4.02,10.96,9.24h-1.66c-.36-4.34-4.2-7.71-9.28-7.71-5.4,0-8.96,2.96-8.96,6.88,0,3.33,2.36,4.98,6.65,6.19l6.88,1.95c4.34,1.25,7.2,3.6,7.2,7.85,0,5.73-5.45,9.14-11.18,9.14-7.44,0-11.97-4.71-12.3-10.58h0Z"/>
    <path d="M36.54,45.38h1.71l11.82,32.34h-1.85l-3.84-10.71h-13.86l-3.78,10.71h-1.7l11.49-32.34h0ZM43.83,65.51l-5.12-14.27c-.42-1.2-.93-2.54-1.34-3.79-.42,1.15-.88,2.64-1.29,3.79l-5.04,14.27h12.8,0Z"/>
    <path d="M58.12,62.13h-10.11v-1.52h10.11v-10.44h1.66v10.44h10.11v1.52h-10.11v10.62h-1.66s0-10.62,0-10.62Z"/>
    <path d="M74.85,45.38h10.11c6.69,0,10.62,3.28,10.62,8.78s-3.88,8.82-10.62,8.82h-8.46v14.74h-1.66v-32.34h0ZM84.97,61.46c5.59,0,8.91-2.58,8.91-7.3s-3.33-7.26-8.91-7.26h-8.46v14.55h8.46Z"/>
  </g>
  <g class="st0">
    <g class="st0">
      <g class="st0">
        <path d="M1.13,0h3.12l7.94,21.68c.6,1.67,1.23,3.29,1.78,4.97.55-1.67,1.17-3.35,1.78-4.97L23.56,0h3.01v39.09h-1.96V2.52l-9.56,26.53h-2.28L3.08,2.52v36.58h-1.96V0Z"/>
        <path d="M30.11,37.13h12.23V1.95h-12.23V0h26.47v1.96h-12.23v35.19h12.23v1.96h-26.47v-1.98h0Z"/>
        <path d="M72.7,1.84h-13.74V0h29.49v1.84h-13.74v37.24h-2.02V1.84h.02,0Z"/>
      </g>
    </g>
  </g>
</svg>