<?xml version="1.0" encoding="UTF-8"?>
<svg id="Layer_1" xmlns="http://www.w3.org/2000/svg" version="1.1" viewBox="0 0 120.08 76.29">
  <!-- Generator: Adobe Illustrator 30.6.0, SVG Export Plug-In . SVG Version: 2.1.4 Build 109)  -->
  <defs>
    <style>
      .st0 {
        isolation: isolate;
      }
    </style>
  </defs>
  <g class="st0">
    <g class="st0">
      <g class="st0">
        <path d="M24.28,0l3.49,31.7L51.18,0h6.97l-.22.71c-3.7,0-5.39,1.14-6.43,4.68l-6.59,23.14c-.54,1.96-.82,3.32-.82,4.08,0,1.8,1.42,2.72,4.19,2.72l-.22.71h-13.34l.22-.71c3.98.16,5.94-1.31,6.81-4.52l7.3-25.7-.11-.11-22.93,31.04h-.38l-3.38-31.37h-.11l-6.86,24.07c-.49,1.8-.76,3.1-.76,3.81,0,1.85,1.36,2.78,4.14,2.78l-.22.71H7.4l.16-.71c1.8,0,3.1-.38,3.92-1.09.82-.76,1.58-2.18,2.18-4.3L21.45,2.67c-.98-1.31-2.56-1.96-4.68-1.96l.16-.71h7.35Z"/>
        <path d="M50.86,36.05l.22-.71c3.76,0,5.5-1.25,6.43-4.52l6.48-22.76c.6-1.85.93-3.38.93-4.63,0-1.8-1.2-2.72-4.63-2.72l.22-.71h13.45l-.22.71c-3.92,0-5.45,1.2-6.48,4.68l-6.64,23.36c-.49,1.8-.76,3.1-.76,3.87,0,1.91,1.25,2.72,4.68,2.72l-.22.71h-13.45Z"/>
        <path d="M75.85,0h27.01l-2.89,9.48h-.71c1.2-5.61.98-8.06-5.12-8.06h-4.08l-7.79,27.34c-.49,1.74-.76,3.05-.76,3.92,0,1.8,1.53,2.67,4.52,2.67l-.22.71h-13.12l.22-.71c3.65,0,5.23-1.25,6.26-4.52L87.56,1.42h-1.09c-3.65,0-6.37.54-8.28,1.63s-3.27,3.21-4.19,6.43h-.71l2.56-9.48Z"/>
      </g>
    </g>
  </g>
  <g class="st0">
    <g class="st0">
      <g class="st0">
        <path d="M0,76.29l3-13.4h.65c-.71,3.54-.27,6.43,1.2,8.71,1.47,2.29,3.92,3.43,7.3,3.43,2.34,0,4.3-.76,5.83-2.29,1.58-1.58,2.34-3.54,2.34-5.88,0-2.67-1.91-5.5-4.3-7.73-3.49-3.38-7.95-7.13-7.95-11.93,0-2.23.87-4.25,2.61-5.99,1.74-1.74,3.87-2.61,6.37-2.61,1.63,0,3.38.38,5.17,1.14,1.85.76,2.89,1.14,3.05,1.14,1.14,0,2.12-.76,2.89-2.29h.65l-2.72,11.98h-.65c.71-2.94.27-5.45-1.25-7.57-1.47-2.12-3.81-3.16-6.92-3.16-4.19,0-6.97,2.89-6.97,6.43,0,2.61,1.96,5.28,4.36,7.51,3.59,3.16,8.11,6.86,8.11,11.82,0,3-.98,5.56-2.94,7.62-1.91,2.01-4.41,3.05-7.41,3.05-1.69,0-3.49-.38-5.39-1.14-1.85-.76-3.1-1.14-3.7-1.14-1.14,0-2.07.76-2.67,2.29h-.65Z"/>
        <path d="M45.53,63.27h-11.33l-3.87,5.34-.71,1.09c-.87,1.25-1.2,1.96-1.2,2.83,0,1.47.98,2.23,2.89,2.23l-.27.71h-9.91l.22-.71c1.85-.22,3.05-.71,4.36-2.18l1.03-1.2.98-1.36c.49-.71.76-1.03.82-1.09l21.95-30.33h.22l-2.83,28.43c-.16,2.29-.27,3.76-.27,4.47,0,2.61,1.58,3.27,4.9,3.27l-.27.71h-12.74l.22-.71c2.34,0,3.76-.44,4.41-1.69.65-1.31.76-1.96.93-4.08l.49-5.72ZM47,45.36l-11.82,16.61h10.46l1.52-16.61h-.16Z"/>
        <path d="M72.98,71.71v-13.72h-13.61v-1.31h13.61v-13.62h1.36v13.62h13.61v1.31h-13.61v13.72h-1.36Z"/>
        <path d="M96.28,68.17c-.49,1.53-.76,2.83-.76,3.87,0,1.8,1.58,2.72,4.68,2.72l-.22.71h-13.45l.22-.71c3.92,0,5.5-1.31,6.43-4.52l6.48-22.76c.6-2.07.93-3.59.93-4.63,0-1.8-1.47-2.72-4.41-2.72l.22-.71h13.56c6.32,0,10.13,3.43,10.13,8.22,0,3.21-1.36,5.88-4.08,7.95-2.67,2.01-5.72,3.05-9.09,3.05-2.02,0-4.52-.44-7.57-1.25l-3.05,10.78ZM99.66,56.25c2.56.65,4.47.98,5.83.98,9.75,0,11.22-8.01,11.22-10.13,0-3.92-2.83-6.48-7.79-6.48-1.47,0-3.1.16-4.9.49l-4.36,15.14Z"/>
      </g>
    </g>
  </g>
</svg>