<?xml version="1.0" encoding="UTF-8"?>
<svg id="Layer_1" xmlns="http://www.w3.org/2000/svg" version="1.1" viewBox="0 0 94.49 85.18">
  <!-- Generator: Adobe Illustrator 30.6.0, SVG Export Plug-In . SVG Version: 2.1.4 Build 109)  -->
  <defs>
    <style>
      .st0 {
        isolation: isolate;
      }
    </style>
  </defs>
  <path d="M0,71.96l3.99-.42c.21,2.14.7,3.82,1.45,5.01.75,1.2,1.83,2.16,3.23,2.88,1.4.73,2.98,1.09,4.73,1.09,2.52,0,4.47-.62,5.86-1.84s2.09-2.83,2.09-4.79c0-1.15-.25-2.15-.76-3.01-.51-.86-1.27-1.56-2.29-2.11-1.02-.55-3.22-1.32-6.61-2.33-3.01-.89-5.16-1.79-6.44-2.7-1.28-.9-2.27-2.05-2.98-3.44-.71-1.39-1.06-2.96-1.06-4.72,0-3.16,1.02-5.74,3.06-7.74,2.04-2,4.79-3,8.24-3,2.38,0,4.45.47,6.24,1.41,1.78.94,3.16,2.29,4.15,4.04s1.51,3.82,1.58,6.2l-4.07.37c-.21-2.54-.97-4.41-2.27-5.64-1.3-1.22-3.13-1.83-5.49-1.83s-4.22.54-5.48,1.61c-1.26,1.07-1.89,2.46-1.89,4.16,0,1.58.46,2.8,1.38,3.67.92.87,3,1.75,6.22,2.64,3.15.87,5.37,1.63,6.64,2.27,1.95,1,3.42,2.31,4.42,3.93.99,1.62,1.49,3.55,1.49,5.8s-.52,4.26-1.57,6.1c-1.05,1.83-2.47,3.23-4.27,4.18s-3.97,1.43-6.5,1.43c-3.95,0-7.1-1.19-9.45-3.56-2.35-2.38-3.57-5.59-3.66-9.65Z"/>
  <path d="M27.24,84.51l12.33-38.98h4.52l13.09,38.98h-4.84l-3.72-11.81h-13.45l-3.47,11.81h-4.46ZM36.41,68.51h10.89l-3.32-10.8c-1.03-3.31-1.78-6.01-2.26-8.08-.41,2.5-1,4.98-1.75,7.45l-3.56,11.43Z"/>
  <path d="M70.1,84.5v-38.98h12.05c2.84,0,4.93.25,6.28.74,1.84.67,3.31,1.92,4.41,3.75,1.1,1.83,1.65,4.07,1.65,6.73,0,3.51-.9,6.37-2.69,8.59-1.79,2.22-4.88,3.32-9.28,3.32h-8.19v15.85h-4.23ZM74.33,64.05h8.27c2.61,0,4.51-.59,5.72-1.77,1.21-1.18,1.81-2.96,1.81-5.33,0-1.54-.3-2.86-.89-3.96-.59-1.1-1.31-1.85-2.15-2.26-.84-.41-2.36-.61-4.56-.61h-8.19v13.93Z"/>
  <g class="st0">
    <g class="st0">
      <g class="st0">
        <path d="M58.05,65.16v-7.26h-5.91v-3.03h5.91v-7.21h2.53v7.21h5.91v3.03h-5.91v7.26h-2.53Z"/>
      </g>
    </g>
  </g>
  <path d="M0,38.98V0h6.36l7.59,27.6,1.52,5.77c.37-1.44.94-3.52,1.7-6.25L24.83,0h5.69v38.98h-4.07V6.38l-9.32,32.6h-3.8L4.07,5.82v33.16H0Z"/>
  <path d="M47.77,38.98V0h4.23v38.98h-4.23Z"/>
  <path d="M79.68,38.98V4.6h-10.53V0h25.34v4.6h-10.58v34.38h-4.23Z"/>
</svg>