<?xml version="1.0" encoding="UTF-8"?>
<svg id="Layer_1" xmlns="http://www.w3.org/2000/svg" version="1.1" viewBox="0 0 75.76 60.01">
  <!-- Generator: Adobe Illustrator 30.6.0, SVG Export Plug-In . SVG Version: 2.1.4 Build 109)  -->
  <g>
    <path d="M16.5,28.45L5.24,3.92h-.08v19.76c0,1.94.21,3.1.6,3.57.43.43,1.59.69,3.44.73v.47H0v-.47c1.68-.13,2.79-.43,3.26-.9.52-.47.77-1.63.77-3.39V5.21c0-1.81-.26-3.05-.73-3.7C2.84.83,1.71.48,0,.48V0h5.93l11.21,24.83L28.61,0h6.62v.47c-1.68.05-2.79.34-3.31.9-.47.56-.73,1.76-.73,3.65v18.43c0,2.06.21,3.31.6,3.74.39.43,1.55.69,3.44.77v.47h-10.18v-.47c1.71-.05,2.84-.34,3.31-.9s.73-1.76.73-3.65V1.94h-.08l-12.38,26.5h-.13Z"/>
    <path d="M43.04,24.11c0,1.68.21,2.75.65,3.18.47.39,1.58.65,3.39.69v.47h-10.18v-.47c3.23-.13,4.04-.82,4.04-3.87V4.26c0-1.5-.26-2.49-.77-2.97-.47-.52-1.58-.77-3.26-.82v-.47h10.18v.47c-3.1.13-4.04.73-4.04,3.78v19.85h0Z"/>
    <path d="M61.72,1.09v22.47c0,1.97.21,3.18.6,3.65.39.43,1.55.69,3.44.77v.47h-10.18v-.47c1.76-.13,2.84-.43,3.31-.95.47-.56.73-1.71.73-3.48V1.09h-6.28c-2.88,0-3.7,1.46-4,5.46h-.47L49.13,0h23.07l.3,6.53h-.47c-.34-4-1.16-5.46-4.04-5.46h-6.28,0Z"/>
  </g>
  <g>
    <path d="M16.67,30.29v9.83h-.39c-.13-2.36-.9-4.42-2.36-6.23-1.46-1.84-3.31-2.75-5.58-2.75-1.59,0-3,.52-4.26,1.55-1.21.99-1.81,2.23-1.81,3.65,0,7.69,16.06,7.73,16.06,15.72,0,2.32-.77,4.21-2.28,5.71-1.5,1.5-3.57,2.23-6.1,2.23-1.59,0-3.1-.26-4.52-.77-1.42-.56-2.41-.82-3.05-.82-1.12,0-1.24.82-1.29,1.58h-.47v-9.75h.47c.6,7.47,6.57,8.85,8.55,8.85,3.91,0,6.62-1.97,6.62-5.54,0-1.24-.39-2.41-1.16-3.39-1.55-2.02-4-2.97-6.7-4.34-1.34-.69-2.62-1.34-3.78-1.97-2.36-1.24-4.08-3.52-4.08-6.28,0-2.19.77-3.95,2.32-5.28,1.59-1.33,3.44-2.02,5.63-2.02,1.21,0,2.49.26,3.82.82,1.37.56,2.19.82,2.49.82,1.12-.18,1.24-.77,1.46-1.63h.4Z"/>
    <path d="M37.18,49.54h-12.03l-1.71,4.47c-.65,1.58-.95,2.66-.95,3.18,0,1.2.69,1.68,3.05,1.71v.47h-7.94v-.47c2.19-.21,3.13-1.37,4.38-4.47l9.45-24.14h.21l9.33,23.19c.9,2.28,1.58,3.7,2.06,4.26.47.56,1.5.95,3,1.16v.47h-9.07v-.47c2.41-.13,2.92-.43,2.92-1.94,0-.56-.39-1.76-1.12-3.57l-1.59-3.87h0ZM36.8,48.64l-5.71-14.39-5.58,14.39h11.3Z"/>
    <path d="M62.05,54.87c0,1.76.21,2.88.65,3.31.47.43,1.58.69,3.39.73v.47h-10.18v-.47c1.63-.05,2.71-.34,3.23-.82.56-.52.82-1.58.82-3.23v-19.67c0-1.5-.26-2.53-.77-3-.47-.47-1.58-.73-3.26-.77v-.47h10.61c5.8,0,9.23,3,9.23,7.94,0,2.19-.77,3.99-2.28,5.46s-3.44,2.19-5.84,2.19c-.95,0-2.79-.3-5.58-.9v9.23h0ZM62.05,44.77c2.36.47,4.08.73,5.2.73,1.63,0,2.97-.6,4.04-1.81,1.08-1.21,1.63-2.75,1.63-4.6,0-4.42-2.66-7.09-6.91-7.09-1.34,0-2.66.13-3.95.39v12.37h0Z"/>
  </g>
  <path d="M47.17,49.73v-9.1h-9.02v-.87h9.02v-9.02h.9v9.02h9.02v.87h-9.02v9.1h-.9Z"/>
</svg>