<?xml version="1.0" encoding="UTF-8"?>
<svg id="Layer_1" xmlns="http://www.w3.org/2000/svg" version="1.1" viewBox="0 0 245.04 123.52">
  <!-- Generator: Adobe Illustrator 30.6.0, SVG Export Plug-In . SVG Version: 2.1.4 Build 109)  -->
  <path d="M21.71.85v11.45h-.5c-.2-2.75-1.15-5.15-2.8-7.2s-3.8-3.05-6.45-3.05c-1.8,0-3.35.55-4.7,1.7-1.3,1.15-1.95,2.5-1.95,4.1,0,3.15,2.9,5.6,6.5,7.4,5.3,2.45,12.15,5.3,12.05,10.85,0,2.7-.9,4.95-2.75,6.7-1.8,1.75-4.2,2.65-7.25,2.65-1.85,0-3.6-.3-5.25-.9-1.65-.65-2.85-.95-3.55-.95-1.15,0-1.35.65-1.5,1.85h-.65v-11.35h.65c.35,3.85,2.05,6.8,4.2,8.15,2.2,1.35,4.05,1.9,5.65,1.9,4.35,0,7.35-2.2,7.35-6.15,0-1.4-.45-2.65-1.35-3.75-1.75-2.25-4.55-3.35-7.7-4.95l-4.35-2.4c-2.65-1.6-4.65-4.25-4.65-7.5,0-2.5.9-4.55,2.75-6.15,1.85-1.6,4.1-2.4,6.7-2.4,1.4,0,2.9.3,4.45.95,1.6.65,2.55.95,2.9.95.85,0,1.45-.65,1.7-1.9h.5Z"/>
  <path d="M45.47,26.01c-.35,2.7-1.3,4.95-2.85,6.75-1.55,1.75-3.6,2.65-6.05,2.65-2.65,0-4.8-1.1-6.5-3.25-1.65-2.2-2.5-5.15-2.5-8.8s.95-6.35,2.85-8.5c1.95-2.15,4.35-3.2,7.25-3.2,1.85,0,3.5.55,4.95,1.6,1.45,1.05,2.2,2.25,2.2,3.6,0,1.25-.65,1.85-1.9,1.85s-1.95-.8-2.15-2.45c-.25-2.2-1.5-3.3-3.75-3.3-2.05,0-3.75.8-5.1,2.45-1.3,1.65-1.95,3.7-1.95,6.25,0,3.35.75,6.05,2.25,8.1,1.5,2.05,3.35,3.05,5.5,3.05,3.6,0,6.1-2.7,7.15-7.05l.6.25Z"/>
  <path d="M66.42,30.71c0,2.6.75,3.3,3.6,3.35v.65h-10.05v-.65c2.75-.05,3.6-.7,3.6-3.35v-11.4c0-3.65-1.2-5.5-3.65-5.5-1.95,0-4.2,1.3-6.65,3.95v12.95c0,2.65.75,3.3,3.6,3.35v.65h-10.1v-.65c2.95-.05,3.65-.7,3.65-3.35V5.15c0-1.8-.45-2.5-1.65-2.5-.65,0-1.35.15-2,.45l-.25-.55,6.2-2.55h.55v16.46c2.95-3.2,5.65-4.8,8.15-4.8,3.15,0,5,2.2,5,6.75v12.3Z"/>
  <path d="M88.63,14.96c2.05,2.15,3.1,4.85,3.1,8.05,0,2.05-.35,4-1.05,5.85-1.4,3.6-4.75,6.55-9.2,6.55-2.65,0-5-1.15-7.05-3.45s-3.1-5-3.1-8.15c0-3.45,1-6.3,2.95-8.65,1.95-2.35,4.4-3.5,7.25-3.5,2.65,0,5.05,1.1,7.1,3.3ZM76.43,15.36c-1.25,1.65-1.85,3.8-1.85,6.45,0,3.55.7,6.55,2.15,8.9,1.45,2.35,3.35,3.5,5.65,3.5,4.9,0,6.1-5.55,6.1-9.05,0-8-3.1-12.25-7.45-12.25-1.85,0-3.35.8-4.6,2.45Z"/>
  <path d="M112.19,14.96c2.05,2.15,3.1,4.85,3.1,8.05,0,2.05-.35,4-1.05,5.85-1.4,3.6-4.75,6.55-9.2,6.55-2.65,0-5-1.15-7.05-3.45s-3.1-5-3.1-8.15c0-3.45,1-6.3,2.95-8.65,1.95-2.35,4.4-3.5,7.25-3.5,2.65,0,5.05,1.1,7.1,3.3ZM99.99,15.36c-1.25,1.65-1.85,3.8-1.85,6.45,0,3.55.7,6.55,2.15,8.9,1.45,2.35,3.35,3.5,5.65,3.5,4.9,0,6.1-5.55,6.1-9.05,0-8-3.1-12.25-7.45-12.25-1.85,0-3.35.8-4.6,2.45Z"/>
  <path d="M123.3,0v30.71c0,2.8,1.1,3.3,3.7,3.35v.65h-10.05v-.65c2.55-.05,3.5-.55,3.5-3.35V5.35c0-1.95-.6-2.65-1.85-2.65-.5,0-1.1.15-1.85.45l-.2-.55,6.25-2.6h.5Z"/>
  <path d="M145.45,5.95c2.95-3.4,6.7-5.1,11.25-5.1s8.3,1.65,11.2,5c2.9,3.35,4.35,7.45,4.35,12.3s-1.45,8.85-4.4,12.25c-2.9,3.35-6.6,5.05-11.15,5.05s-8.3-1.7-11.25-5.05c-2.95-3.4-4.4-7.5-4.4-12.25s1.45-8.8,4.4-12.2ZM165.21,6.6c-1.9-3.05-4.75-4.55-8.5-4.55s-6.7,1.55-8.65,4.6c-1.9,3.05-2.85,6.9-2.85,11.5s1,8.5,2.95,11.55c2,3.05,4.85,4.55,8.55,4.55s6.5-1.5,8.45-4.55c1.95-3.05,2.95-6.9,2.95-11.55s-.95-8.5-2.9-11.55Z"/>
  <path d="M181.27,13.46v14.96c0,2.8.05,3.95.7,4.8.75.8,1.45.85,3.45.85v.65h-11.25v-.65c1.95-.05,3.15-.35,3.6-.9.45-.6.65-2.2.65-4.75v-14.96h-4.35v-1.1h4.35v-2.85c0-2.85.75-5.15,2.25-6.9s3.4-2.6,5.75-2.6c1.55,0,3,.4,4.35,1.2,1.4.75,2.1,1.75,2.1,2.9,0,.95-.5,1.4-1.5,1.4-2.35,0-2.4-4.3-6-4.3-2.75,0-4.1,2.1-4.1,6.35v4.8h5.75v1.1h-5.75Z"/>
  <path d="M22.76,62.36h-13.71l-2,5.05c-.75,1.75-1.1,2.95-1.1,3.6.2,1.7,1.3,1.9,3.7,2.05v.65H0v-.65c2.55-.25,3.6-1.5,5.15-5.15l11.3-28.06h.4l11.05,27.01c.95,2.45,1.75,3.95,2.3,4.55.85.95,2.05,1.5,3.6,1.65v.65h-11.45v-.65c2.55-.15,3.5-.6,3.5-2.25,0-.55-.45-1.9-1.3-4.05l-1.8-4.4ZM22.26,61.16l-6.45-15.96-6.25,15.96h12.71Z"/>
  <path d="M40.77,50.65v4.9c.25-.45.65-.95,1.1-1.6.5-.65,1.25-1.4,2.3-2.15,1.05-.75,2.05-1.15,3-1.15,1.45,0,2.45.8,2.45,2.15,0,1-.9,1.8-2.1,1.8-.95,0-2.2-.95-3.05-.95-1.2,0-2.7,2-3.75,4v12.15c0,1.35.25,2.2.75,2.6.5.4,1.65.6,3.4.65v.65h-10.45v-.65c2.8-.15,3.45-.7,3.45-3.35v-13c0-2.6-.5-3.35-1.85-3.35-.45,0-1.05.15-1.9.5l-.25-.55,6.35-2.65h.55Z"/>
  <path d="M68.12,65.01c-.35,2.7-1.3,4.95-2.85,6.75-1.55,1.75-3.6,2.65-6.05,2.65-2.65,0-4.8-1.1-6.5-3.25-1.65-2.2-2.5-5.15-2.5-8.8s.95-6.35,2.85-8.5c1.95-2.15,4.35-3.2,7.25-3.2,1.85,0,3.5.55,4.95,1.6,1.45,1.05,2.2,2.25,2.2,3.6,0,1.25-.65,1.85-1.9,1.85s-1.95-.8-2.15-2.45c-.25-2.2-1.5-3.3-3.75-3.3-2.05,0-3.75.8-5.1,2.45-1.3,1.65-1.95,3.7-1.95,6.25,0,3.35.75,6.05,2.25,8.1,1.5,2.05,3.35,3.05,5.5,3.05,3.6,0,6.1-2.7,7.15-7.05l.6.25Z"/>
  <path d="M89.08,69.71c0,2.6.75,3.3,3.6,3.35v.65h-10.05v-.65c2.75-.05,3.6-.7,3.6-3.35v-11.4c0-3.65-1.2-5.5-3.65-5.5-1.95,0-4.2,1.3-6.65,3.95v12.95c0,2.65.75,3.3,3.6,3.35v.65h-10.1v-.65c2.95-.05,3.65-.7,3.65-3.35v-25.56c0-1.8-.45-2.5-1.65-2.5-.65,0-1.35.15-2,.45l-.25-.55,6.2-2.55h.55v16.46c2.95-3.2,5.65-4.8,8.15-4.8,3.15,0,5,2.2,5,6.75v12.3Z"/>
  <path d="M100.69,50.65v19.06c0,2.6.75,3.3,3.7,3.35v.65h-10.15v-.65c2.8-.05,3.6-.75,3.6-3.35v-13.81c0-1.85-.5-2.55-1.75-2.55-.5,0-1.2.2-2.05.55l-.2-.6,6.3-2.65h.55ZM98.94,39.65c1.05,0,2,.85,2,2s-.95,2.05-2,2.05-2-.9-2-2.05c0-1.05.95-2,2-2Z"/>
  <path d="M112.04,51.35h5.25v1.1h-5.25v15.21c0,3.15.55,4.15,2.4,4.15,1.15,0,2.45-1.05,2.9-2.6h.65c-.8,2.95-2.55,4.8-4.95,4.8-2.55,0-3.85-1.8-3.85-5.35v-16.21h-3.85v-.65c3.55-.95,5.1-2.75,6.15-7.3h.55v6.85Z"/>
  <path d="M121.59,59.81c0,7.65,3.25,11.85,7.9,11.85,3.65,0,6.1-2.2,7.35-6.55l.55.3c-.45,2.55-1.45,4.65-3,6.4-1.55,1.75-3.5,2.6-5.8,2.6-2.8,0-5.1-1.1-6.9-3.25-1.75-2.15-2.65-4.95-2.65-8.35,0-7.45,3.95-12.15,10-12.15,2.55,0,4.6.85,6.15,2.55,1.55,1.7,2.35,3.9,2.35,6.6h-15.96ZM133.75,58.56c.05-4.05-2.3-6.6-5.75-6.6-1.55,0-3,.65-4.25,1.9-1.25,1.25-1.95,2.8-2.1,4.7h12.1Z"/>
  <path d="M158.46,65.01c-.35,2.7-1.3,4.95-2.85,6.75-1.55,1.75-3.6,2.65-6.05,2.65-2.65,0-4.8-1.1-6.5-3.25-1.65-2.2-2.5-5.15-2.5-8.8s.95-6.35,2.85-8.5c1.95-2.15,4.35-3.2,7.25-3.2,1.85,0,3.5.55,4.95,1.6,1.45,1.05,2.2,2.25,2.2,3.6,0,1.25-.65,1.85-1.9,1.85s-1.95-.8-2.15-2.45c-.25-2.2-1.5-3.3-3.75-3.3-2.05,0-3.75.8-5.1,2.45-1.3,1.65-1.95,3.7-1.95,6.25,0,3.35.75,6.05,2.25,8.1,1.5,2.05,3.35,3.05,5.5,3.05,3.6,0,6.1-2.7,7.15-7.05l.6.25Z"/>
  <path d="M166.26,51.35h5.25v1.1h-5.25v15.21c0,3.15.55,4.15,2.4,4.15,1.15,0,2.45-1.05,2.9-2.6h.65c-.8,2.95-2.55,4.8-4.95,4.8-2.55,0-3.85-1.8-3.85-5.35v-16.21h-3.85v-.65c3.55-.95,5.1-2.75,6.15-7.3h.55v6.85Z"/>
  <path d="M191.22,51.35v17.36c0,2.2.25,2.95,1.8,2.95.55,0,1.15-.15,1.8-.4l.25.6-6.2,2.55h-.5v-4.7c-2.9,3.15-5.6,4.7-8.15,4.7-3.25,0-5.1-2.5-5.1-6.55v-11.95c0-1.6-.2-2.65-.65-3.1-.4-.5-1.4-.75-3.05-.8v-.65h6.55v16.21c0,3.25,1.25,4.85,3.8,4.85.95,0,2.1-.4,3.35-1.2,1.25-.85,2.35-1.75,3.25-2.7v-12.6c0-1.6-.2-2.65-.65-3.1-.4-.5-1.4-.75-3.05-.8v-.65h6.55Z"/>
  <path d="M202.22,50.65v4.9c.25-.45.65-.95,1.1-1.6.5-.65,1.25-1.4,2.3-2.15,1.05-.75,2.05-1.15,3-1.15,1.45,0,2.45.8,2.45,2.15,0,1-.9,1.8-2.1,1.8-.95,0-2.2-.95-3.05-.95-1.2,0-2.7,2-3.75,4v12.15c0,1.35.25,2.2.75,2.6.5.4,1.65.6,3.4.65v.65h-10.45v-.65c2.8-.15,3.45-.7,3.45-3.35v-13c0-2.6-.5-3.35-1.85-3.35-.45,0-1.05.15-1.9.5l-.25-.55,6.35-2.65h.55Z"/>
  <path d="M214.08,59.81c0,7.65,3.25,11.85,7.9,11.85,3.65,0,6.1-2.2,7.35-6.55l.55.3c-.45,2.55-1.45,4.65-3,6.4-1.55,1.75-3.5,2.6-5.8,2.6-2.8,0-5.1-1.1-6.9-3.25-1.75-2.15-2.65-4.95-2.65-8.35,0-7.45,3.95-12.15,10-12.15,2.55,0,4.6.85,6.15,2.55,1.55,1.7,2.35,3.9,2.35,6.6h-15.96ZM226.23,58.56c.05-4.05-2.3-6.6-5.75-6.6-1.55,0-3,.65-4.25,1.9-1.25,1.25-1.95,2.8-2.1,4.7h12.1Z"/>
  <path d="M16.56,107.96c0,2.4.4,3.05,1.25,3.05.7,0,1.65-.65,2.9-1.95v1c-1.2,1.75-3.35,3.35-4.6,3.35-1.4,0-2.4-1.45-2.4-3.85-1.8,1.45-3.2,2.5-4.25,3.05-1,.55-2.05.8-3.2.8-2.95,0-5-2.2-5-5.65,0-1.95.95-3.6,2.85-5,1.9-1.45,5.1-2.95,9.6-4.6,0-1.85.05-2.45-.3-4-.35-2.2-1.5-3.2-4.15-3.4-2.45,0-3.9,1.3-3.9,3.35,0,2.2-.6,3.3-1.85,3.3-1,0-1.6-.8-1.6-1.95,0-1.45.75-2.75,2.2-3.95,1.5-1.25,3.45-1.85,5.85-1.85,4.05,0,6.6,2.35,6.6,6.1v12.2ZM13.71,99.31c-6.75,2.45-9.5,4.75-9.5,7.55s1.55,4.3,3.55,4.3c.85,0,1.65-.2,2.4-.6.8-.4,2-1.15,3.55-2.3v-8.95Z"/>
  <path d="M27.31,89.65v4.85c2.95-3.25,5.7-4.85,8.15-4.85,3.35,0,5.05,2.25,5.05,6.75v12.3c0,2.75.65,3.3,3.65,3.35v.65h-10.15v-.65c2.95-.05,3.65-.7,3.65-3.35v-11.4c0-3.65-1.25-5.5-3.7-5.5-1.95,0-4.2,1.3-6.65,3.95v12.95c0,1.4.2,2.3.65,2.7.45.4,1.45.6,2.95.65v.65h-10.1v-.65c2.95-.05,3.65-.7,3.65-3.35v-13.05c0-2.55-.5-3.3-1.85-3.3-.45,0-1.05.15-1.9.5l-.25-.55,6.35-2.65h.5Z"/>
  <path d="M61.12,83.95c0-2.6-.45-3.25-1.85-3.25-.45,0-1.1.15-1.85.45l-.25-.6,6.2-2.55h.6v30.11c0,2.05.4,2.55,1.85,2.55.65,0,1.2-.1,1.7-.3l.25.55-6.15,2.5h-.5v-3.65c-2.5,2.45-4.95,3.65-7.3,3.65s-4.3-1.05-5.95-3.1c-1.6-2.1-2.4-4.75-2.4-7.95s.9-6.3,2.75-8.85,4.3-3.85,7.3-3.85c2.4,0,4.25.8,5.6,2.4v-8.1ZM61.12,97.16c0-3.65-2.45-6.25-5.9-6.25-3.85,0-6.55,3.45-6.55,9.7,0,3.05.65,5.6,1.95,7.6,1.35,1.95,3,2.95,4.95,2.95,1.65,0,3.5-.95,5.55-2.8v-11.2Z"/>
  <path d="M87.48,107.16c0,2.15.25,3.5.8,4.05.55.55,1.85.8,3.9.85v.65h-12.5v-.65c1.9-.05,3.15-.35,3.75-1,.65-.65.95-1.95.95-3.9v-22.21c0-1.95-.3-3.25-.9-3.8-.6-.55-1.85-.85-3.8-.9v-.65h12.65c6.85,0,10.95,3.5,10.95,9.25,0,2.55-.9,4.7-2.7,6.4-1.75,1.7-4.05,2.55-6.9,2.55-1.2,0-3.25-.3-6.2-.95v10.3ZM87.48,95.76c2.35.5,4.2.75,5.6.75,3.6,0,6.25-3.05,6.25-7.4,0-5.05-2.95-8.05-7.6-8.05-1.6,0-3,.15-4.25.45v14.26Z"/>
  <path d="M111.89,78v30.71c0,2.8,1.1,3.3,3.7,3.35v.65h-10.05v-.65c2.55-.05,3.5-.55,3.5-3.35v-25.36c0-1.95-.6-2.65-1.85-2.65-.5,0-1.1.15-1.85.45l-.2-.55,6.25-2.6h.5Z"/>
  <path d="M132.65,107.96c0,2.4.4,3.05,1.25,3.05.7,0,1.65-.65,2.9-1.95v1c-1.2,1.75-3.35,3.35-4.6,3.35-1.4,0-2.4-1.45-2.4-3.85-1.8,1.45-3.2,2.5-4.25,3.05-1,.55-2.05.8-3.2.8-2.95,0-5-2.2-5-5.65,0-1.95.95-3.6,2.85-5,1.9-1.45,5.1-2.95,9.6-4.6,0-1.85.05-2.45-.3-4-.35-2.2-1.5-3.2-4.15-3.4-2.45,0-3.9,1.3-3.9,3.35,0,2.2-.6,3.3-1.85,3.3-1,0-1.6-.8-1.6-1.95,0-1.45.75-2.75,2.2-3.95,1.5-1.25,3.45-1.85,5.85-1.85,4.05,0,6.6,2.35,6.6,6.1v12.2ZM129.8,99.31c-6.75,2.45-9.5,4.75-9.5,7.55s1.55,4.3,3.55,4.3c.85,0,1.65-.2,2.4-.6.8-.4,2-1.15,3.55-2.3v-8.95Z"/>
  <path d="M143.4,89.65v4.85c2.95-3.25,5.7-4.85,8.15-4.85,3.35,0,5.05,2.25,5.05,6.75v12.3c0,2.75.65,3.3,3.65,3.35v.65h-10.15v-.65c2.95-.05,3.65-.7,3.65-3.35v-11.4c0-3.65-1.25-5.5-3.7-5.5-1.95,0-4.2,1.3-6.65,3.95v12.95c0,1.4.2,2.3.65,2.7.45.4,1.45.6,2.95.65v.65h-10.1v-.65c2.95-.05,3.65-.7,3.65-3.35v-13.05c0-2.55-.5-3.3-1.85-3.3-.45,0-1.05.15-1.9.5l-.25-.55,6.35-2.65h.5Z"/>
  <path d="M167.96,89.65v4.85c2.95-3.25,5.7-4.85,8.15-4.85,3.35,0,5.05,2.25,5.05,6.75v12.3c0,2.75.65,3.3,3.65,3.35v.65h-10.15v-.65c2.95-.05,3.65-.7,3.65-3.35v-11.4c0-3.65-1.25-5.5-3.7-5.5-1.95,0-4.2,1.3-6.65,3.95v12.95c0,1.4.2,2.3.65,2.7.45.4,1.45.6,2.95.65v.65h-10.1v-.65c2.95-.05,3.65-.7,3.65-3.35v-13.05c0-2.55-.5-3.3-1.85-3.3-.45,0-1.05.15-1.9.5l-.25-.55,6.35-2.65h.5Z"/>
  <path d="M192.82,89.65v19.06c0,2.6.75,3.3,3.7,3.35v.65h-10.15v-.65c2.8-.05,3.6-.75,3.6-3.35v-13.81c0-1.85-.5-2.55-1.75-2.55-.5,0-1.2.2-2.05.55l-.2-.6,6.3-2.65h.55ZM191.07,78.65c1.05,0,2,.85,2,2s-.95,2.05-2,2.05-2-.9-2-2.05c0-1.05.95-2,2-2Z"/>
  <path d="M204.88,89.65v4.85c2.95-3.25,5.7-4.85,8.15-4.85,3.35,0,5.05,2.25,5.05,6.75v12.3c0,2.75.65,3.3,3.65,3.35v.65h-10.15v-.65c2.95-.05,3.65-.7,3.65-3.35v-11.4c0-3.65-1.25-5.5-3.7-5.5-1.95,0-4.2,1.3-6.65,3.95v12.95c0,1.4.2,2.3.65,2.7.45.4,1.45.6,2.95.65v.65h-10.1v-.65c2.95-.05,3.65-.7,3.65-3.35v-13.05c0-2.55-.5-3.3-1.85-3.3-.45,0-1.05.15-1.9.5l-.25-.55,6.35-2.65h.5Z"/>
  <path d="M227.43,111.96c-1.6-.65-2.4-1.2-2.4-2.2,0-.65.2-1.35.65-2.1.45-.75.9-1.25,1.25-1.6l1.7-1.6c-2.5-1.35-3.75-3.55-3.75-6.65,0-2.3.75-4.25,2.3-5.8,1.55-1.55,3.6-2.35,6.15-2.35,1.75,0,3.5.6,5.2,1.85h5.5c.8,0,1,.15,1,.8,0,.75-.1.85-1.05.85h-4c.75,1.05,1.35,3.35,1.35,4.75,0,2.05-.75,3.8-2.2,5.35-1.45,1.5-3.5,2.25-6.2,2.25-1.35,0-2.4-.2-3.25-.55-1.35,1.2-2.05,2.25-2.05,3.2,0,.65.6,1.15,1.8,1.4,1.2.25,3.65.4,7.4.45,5.55.05,7.75,1.7,7.75,5.15,0,2-1.15,3.9-3.5,5.65-2.3,1.8-5.2,2.7-8.75,2.7-2.25,0-4.4-.5-6.35-1.45-1.95-.95-2.95-2.1-2.95-3.55,0-1.55,1.95-4.35,4.4-6.55ZM225.33,117.21c0,1.15.8,2.2,2.45,3.05,1.65.85,3.65,1.3,6.1,1.3,2.65,0,4.9-.6,6.7-1.8,1.85-1.15,2.75-2.5,2.75-4.05,0-2.15-1.75-3-6.55-3-4.4,0-7.15-.15-8.2-.4-2.15,1.95-3.25,3.55-3.25,4.9ZM227.93,96.71c0,5.15,2.25,7.9,5.5,7.9,2.85,0,4.8-2,4.8-6.2,0-5.05-2.1-7.85-5.55-7.85-2.65,0-4.75,2.5-4.75,6.15Z"/>
</svg>