<?xml version="1.0" encoding="UTF-8"?>
<svg id="Layer_1" xmlns="http://www.w3.org/2000/svg" version="1.1" viewBox="0 0 381.2 131.38">
  <!-- Generator: Adobe Illustrator 30.6.0, SVG Export Plug-In . SVG Version: 2.1.4 Build 109)  -->
  <path d="M2.24,35.99l2.86-12.79h.83c-.68,3.12-.36,5.77,1.04,8.01,1.4,2.24,3.69,3.33,6.86,3.33,4.21,0,7.33-2.91,7.33-7.28,0-2.5-1.82-5.15-4.11-7.38-3.22-3.22-7.49-6.92-7.49-11.49,0-2.45.88-4.47,2.6-6.03C13.88.79,16.02,0,18.57,0c1.45,0,3.12.36,4.94,1.09,1.82.68,2.81,1.04,2.96,1.04,1.25,0,1.66-.47,2.65-2.13h.83l-2.65,11.44h-.83c.57-2.7.16-5.05-1.14-7.02s-3.38-2.96-6.29-2.96c-3.69,0-6.4,2.55-6.4,5.72,0,2.44,1.87,4.99,4.21,7.12,3.38,3.12,7.7,6.81,7.7,11.49,0,3.07-.99,5.56-2.91,7.44-1.92,1.82-4.42,2.75-7.49,2.75-1.51,0-3.17-.36-4.99-1.04-1.82-.68-3.02-1.04-3.64-1.04-1.09,0-1.87.68-2.44,2.08h-.83Z"/>
  <path d="M63.87,0l-2.6,11.13h-.73c.42-3.43-.15-5.93-1.71-7.44-1.51-1.51-3.43-2.29-5.77-2.29-5.04,0-9.67,2.86-12.64,7.02-2.91,4.11-4.68,9.41-4.68,14.41,0,6.81,4.11,11.28,10.92,11.28,4.58,0,8.48-2.24,11.7-6.76h1.09c-3.48,5.77-8.27,8.63-14.35,8.63-4,0-7.28-1.25-9.78-3.69-2.44-2.49-3.69-5.82-3.69-10.04C31.32,10.82,41.88-.3,53.16,0c1.61,0,3.38.42,5.41,1.2.88.36,1.56.52,2.03.52.83,0,1.66-.57,2.5-1.72h.78Z"/>
  <path d="M59.47,35.21l.21-.83c3.54,0,4.89-.94,5.93-4.42l6.08-21.37c.57-2.29.88-3.8.88-4.52,0-1.72-1.04-2.44-4.11-2.44l.21-.83h13.26l-.21.83c-3.54,0-4.99.99-5.98,4.37l-2.91,10.35h16.95l2.18-7.75c.62-2.18.94-3.69.94-4.52,0-1.82-1.04-2.44-4.11-2.44l.21-.83h13.26l-.21.83c-3.59,0-4.99.99-5.98,4.37l-6.24,22.05c-.52,1.87-.78,3.17-.78,3.95,0,1.61,1.4,2.39,4.21,2.39l-.21.83h-13.26l.21-.83c3.59,0,5.05-1.09,5.93-4.42l3.43-12.22h-16.95l-2.91,10.3c-.52,1.87-.78,3.17-.78,3.95,0,1.61,1.4,2.39,4.21,2.39l-.21.83h-13.26Z"/>
  <path d="M131.26,4.01c1.66,2.45,2.39,5.15,2.39,8.06,0,4.52-1.87,10.04-5.25,15.08-1.72,2.55-4.01,4.63-6.97,6.34-2.91,1.66-6.14,2.5-9.72,2.5s-6.55-1.4-8.16-3.12c-.78-.88-1.41-1.92-1.87-3.12-.99-2.34-1.14-4.11-1.14-5.93,0-5.2,2.45-11.18,6.19-15.81,1.87-2.34,4.16-4.21,6.92-5.72S119.29,0,122.26,0c4.16,0,7.33,1.56,9,4ZM113.63,4.84c-2.65,2.34-4.84,5.41-6.5,9.1-1.61,3.69-2.44,7.44-2.44,11.18,0,6.24,2.76,9.67,7.7,9.67,2.71,0,5.41-1.2,8.06-3.64,2.65-2.44,4.84-5.51,6.5-9.31,1.71-3.8,2.55-7.59,2.55-11.34,0-5.82-3.12-9.26-7.7-9.26-2.76,0-5.51,1.2-8.16,3.59Z"/>
  <path d="M167.31,4.01c1.66,2.45,2.39,5.15,2.39,8.06,0,4.52-1.87,10.04-5.25,15.08-1.72,2.55-4.01,4.63-6.97,6.34-2.91,1.66-6.14,2.5-9.72,2.5s-6.55-1.4-8.16-3.12c-.78-.88-1.4-1.92-1.87-3.12-.99-2.34-1.14-4.11-1.14-5.93,0-5.2,2.44-11.18,6.19-15.81,1.87-2.34,4.16-4.21,6.92-5.72S155.35,0,158.32,0c4.16,0,7.33,1.56,9,4ZM149.68,4.84c-2.65,2.34-4.84,5.41-6.5,9.1-1.61,3.69-2.45,7.44-2.45,11.18,0,6.24,2.76,9.67,7.7,9.67,2.71,0,5.41-1.2,8.06-3.64,2.65-2.44,4.84-5.51,6.5-9.31,1.71-3.8,2.55-7.59,2.55-11.34,0-5.82-3.12-9.26-7.7-9.26-2.76,0-5.51,1.2-8.16,3.59Z"/>
  <path d="M177.52,28.04c-.52,1.87-.78,3.12-.78,3.75,0,1.25,1.04,1.82,4.78,1.82,4,0,6.81-.52,8.53-1.51,1.71-.99,3.38-3.22,5.04-6.6h.73l-3.33,9.72h-25.01l.21-.83c3.69,0,4.94-1.09,5.93-4.42l6.08-21.37c.57-1.98.88-3.48.88-4.52,0-1.82-1.14-2.44-4.11-2.44l.21-.83h13.47l-.21.83c-3.75,0-5.15.99-6.14,4.37l-6.29,22.05Z"/>
  <path d="M345.35,4.01c1.66,2.45,2.39,5.15,2.39,8.06,0,4.52-1.87,10.04-5.25,15.08-1.72,2.55-4.01,4.63-6.97,6.34-2.91,1.66-6.14,2.5-9.72,2.5s-6.55-1.4-8.16-3.12c-.78-.88-1.41-1.92-1.87-3.12-.99-2.34-1.14-4.11-1.14-5.93,0-5.2,2.45-11.18,6.19-15.81,1.87-2.34,4.16-4.21,6.92-5.72S333.39,0,336.35,0c4.16,0,7.33,1.56,9,4ZM327.72,4.84c-2.65,2.34-4.84,5.41-6.5,9.1-1.61,3.69-2.44,7.44-2.44,11.18,0,6.24,2.76,9.67,7.7,9.67,2.71,0,5.41-1.2,8.06-3.64,2.65-2.44,4.84-5.51,6.5-9.31,1.71-3.8,2.55-7.59,2.55-11.34,0-5.82-3.12-9.26-7.7-9.26-2.76,0-5.51,1.2-8.16,3.59Z"/>
  <path d="M362.79,2.35l-4.01,14.09h4.37c2.13,0,2.65,0,4.11-.26,2.03-.52,2.76-1.66,4.26-4.63h.78l-3.43,12.17h-.78c.52-2.34.41-3.85-.26-4.63-.68-.78-2.29-1.15-4.73-1.15h-4.78l-2.81,10.04c-.52,1.87-.78,3.22-.78,4,0,1.72,1.35,2.39,4.21,2.39l-.26.83h-13.26l.15-.83c3.69,0,4.94-1.14,5.93-4.42l6.08-21.37c.57-1.98.88-3.48.88-4.52,0-1.82-1.3-2.44-4.06-2.44l.26-.83h26.52l-2.55,8.63h-.78c.47-2.65.21-4.52-.68-5.51-.88-1.04-2.7-1.56-5.56-1.56h-8.84Z"/>
  <path d="M23.04,71.42h-10.35l-3.22,4.37c-1.46,1.82-2.18,3.28-2.18,4.26,0,1.35.94,2.03,2.81,2.03l-.26.83H0l.31-.83c1.25.21,2.81-.88,3.69-1.56.26-.21.62-.57,1.09-1.14l.88-1.09c.16-.16.47-.62.94-1.3l.83-1.14,20.44-28.14h.62l-2.55,27.15c-.16,2.18-.26,3.59-.26,4.26,0,2.29,1.35,2.96,4.42,2.96l-.26.83h-12.79l.21-.83c1.92,0,3.22-.42,3.85-1.2.62-.83.99-2.18,1.14-4l.47-5.46ZM24.44,55.03l-10.66,14.87h9.36l1.4-14.87h-.1Z"/>
  <path d="M56.39,82.91l-5.46-16.74h-1.04c-1.3,0-2.55-.21-3.69-.62l-2.91,10.14c-.47,1.92-.73,3.28-.73,4,0,1.66,1.2,2.39,4.16,2.39l-.21.83h-13.26l.15-.83c3.59,0,5.05-1.14,5.93-4.42l6.08-21.48c.57-1.98.88-3.43.88-4.42,0-1.66-1.04-2.44-4.11-2.44l.31-.83h11.44c6.6,0,9.93,2.86,9.93,7.64,0,2.55-.99,4.68-2.91,6.4-1.92,1.71-4.16,2.81-6.81,3.22l3.22,9.52c.88,2.81,1.77,4.63,2.6,5.51.88.88,2.24,1.3,4.06,1.3l-.26.83h-7.38ZM46.56,64.29c1.09.26,2.18.41,3.28.41,3.02,0,5.41-.83,7.18-2.5s2.65-3.69,2.65-6.03c0-4.21-2.39-6.29-7.23-6.29-.47,0-1.09.05-1.92.21l-3.95,14.2Z"/>
  <path d="M100.19,47.7l-2.6,11.13h-.73c.42-3.43-.15-5.93-1.71-7.44-1.51-1.51-3.43-2.29-5.77-2.29-5.04,0-9.67,2.86-12.64,7.02-2.91,4.11-4.68,9.41-4.68,14.41,0,6.81,4.11,11.28,10.92,11.28,4.58,0,8.48-2.24,11.7-6.76h1.09c-3.48,5.77-8.27,8.63-14.35,8.63-4,0-7.28-1.25-9.78-3.69-2.44-2.49-3.69-5.82-3.69-10.04-.31-11.44,10.24-22.57,21.53-22.26,1.61,0,3.38.42,5.41,1.2.88.36,1.56.52,2.03.52.83,0,1.66-.57,2.5-1.72h.78Z"/>
  <path d="M95.94,82.91l.21-.83c3.54,0,4.89-.94,5.93-4.42l6.08-21.37c.57-2.29.88-3.8.88-4.52,0-1.72-1.04-2.44-4.11-2.44l.21-.83h13.26l-.21.83c-3.54,0-4.99.99-5.98,4.37l-2.91,10.35h16.95l2.18-7.75c.62-2.18.94-3.69.94-4.52,0-1.82-1.04-2.44-4.11-2.44l.21-.83h13.26l-.21.83c-3.59,0-4.99.99-5.98,4.37l-6.24,22.05c-.52,1.87-.78,3.17-.78,3.95,0,1.61,1.4,2.39,4.21,2.39l-.21.83h-13.26l.21-.83c3.59,0,5.05-1.09,5.93-4.42l3.43-12.22h-16.95l-2.91,10.3c-.52,1.87-.78,3.17-.78,3.95,0,1.61,1.4,2.39,4.21,2.39l-.21.83h-13.26Z"/>
  <path d="M133.67,82.91l.21-.83c3.59,0,5.05-1.04,5.93-4.42l6.08-21.37c.57-2.24.88-3.74.88-4.52,0-1.66-.99-2.44-4.11-2.44l.21-.83h13.26l-.21.83c-3.69,0-4.94,1.04-5.98,4.37l-6.24,22.05c-.52,2.34-.78,3.69-.78,3.95,0,1.61,1.4,2.39,4.21,2.39l-.21.83h-13.26Z"/>
  <path d="M160.04,48.48h25.9l-2.76,9.1h-.88c1.4-5.36.52-7.44-4.89-7.44h-3.48l-7.23,25.53c-.57,1.82-.83,3.12-.83,4,0,1.61,1.4,2.39,4.21,2.39l-.21.83h-13.31l.26-.83c3.54,0,4.94-.94,5.98-4.42l7.75-27.51h-.99c-3.22,0-5.67.52-7.38,1.56-1.66,1.04-2.91,3.02-3.75,5.88h-.83l2.44-9.1Z"/>
  <path d="M192.45,55.81c.47-1.61.73-2.96.73-4.06,0-1.61-1.35-2.44-4.06-2.44l.26-.83h24.6l-2.18,8.32h-.78c.68-4.99-.99-6.87-5.98-6.87h-7.54l-4.06,14.2h4.26c2.39,0,4.11-.26,5.2-.83s2.18-1.98,3.17-4.26h.78l-3.54,12.53h-.78c.73-3.28.47-5.93-3.69-5.93h-5.88l-3.12,11.08c-.42,1.46-.62,2.45-.62,2.96,0,1.46,1.56,1.77,5.15,1.77,3.07,0,5.41-.21,7.02-.62,1.61-.47,2.91-1.2,4-2.24,1.09-1.09,2.29-2.81,3.64-5.25h.73l-3.28,9.57h-26.52l.26-.83c3.48,0,4.99-.88,5.98-4.42l6.24-21.84Z"/>
  <path d="M247.74,47.7l-2.6,11.13h-.73c.42-3.43-.15-5.93-1.71-7.44-1.51-1.51-3.43-2.29-5.77-2.29-5.04,0-9.67,2.86-12.64,7.02-2.91,4.11-4.68,9.41-4.68,14.41,0,6.81,4.11,11.28,10.92,11.28,4.58,0,8.48-2.24,11.7-6.76h1.09c-3.48,5.77-8.27,8.63-14.35,8.63-4,0-7.28-1.25-9.78-3.69-2.44-2.49-3.69-5.82-3.69-10.04-.31-11.44,10.24-22.57,21.53-22.26,1.61,0,3.38.42,5.41,1.2.88.36,1.56.52,2.03.52.83,0,1.66-.57,2.5-1.72h.78Z"/>
  <path d="M252.55,48.48h25.9l-2.76,9.1h-.88c1.4-5.36.52-7.44-4.89-7.44h-3.48l-7.23,25.53c-.57,1.82-.83,3.12-.83,4,0,1.61,1.4,2.39,4.21,2.39l-.21.83h-13.31l.26-.83c3.54,0,4.94-.94,5.98-4.42l7.75-27.51h-.99c-3.22,0-5.67.52-7.38,1.56-1.66,1.04-2.91,3.02-3.75,5.88h-.83l2.44-9.1Z"/>
  <path d="M284.91,67.77c-.78,2.71-1.14,4.78-1.14,6.24,0,4.78,3.48,7.9,8.63,7.9,3.43,0,6.08-1.14,7.91-3.48,1.87-2.34,3.59-6.24,5.2-11.81l3.07-10.51c.68-2.34.99-3.8.99-4.47,0-1.56-1.3-2.34-3.95-2.34l.21-.83h10.61l-.15.83c-1.92,0-3.22.36-3.9,1.14-.68.78-1.35,2.39-2.08,4.94l-4.32,14.77c-1.71,6.29-4.63,9.83-7.23,11.54-.83.62-1.72,1.04-2.7,1.3-1.92.57-3.02.68-4.63.68-3.22,0-5.88-.94-7.91-2.81-2.03-1.92-3.01-4.21-3.01-6.97,0-1.25.15-2.55.47-3.95.31-1.4.94-3.8,1.92-7.18,1.87-6.34,2.81-10.04,2.81-11.02,0-1.87-1.4-2.44-4.73-2.44l.31-.83h14.3l-.26.83c-2.13,0-3.59.36-4.47,1.04-.83.68-1.56,2.03-2.18,4.16l-3.75,13.26Z"/>
  <path d="M333.6,82.91l-5.46-16.74h-1.04c-1.3,0-2.55-.21-3.69-.62l-2.91,10.14c-.47,1.92-.73,3.28-.73,4,0,1.66,1.2,2.39,4.16,2.39l-.21.83h-13.26l.15-.83c3.59,0,5.05-1.14,5.93-4.42l6.08-21.48c.57-1.98.88-3.43.88-4.42,0-1.66-1.04-2.44-4.11-2.44l.31-.83h11.44c6.6,0,9.93,2.86,9.93,7.64,0,2.55-.99,4.68-2.91,6.4-1.92,1.71-4.16,2.81-6.81,3.22l3.22,9.52c.88,2.81,1.77,4.63,2.6,5.51.88.88,2.24,1.3,4.06,1.3l-.26.83h-7.38ZM323.77,64.29c1.09.26,2.18.41,3.28.41,3.02,0,5.41-.83,7.18-2.5s2.65-3.69,2.65-6.03c0-4.21-2.39-6.29-7.23-6.29-.47,0-1.09.05-1.92.21l-3.95,14.2Z"/>
  <path d="M356.24,55.81c.47-1.61.73-2.96.73-4.06,0-1.61-1.35-2.44-4.06-2.44l.26-.83h24.6l-2.18,8.32h-.78c.68-4.99-.99-6.87-5.98-6.87h-7.54l-4.06,14.2h4.26c2.39,0,4.11-.26,5.2-.83s2.18-1.98,3.17-4.26h.78l-3.54,12.53h-.78c.73-3.28.47-5.93-3.69-5.93h-5.88l-3.12,11.08c-.42,1.46-.62,2.45-.62,2.96,0,1.46,1.56,1.77,5.15,1.77,3.07,0,5.41-.21,7.02-.62,1.61-.47,2.91-1.2,4-2.24,1.09-1.09,2.29-2.81,3.64-5.25h.73l-3.28,9.57h-26.52l.26-.83c3.48,0,4.99-.88,5.98-4.42l6.24-21.84Z"/>
  <path d="M23.04,119.11h-10.35l-3.22,4.37c-1.46,1.82-2.18,3.28-2.18,4.27,0,1.35.94,2.03,2.81,2.03l-.26.83H0l.31-.83c1.25.21,2.81-.88,3.69-1.56.26-.21.62-.57,1.09-1.14l.88-1.09c.16-.16.47-.62.94-1.3l.83-1.14,20.44-28.13h.62l-2.55,27.14c-.16,2.18-.26,3.59-.26,4.26,0,2.29,1.35,2.97,4.42,2.97l-.26.83h-12.79l.21-.83c1.92,0,3.22-.42,3.85-1.2.62-.83.99-2.18,1.14-4.01l.47-5.46ZM24.44,102.73l-10.66,14.88h9.36l1.4-14.88h-.1Z"/>
  <path d="M48.8,96.18l11.02,28.76h.1l5.93-21.01c.57-2.03.88-3.54.88-4.47,0-1.82-.94-2.45-4.06-2.45l.26-.83h10.92l-.21.83c-3.33,0-4.63,1.04-5.72,4.73l-8.42,29.64h-.73l-11.28-29.33h-.11l-6.08,21.37c-.52,1.87-.78,3.17-.78,3.95,0,1.61,1.3,2.39,3.9,2.39l-.21.83h-10.71l.26-.83c3.07,0,4.58-1.15,5.46-4.42l7.18-25.48c-1.3-2.24-2.86-2.86-5.41-2.86l.21-.83h7.59Z"/>
  <path d="M79.97,103.98c.57-1.98.88-3.48.88-4.52,0-1.61-1.35-2.45-4.11-2.45l.26-.83h12.06c10.61,0,15.91,4.84,15.91,14.56,0,3.17-.68,6.44-2.91,10.14-1.09,1.82-2.5,3.48-4.16,4.89-3.28,2.76-8.95,4.84-15.81,4.84h-14.35l.21-.83c3.33,0,4.84-.83,5.93-4.42l6.08-21.37ZM77.73,123.53c-.62,2.49-.94,3.85-.94,4.11,0,.78.41,1.19,1.4,1.41,1.04.21,1.66.21,3.12.21,6.34,0,11.18-1.82,14.51-5.51s4.99-8.37,4.99-14.09c0-7.85-4.47-12.07-12.43-12.07-.68,0-1.77.06-3.33.16l-7.33,25.8Z"/>
  <path d="M138.91,123.38c-.47,1.46-.73,2.81-.73,4.06,0,1.56,1.41,2.34,4.21,2.34l-.26.83h-13.31l.26-.83c3.54,0,4.99-1.3,5.88-4.42l6.14-21.37c.57-1.98.88-3.48.88-4.52,0-1.82-1.25-2.45-4.16-2.45l.26-.83h13.73c3.59,0,6.14.78,7.64,2.34,1.51,1.51,2.24,3.38,2.24,5.57s-.73,4.05-2.13,5.72c-2.76,3.33-6.97,4.84-11.13,4.84-1.66,0-3.9-.36-6.76-1.09l-2.76,9.83ZM142.08,112.25c2.24.57,3.9.83,5.04.83,8.32,0,10.24-6.81,10.24-9.57,0-3.33-2.08-5.93-6.66-5.93-1.51,0-3.02.16-4.58.47l-4.05,14.2Z"/>
  <path d="M167.73,123.43c-.52,1.87-.78,3.12-.78,3.74,0,1.25,1.04,1.82,4.78,1.82,4,0,6.81-.52,8.53-1.51,1.71-.99,3.38-3.22,5.04-6.61h.73l-3.33,9.73h-25.01l.21-.83c3.69,0,4.94-1.09,5.93-4.42l6.08-21.37c.57-1.98.88-3.48.88-4.52,0-1.82-1.14-2.45-4.11-2.45l.21-.83h13.47l-.21.83c-3.75,0-5.15.99-6.14,4.37l-6.29,22.05Z"/>
  <path d="M208.83,119.11h-10.35l-3.22,4.37c-1.46,1.82-2.18,3.28-2.18,4.27,0,1.35.94,2.03,2.81,2.03l-.26.83h-9.83l.31-.83c1.25.21,2.81-.88,3.69-1.56.26-.21.62-.57,1.09-1.14l.88-1.09c.16-.16.47-.62.94-1.3l.83-1.14,20.44-28.13h.62l-2.55,27.14c-.16,2.18-.26,3.59-.26,4.26,0,2.29,1.35,2.97,4.42,2.97l-.26.83h-12.79l.21-.83c1.92,0,3.22-.42,3.85-1.2.62-.83.99-2.18,1.14-4.01l.47-5.46ZM210.24,102.73l-10.66,14.88h9.36l1.4-14.88h-.1Z"/>
  <path d="M234.59,96.18l11.02,28.76h.1l5.93-21.01c.57-2.03.88-3.54.88-4.47,0-1.82-.94-2.45-4.06-2.45l.26-.83h10.92l-.21.83c-3.33,0-4.63,1.04-5.72,4.73l-8.42,29.64h-.73l-11.28-29.33h-.11l-6.08,21.37c-.52,1.87-.78,3.17-.78,3.95,0,1.61,1.3,2.39,3.9,2.39l-.21.83h-10.71l.26-.83c3.07,0,4.58-1.15,5.46-4.42l7.18-25.48c-1.3-2.24-2.86-2.86-5.41-2.86l.21-.83h7.59Z"/>
  <path d="M269.24,96.18l11.02,28.76h.1l5.93-21.01c.57-2.03.88-3.54.88-4.47,0-1.82-.94-2.45-4.06-2.45l.26-.83h10.92l-.21.83c-3.33,0-4.63,1.04-5.72,4.73l-8.42,29.64h-.73l-11.28-29.33h-.11l-6.08,21.37c-.52,1.87-.78,3.17-.78,3.95,0,1.61,1.3,2.39,3.9,2.39l-.21.83h-10.71l.26-.83c3.07,0,4.58-1.15,5.46-4.42l7.18-25.48c-1.3-2.24-2.86-2.86-5.41-2.86l.21-.83h7.59Z"/>
  <path d="M288.19,130.6l.21-.83c3.59,0,5.05-1.04,5.93-4.42l6.08-21.37c.57-2.24.88-3.74.88-4.52,0-1.66-.99-2.45-4.11-2.45l.21-.83h13.26l-.21.83c-3.69,0-4.94,1.04-5.98,4.37l-6.24,22.05c-.52,2.34-.78,3.69-.78,3.95,0,1.61,1.4,2.39,4.21,2.39l-.21.83h-13.26Z"/>
  <path d="M321.22,96.18l11.02,28.76h.1l5.93-21.01c.57-2.03.88-3.54.88-4.47,0-1.82-.94-2.45-4.06-2.45l.26-.83h10.92l-.21.83c-3.33,0-4.63,1.04-5.72,4.73l-8.43,29.64h-.73l-11.28-29.33h-.11l-6.08,21.37c-.52,1.87-.78,3.17-.78,3.95,0,1.61,1.3,2.39,3.9,2.39l-.21.83h-10.71l.26-.83c3.07,0,4.58-1.15,5.46-4.42l7.18-25.48c-1.3-2.24-2.86-2.86-5.41-2.86l.21-.83h7.59Z"/>
  <path d="M349.27,102.52c3.59-4.21,9.36-7.12,15.76-7.12,2.24,0,4.42.47,6.6,1.35.83.36,1.4.52,1.77.52.52,0,.88-.26,1.2-.42.21-.15.52-.62.57-.67.05-.05.47-.73.47-.78h.88l-2.55,10.81h-.88c1.2-6.39-2.34-9.31-7.96-9.31-3.38,0-6.4,1.09-9.15,3.27-2.7,2.13-4.78,4.78-6.19,7.96-1.4,3.18-2.08,6.35-2.08,9.62,0,3.59.94,6.44,2.81,8.68,1.87,2.24,4.47,3.33,7.8,3.33,2.55,0,4.63-.47,6.24-1.41l2.08-7.28c.57-1.98.88-3.48.88-4.48,0-1.82-1.3-2.44-5.2-2.44l.21-.83h14.61l-.26.83c-3.75,0-5.15,1.25-6.14,4.58l-2.96,10.45c-3.48,1.46-6.66,2.18-9.52,2.18-10.77,0-14.72-6.71-14.72-14.2,0-5.14,2.18-10.5,5.72-14.66Z"/>
</svg>