<?xml version="1.0" encoding="UTF-8"?>
<svg id="Layer_1" xmlns="http://www.w3.org/2000/svg" version="1.1" viewBox="0 0 185.39 121.88">
  <!-- Generator: Adobe Illustrator 30.6.0, SVG Export Plug-In . SVG Version: 2.1.4 Build 109)  -->
  <path d="M1.78,23.28l3.42-.37c.18,1.84.6,3.27,1.24,4.3.65,1.03,1.57,1.85,2.77,2.48,1.2.62,2.56.94,4.06.94,2.16,0,3.84-.53,5.03-1.58s1.79-2.43,1.79-4.11c0-.99-.22-1.85-.65-2.58s-1.09-1.34-1.96-1.81c-.88-.47-2.77-1.14-5.67-2-2.59-.77-4.43-1.54-5.52-2.32-1.1-.78-1.95-1.76-2.56-2.96s-.91-2.54-.91-4.05c0-2.71.87-4.92,2.62-6.64C7.2.86,9.56,0,12.53,0c2.04,0,3.82.4,5.35,1.21,1.53.81,2.72,1.96,3.56,3.47.84,1.51,1.3,3.28,1.36,5.32l-3.49.32c-.18-2.18-.83-3.79-1.95-4.84-1.12-1.05-2.69-1.57-4.71-1.57s-3.62.46-4.7,1.38c-1.08.92-1.62,2.11-1.62,3.57,0,1.35.4,2.4,1.19,3.15.79.75,2.57,1.5,5.34,2.26,2.71.75,4.61,1.4,5.7,1.95,1.67.86,2.94,1.98,3.79,3.37s1.28,3.05,1.28,4.98-.45,3.66-1.35,5.23c-.9,1.57-2.12,2.77-3.66,3.59-1.54.82-3.4,1.23-5.58,1.23-3.39,0-6.1-1.02-8.11-3.06-2.02-2.04-3.06-4.8-3.14-8.28Z"/>
  <path d="M39.51,25.17l3.31.52c-.38,2.89-1.33,5.1-2.86,6.62-1.53,1.52-3.37,2.28-5.51,2.28-2.6,0-4.74-1.07-6.42-3.21-1.68-2.14-2.52-5.3-2.52-9.48s.85-7.37,2.54-9.48c1.7-2.11,3.88-3.16,6.54-3.16,2.05,0,3.78.64,5.19,1.92,1.41,1.28,2.31,3.19,2.7,5.75l-3.26.59c-.32-1.64-.88-2.86-1.67-3.67-.79-.81-1.74-1.21-2.85-1.21-1.66,0-3.03.73-4.12,2.2-1.09,1.47-1.63,3.8-1.63,6.99s.52,5.69,1.56,7.17c1.04,1.48,2.38,2.21,4.01,2.21,1.28,0,2.37-.49,3.27-1.47.91-.98,1.48-2.51,1.72-4.58Z"/>
  <path d="M44.08,34.05V.59h3.35v12c.79-1.11,1.69-1.94,2.68-2.5,1-.56,2.1-.83,3.3-.83,2.11,0,3.78.67,5.01,2.02,1.22,1.35,1.84,3.81,1.84,7.41v15.36h-3.35v-15.36c0-2.1-.37-3.61-1.12-4.52-.75-.91-1.77-1.37-3.08-1.37-1.46,0-2.7.59-3.73,1.76s-1.54,3.25-1.54,6.23v13.26h-3.35Z"/>
  <path d="M62.53,21.93c0-4.18.88-7.34,2.64-9.47s3.98-3.19,6.67-3.19,4.86,1.06,6.64,3.19c1.78,2.13,2.67,5.2,2.67,9.22,0,4.35-.88,7.59-2.62,9.72-1.75,2.13-3.98,3.19-6.69,3.19s-4.88-1.07-6.65-3.21c-1.77-2.14-2.66-5.29-2.66-9.46ZM65.98,21.92c0,3.14.57,5.47,1.71,7,1.14,1.53,2.56,2.3,4.24,2.3,1.58,0,2.94-.77,4.07-2.32,1.13-1.55,1.7-3.87,1.7-6.98s-.57-5.45-1.71-6.98c-1.14-1.53-2.56-2.3-4.24-2.3-1.6,0-2.96.77-4.08,2.31-1.13,1.54-1.69,3.86-1.69,6.97Z"/>
  <path d="M82.25,21.93c0-4.18.88-7.34,2.64-9.47s3.98-3.19,6.67-3.19,4.86,1.06,6.64,3.19c1.78,2.13,2.67,5.2,2.67,9.22,0,4.35-.88,7.59-2.62,9.72-1.75,2.13-3.98,3.19-6.69,3.19s-4.88-1.07-6.65-3.21c-1.77-2.14-2.66-5.29-2.66-9.46ZM85.7,21.92c0,3.14.57,5.47,1.71,7,1.14,1.53,2.56,2.3,4.24,2.3,1.58,0,2.94-.77,4.07-2.32,1.13-1.55,1.7-3.87,1.7-6.98s-.57-5.45-1.71-6.98c-1.14-1.53-2.56-2.3-4.24-2.3-1.6,0-2.96.77-4.08,2.31-1.13,1.54-1.69,3.86-1.69,6.97Z"/>
  <path d="M103.14,34.05V.59h3.35v33.45h-3.35Z"/>
  <path d="M118.7,17.75c0-5.71,1.25-10.09,3.77-13.16,2.51-3.07,5.64-4.6,9.38-4.6,2.42,0,4.62.68,6.62,2.05,1.99,1.37,3.57,3.36,4.74,5.97,1.16,2.61,1.75,5.72,1.75,9.32,0,4.96-1.13,9-3.38,12.12-2.48,3.44-5.73,5.16-9.74,5.16s-7.3-1.76-9.77-5.29c-2.24-3.19-3.35-7.05-3.35-11.57ZM122.44,17.81c0,4.13.91,7.33,2.73,9.6s4.03,3.41,6.63,3.41,4.9-1.15,6.7-3.45c1.8-2.3,2.7-5.68,2.7-10.14,0-2.88-.46-5.45-1.39-7.72-.72-1.74-1.79-3.13-3.23-4.17-1.44-1.04-3.01-1.56-4.71-1.56-2.74,0-4.99,1.14-6.77,3.43-1.77,2.28-2.66,5.82-2.66,10.6Z"/>
  <path d="M148.42,34.05V13.01h-2.99v-3.19h2.99v-2.58c0-1.9.2-3.33.59-4.28.4-.95,1-1.68,1.82-2.18s1.84-.75,3.08-.75c.96,0,2.01.14,3.16.43l-.5,3.56c-.7-.15-1.36-.23-1.99-.23-1,0-1.72.26-2.16.79-.43.52-.65,1.53-.65,3v2.24h3.88v3.19h-3.88v21.04h-3.35Z"/>
  <path d="M0,73.05l10.58-33.45h3.88l11.23,33.45h-4.15l-3.19-10.13H6.81l-2.98,10.13H0ZM7.87,59.31h9.34l-2.85-9.27c-.88-2.84-1.53-5.16-1.94-6.94-.35,2.15-.86,4.28-1.5,6.39l-3.05,9.81Z"/>
  <path d="M26.5,73.05v-24.24h3.04v3.67c.78-1.7,1.49-2.83,2.13-3.39.65-.56,1.37-.83,2.18-.83,1.13,0,2.27.44,3.45,1.32l-1.14,3.81c-.84-.59-1.65-.89-2.44-.89-.72,0-1.37.25-1.96.75-.59.5-1.01,1.2-1.25,2.1-.43,1.57-.64,3.23-.64,5v12.69h-3.35Z"/>
  <path d="M50.68,64.17l3.31.52c-.38,2.89-1.33,5.1-2.86,6.62-1.53,1.52-3.37,2.28-5.51,2.28-2.6,0-4.74-1.07-6.42-3.21-1.68-2.14-2.52-5.3-2.52-9.48s.85-7.37,2.54-9.48c1.7-2.11,3.88-3.16,6.54-3.16,2.05,0,3.78.64,5.19,1.92,1.41,1.28,2.31,3.19,2.7,5.75l-3.26.59c-.32-1.64-.88-2.86-1.67-3.67-.79-.81-1.74-1.21-2.85-1.21-1.66,0-3.03.73-4.12,2.2-1.09,1.47-1.63,3.8-1.63,6.99s.52,5.69,1.56,7.17c1.04,1.48,2.38,2.21,4.01,2.21,1.28,0,2.37-.49,3.27-1.47.91-.98,1.48-2.51,1.72-4.58Z"/>
  <path d="M55.25,73.05v-33.45h3.35v12c.79-1.11,1.69-1.94,2.68-2.5,1-.56,2.1-.83,3.3-.83,2.11,0,3.78.67,5.01,2.02,1.22,1.35,1.84,3.81,1.84,7.41v15.36h-3.35v-15.36c0-2.1-.37-3.61-1.12-4.52-.75-.91-1.77-1.37-3.08-1.37-1.46,0-2.7.59-3.73,1.76s-1.54,3.25-1.54,6.23v13.26h-3.35Z"/>
  <path d="M74.98,44.32v-4.72h3.35v4.72h-3.35ZM74.98,73.05v-24.24h3.35v24.24h-3.35Z"/>
  <path d="M89.38,69.37l.46,3.63c-.93.24-1.76.36-2.51.36-1.17,0-2.11-.23-2.83-.7-.72-.46-1.21-1.1-1.47-1.91-.27-.81-.4-2.41-.4-4.81v-13.94h-2.46v-3.19h2.46v-6l3.35-2.46v8.47h3.4v3.19h-3.4v14.17c0,1.31.1,2.15.3,2.53.29.55.83.82,1.62.82.38,0,.87-.05,1.48-.16Z"/>
  <path d="M104.54,65.24l3.47.52c-.58,2.59-1.62,4.54-3.14,5.85-1.51,1.32-3.39,1.97-5.63,1.97-2.81,0-5.09-1.07-6.83-3.21-1.74-2.14-2.61-5.22-2.61-9.25s.88-7.37,2.64-9.57c1.76-2.2,3.98-3.3,6.67-3.3s4.72,1.08,6.44,3.24c1.72,2.16,2.58,5.29,2.58,9.38l-.02,1.1h-14.83c.14,2.72.77,4.78,1.89,6.16,1.13,1.38,2.49,2.08,4.11,2.08,2.53,0,4.28-1.66,5.27-4.98ZM93.48,58.6h11.09c-.15-2.1-.6-3.67-1.35-4.7-1.08-1.51-2.46-2.26-4.13-2.26-1.51,0-2.79.63-3.86,1.88-1.06,1.26-1.65,2.95-1.76,5.08Z"/>
  <path d="M123.7,64.17l3.31.52c-.38,2.89-1.33,5.1-2.86,6.62-1.53,1.52-3.37,2.28-5.51,2.28-2.6,0-4.74-1.07-6.42-3.21-1.68-2.14-2.52-5.3-2.52-9.48s.85-7.37,2.54-9.48c1.7-2.11,3.88-3.16,6.54-3.16,2.05,0,3.78.64,5.19,1.92,1.41,1.28,2.31,3.19,2.7,5.75l-3.26.59c-.32-1.64-.88-2.86-1.67-3.67-.79-.81-1.74-1.21-2.85-1.21-1.66,0-3.03.73-4.12,2.2-1.09,1.47-1.63,3.8-1.63,6.99s.52,5.69,1.56,7.17c1.04,1.48,2.38,2.21,4.01,2.21,1.28,0,2.37-.49,3.27-1.47.91-.98,1.48-2.51,1.72-4.58Z"/>
  <path d="M135.76,69.37l.46,3.63c-.93.24-1.76.36-2.51.36-1.17,0-2.11-.23-2.83-.7-.72-.46-1.21-1.1-1.47-1.91-.27-.81-.4-2.41-.4-4.81v-13.94h-2.46v-3.19h2.46v-6l3.35-2.46v8.47h3.4v3.19h-3.4v14.17c0,1.31.1,2.15.3,2.53.29.55.83.82,1.62.82.38,0,.87-.05,1.48-.16Z"/>
  <path d="M150.35,73.05v-3.56c-.78,1.37-1.69,2.4-2.74,3.08-1.05.68-2.24,1.03-3.56,1.03-1.57,0-2.91-.42-4.02-1.27-1.11-.84-1.85-1.91-2.23-3.21-.37-1.29-.56-3.06-.56-5.29v-15.02h3.35v13.44c0,2.5.13,4.16.38,5.01.25.84.71,1.52,1.39,2.03.68.51,1.45.76,2.32.76,1.61,0,2.94-.66,3.97-1.99.88-1.14,1.32-3.23,1.32-6.28v-12.98h3.38v24.24h-3.01Z"/>
  <path d="M157.06,73.05v-24.24h3.04v3.67c.78-1.7,1.49-2.83,2.13-3.39.65-.56,1.37-.83,2.18-.83,1.13,0,2.27.44,3.45,1.32l-1.14,3.81c-.84-.59-1.65-.89-2.44-.89-.72,0-1.37.25-1.96.75-.59.5-1.01,1.2-1.25,2.1-.43,1.57-.64,3.23-.64,5v12.69h-3.35Z"/>
  <path d="M181.81,65.24l3.47.52c-.58,2.59-1.62,4.54-3.14,5.85-1.51,1.32-3.39,1.97-5.63,1.97-2.81,0-5.09-1.07-6.83-3.21-1.74-2.14-2.61-5.22-2.61-9.25s.88-7.37,2.64-9.57c1.76-2.2,3.98-3.3,6.67-3.3s4.72,1.08,6.44,3.24c1.72,2.16,2.58,5.29,2.58,9.38l-.02,1.1h-14.83c.14,2.72.77,4.78,1.89,6.16,1.13,1.38,2.49,2.08,4.11,2.08,2.53,0,4.28-1.66,5.27-4.98ZM170.74,58.6h11.09c-.15-2.1-.6-3.67-1.35-4.7-1.08-1.51-2.46-2.26-4.13-2.26-1.51,0-2.79.63-3.86,1.88-1.06,1.26-1.65,2.95-1.76,5.08Z"/>
  <path d="M18.28,108.08c-2.22,3.01-4.84,4.52-7.85,4.52-2.72,0-4.86-1.02-6.4-3.06s-2.32-4.29-2.32-6.76c0-4.12,2.18-7.45,6.54-9.97-1.21-1.68-2.03-3.06-2.45-4.15-.43-1.09-.64-2.15-.64-3.18,0-2.11.67-3.88,2-5.31,1.33-1.43,2.93-2.14,4.8-2.14s3.31.67,4.54,2.02c1.23,1.35,1.85,3.05,1.85,5.12,0,3.18-1.73,5.89-5.19,8.14l4.93,7.64c.54-1.31.97-2.86,1.31-4.66l3.49.91c-.59,2.89-1.4,5.29-2.42,7.21,1.23,2.01,2.65,3.72,4.27,5.13l-2.26,3.29c-1.35-1.09-2.75-2.67-4.2-4.75ZM16.13,104.85l-6.14-9.35c-1.73,1.26-2.94,2.45-3.63,3.57-.68,1.12-1.03,2.27-1.03,3.46,0,1.52.47,2.97,1.41,4.36.94,1.38,2.17,2.08,3.69,2.08.97,0,2-.37,3.07-1.11,1.08-.74,1.95-1.74,2.62-3ZM11.42,90.66c1.4-1.02,2.33-1.92,2.79-2.69s.69-1.67.69-2.69c0-1.19-.3-2.13-.91-2.83-.61-.7-1.34-1.05-2.19-1.05s-1.62.34-2.25,1.03c-.63.68-.95,1.57-.95,2.66s.44,2.2,1.33,3.44l1.49,2.13Z"/>
  <path d="M36.03,112.05v-33.45h10.34c2.43,0,4.23.21,5.39.64,1.58.58,2.84,1.65,3.79,3.22.94,1.57,1.42,3.49,1.42,5.77,0,3.01-.77,5.47-2.31,7.37-1.54,1.9-4.19,2.85-7.96,2.85h-7.03v13.6h-3.63ZM39.66,94.5h7.1c2.24,0,3.87-.51,4.91-1.52s1.55-2.54,1.55-4.58c0-1.32-.25-2.46-.76-3.4s-1.13-1.59-1.85-1.94c-.72-.35-2.03-.53-3.91-.53h-7.03v11.96Z"/>
  <path d="M59.43,112.05v-33.45h3.35v33.45h-3.35Z"/>
  <path d="M79.4,109.06c-1.13,1.17-2.3,2.05-3.51,2.65-1.22.59-2.48.89-3.79.89-2.07,0-3.72-.62-4.95-1.87-1.23-1.25-1.85-2.93-1.85-5.04,0-1.4.29-2.64.87-3.72.58-1.08,1.37-1.92,2.37-2.53,1-.61,2.53-1.06,4.56-1.35,2.74-.4,4.75-.88,6.02-1.44l.02-1.05c0-1.66-.3-2.82-.89-3.49-.84-.97-2.12-1.46-3.86-1.46-1.57,0-2.74.33-3.51.97s-1.35,1.87-1.71,3.66l-3.31-.55c.47-2.6,1.43-4.5,2.86-5.68,1.44-1.19,3.5-1.78,6.17-1.78,2.08,0,3.72.39,4.91,1.18,1.19.78,1.94,1.75,2.25,2.91.31,1.16.47,2.85.47,5.07v5.48c0,3.83.07,6.25.22,7.25.14,1,.43,1.97.86,2.91h-3.51c-.35-.84-.58-1.83-.69-2.99ZM79.13,99.88c-1.23.61-3.07,1.13-5.5,1.55-1.41.24-2.4.52-2.97.83-.56.31-1,.75-1.31,1.32s-.47,1.23-.47,1.97c0,1.16.36,2.08,1.07,2.77.71.69,1.7,1.04,2.97,1.04s2.29-.31,3.27-.94,1.72-1.46,2.2-2.5.73-2.56.73-4.55v-1.51Z"/>
  <path d="M86.19,112.05v-24.24h3.04v3.42c.73-1.33,1.62-2.33,2.68-2.98,1.06-.66,2.27-.99,3.63-.99,1.06,0,2.05.21,2.95.63.9.42,1.63.97,2.19,1.64.55.68.97,1.56,1.24,2.64.27,1.08.41,2.74.41,4.97v14.9h-3.35v-14.76c0-1.78-.15-3.08-.46-3.91-.3-.82-.78-1.46-1.43-1.91-.65-.45-1.4-.67-2.25-.67-1.61,0-2.9.6-3.86,1.81s-1.44,3.27-1.44,6.19v13.25h-3.35Z"/>
  <path d="M105.91,112.05v-24.24h3.04v3.42c.73-1.33,1.62-2.33,2.68-2.98,1.06-.66,2.27-.99,3.63-.99,1.06,0,2.05.21,2.95.63.9.42,1.63.97,2.19,1.64.55.68.97,1.56,1.24,2.64.27,1.08.41,2.74.41,4.97v14.9h-3.35v-14.76c0-1.78-.15-3.08-.46-3.91-.3-.82-.78-1.46-1.43-1.91-.65-.45-1.4-.67-2.25-.67-1.61,0-2.9.6-3.86,1.81s-1.44,3.27-1.44,6.19v13.25h-3.35Z"/>
  <path d="M125.64,83.32v-4.72h3.35v4.72h-3.35ZM125.64,112.05v-24.24h3.35v24.24h-3.35Z"/>
  <path d="M132.56,112.05v-24.24h3.04v3.42c.73-1.33,1.62-2.33,2.68-2.98,1.06-.66,2.27-.99,3.63-.99,1.06,0,2.05.21,2.95.63.9.42,1.63.97,2.19,1.64.55.68.97,1.56,1.24,2.64.27,1.08.41,2.74.41,4.97v14.9h-3.35v-14.76c0-1.78-.15-3.08-.46-3.91-.3-.82-.78-1.46-1.43-1.91-.65-.45-1.4-.67-2.25-.67-1.61,0-2.9.6-3.86,1.81s-1.44,3.27-1.44,6.19v13.25h-3.35Z"/>
  <path d="M151.62,114.06l3.29.59c.15,1.3.61,2.27,1.37,2.9.76.63,1.82.95,3.17.95,1.48,0,2.65-.35,3.53-1.06.87-.71,1.47-1.76,1.79-3.16.2-.85.3-2.65.3-5.39-.73,1.04-1.55,1.83-2.46,2.36-.91.53-1.92.79-3.04.79-2.37,0-4.34-1-5.91-3.01-1.79-2.31-2.69-5.41-2.69-9.29,0-2.6.4-4.88,1.19-6.82.79-1.95,1.83-3.38,3.11-4.29,1.29-.91,2.73-1.37,4.32-1.37,1.17,0,2.24.29,3.21.86.97.57,1.82,1.44,2.57,2.58v-2.9h3.1v20.95c0,3.73-.3,6.39-.91,7.98-.61,1.59-1.61,2.84-2.99,3.77-1.38.92-3.05,1.38-5,1.38-2.57,0-4.55-.69-5.93-2.08-1.38-1.38-2.05-3.3-2.01-5.75ZM154.41,99.5c0,3.19.53,5.51,1.58,6.98s2.34,2.2,3.86,2.2,2.82-.72,3.89-2.15c1.07-1.43,1.6-3.71,1.6-6.84s-.55-5.32-1.65-6.81-2.43-2.23-4-2.23c-1.4,0-2.63.74-3.69,2.23-1.06,1.49-1.59,3.7-1.59,6.62Z"/>
</svg>