<?xml version="1.0" encoding="UTF-8"?>
<svg id="Layer_1" xmlns="http://www.w3.org/2000/svg" version="1.1" viewBox="0 0 359.89 126.62">
  <!-- Generator: Adobe Illustrator 30.6.0, SVG Export Plug-In . SVG Version: 2.1.4 Build 109)  -->
  <path d="M45.53,25.01h6.99c.49,4.23,2.9,5.91,7.93,5.91,3.64,0,6.84-1.28,6.84-4.53,0-3.45-3.35-4.13-8.71-5.37-6.3-1.43-12.06-3.1-12.06-10.44C46.52,3.64,52.18.05,60.01.05s13.04,3.89,13.59,10.98h-6.84c-.39-3.54-3.15-5.32-6.79-5.32-3.84,0-6.35,1.62-6.35,4.13,0,2.85,2.46,3.69,7.68,4.82,7.24,1.58,13.14,3.3,13.14,10.88,0,7.14-5.76,11.12-13.68,11.12-9.55,0-14.96-4.23-15.21-11.67Z"/>
  <path d="M77.19,18.41c0-10.44,6.5-18.41,16.88-18.41,8.66,0,13.78,5.17,14.52,11.86h-7.09c-.64-3.54-3.3-5.86-7.43-5.86-6.5,0-9.6,5.41-9.6,12.4s3.74,12.36,9.65,12.36c4.18,0,7.14-2.51,7.58-6.2h6.99c-.2,3.1-1.53,6.1-3.89,8.32-2.41,2.26-5.81,3.74-10.68,3.74-9.89,0-16.93-7.63-16.93-18.21Z"/>
  <path d="M112.38.69h7.14v13.78h13.83V.69h7.14v35.2h-7.14v-15.51h-13.83v15.51h-7.14V.69Z"/>
  <path d="M144.38,18.36c0-10.53,6.6-18.36,16.98-18.36s16.93,7.83,16.93,18.36-6.55,18.31-16.93,18.31-16.98-7.78-16.98-18.31ZM171.01,18.36c0-7.04-3.15-12.5-9.6-12.5s-9.75,5.46-9.75,12.5,3.3,12.45,9.75,12.45,9.6-5.46,9.6-12.45Z"/>
  <path d="M180.66,18.36c0-10.53,6.6-18.36,16.98-18.36s16.93,7.83,16.93,18.36-6.55,18.31-16.93,18.31-16.98-7.78-16.98-18.31ZM207.29,18.36c0-7.04-3.15-12.5-9.6-12.5s-9.75,5.46-9.75,12.5,3.3,12.45,9.75,12.45,9.6-5.46,9.6-12.45Z"/>
  <path d="M218.47.69h7.14v29.24h16.54v5.96h-23.68V.69Z"/>
  <path d="M252.73,18.36c0-10.53,6.6-18.36,16.98-18.36s16.93,7.83,16.93,18.36-6.55,18.31-16.93,18.31-16.98-7.78-16.98-18.31ZM279.36,18.36c0-7.04-3.15-12.5-9.6-12.5s-9.75,5.46-9.75,12.5,3.3,12.45,9.75,12.45,9.6-5.46,9.6-12.45Z"/>
  <path d="M290.54.69h25.2v6.05h-18.07v8.47h15.31v6.1h-15.31v14.57h-7.14V.69Z"/>
  <path d="M12.26,45.69h7.38l12.4,35.2h-7.43l-2.36-7.48h-12.7l-2.31,7.48H0l12.26-35.2ZM11.22,67.94h9.3l-3.15-10.14c-.59-1.87-1.43-5.41-1.43-5.41h-.1s-.89,3.54-1.48,5.41l-3.15,10.14Z"/>
  <path d="M35,45.69h16.15c6.79,0,11.32,3.94,11.32,9.8,0,4.13-1.92,7.29-6.45,8.52v.15c3.25.94,4.92,2.81,5.37,7.09.49,4.97.3,8.76,1.53,9.3v.34h-6.84c-.89-.39-.98-4.33-1.28-8.12-.3-3.84-2.46-6.01-6.89-6.01h-5.76v14.13h-7.14v-35.2ZM42.14,61.24h7.58c3.89,0,5.81-2.02,5.81-4.82s-1.82-4.97-5.61-4.97h-7.78v9.8Z"/>
  <path d="M65.52,63.41c0-10.44,6.5-18.41,16.88-18.41,8.66,0,13.78,5.17,14.52,11.86h-7.09c-.64-3.54-3.3-5.86-7.43-5.86-6.5,0-9.6,5.41-9.6,12.4s3.74,12.36,9.65,12.36c4.18,0,7.14-2.51,7.58-6.2h6.99c-.2,3.1-1.53,6.1-3.89,8.32-2.41,2.26-5.81,3.74-10.68,3.74-9.89,0-16.93-7.63-16.93-18.21Z"/>
  <path d="M100.72,45.69h7.14v13.78h13.83v-13.78h7.14v35.2h-7.14v-15.51h-13.83v15.51h-7.14v-35.2Z"/>
  <path d="M134.29,45.69h7.14v35.2h-7.14v-35.2Z"/>
  <path d="M145.07,45.69h28.3v6.01h-10.58v29.19h-7.14v-29.19h-10.58v-6.01Z"/>
  <path d="M176.97,45.69h25.89v6.01h-18.75v7.88h16.44v5.86h-16.44v9.5h18.9v5.96h-26.04v-35.2Z"/>
  <path d="M205.18,63.41c0-10.44,6.5-18.41,16.88-18.41,8.66,0,13.78,5.17,14.52,11.86h-7.09c-.64-3.54-3.3-5.86-7.43-5.86-6.5,0-9.6,5.41-9.6,12.4s3.74,12.36,9.65,12.36c4.18,0,7.14-2.51,7.58-6.2h6.99c-.2,3.1-1.53,6.1-3.89,8.32-2.41,2.26-5.81,3.74-10.68,3.74-9.89,0-16.93-7.63-16.93-18.21Z"/>
  <path d="M237.57,45.69h28.3v6.01h-10.58v29.19h-7.14v-29.19h-10.58v-6.01Z"/>
  <path d="M269.17,69.56v-23.87h7.14v23.87c0,3.64,1.82,6.2,6.6,6.2,4.53,0,6.65-2.66,6.65-6.3v-23.78h7.14v23.87c0,7.53-4.63,11.91-13.64,11.91s-13.88-4.28-13.88-11.91Z"/>
  <path d="M301.81,45.69h16.15c6.79,0,11.32,3.94,11.32,9.8,0,4.13-1.92,7.29-6.45,8.52v.15c3.25.94,4.92,2.81,5.37,7.09.49,4.97.3,8.76,1.53,9.3v.34h-6.84c-.89-.39-.98-4.33-1.28-8.12-.3-3.84-2.46-6.01-6.89-6.01h-5.76v14.13h-7.14v-35.2ZM308.95,61.24h7.58c3.89,0,5.81-2.02,5.81-4.82s-1.82-4.97-5.61-4.97h-7.78v9.8Z"/>
  <path d="M333.85,45.69h25.89v6.01h-18.75v7.88h16.44v5.86h-16.44v9.5h18.9v5.96h-26.04v-35.2Z"/>
  <path d="M22.67,90.69h7.38l12.4,35.2h-7.43l-2.36-7.48h-12.7l-2.31,7.48h-7.24l12.26-35.2ZM21.64,112.94h9.3l-3.15-10.14c-.59-1.87-1.43-5.41-1.43-5.41h-.1s-.89,3.54-1.48,5.41l-3.15,10.14Z"/>
  <path d="M45.41,90.69h7.24l11.72,19.64c1.13,1.92,2.46,4.92,2.46,4.92h.1s-.2-3.64-.2-6.1v-18.46h7.04v35.2h-6.89l-12.01-19.44c-1.13-1.87-2.51-4.87-2.51-4.87h-.1s.2,3.69.2,6.15v18.16h-7.04v-35.2Z"/>
  <path d="M79.18,90.69h13.73c9.4,0,15.46,7.58,15.46,17.97,0,5.71-1.92,10.73-5.61,13.83-2.61,2.17-6.01,3.4-10.44,3.4h-13.14v-35.2ZM91.83,119.73c6.69,0,9.3-4.08,9.3-11.08s-3.05-11.86-9.11-11.86h-5.71v22.94h5.51Z"/>
  <path d="M120.53,90.69h15.46c4.09,0,7.14,1.18,9.21,3.3,1.97,2.02,3.15,4.77,3.15,8.02,0,6.65-4.38,11.12-11.76,11.12h-8.66v12.75h-7.38v-35.2ZM127.92,107.33h7.38c3.74,0,5.71-2.07,5.71-5.27s-2.07-5.17-5.61-5.17h-7.48v10.44Z"/>
  <path d="M151.89,90.69h7.14v29.24h16.54v5.96h-23.68v-35.2Z"/>
  <path d="M189.35,90.69h7.38l12.41,35.2h-7.43l-2.36-7.48h-12.7l-2.31,7.48h-7.24l12.26-35.2ZM188.32,112.94h9.3l-3.15-10.14c-.59-1.87-1.43-5.41-1.43-5.41h-.1s-.89,3.54-1.48,5.41l-3.15,10.14Z"/>
  <path d="M212.09,90.69h7.24l11.72,19.64c1.13,1.92,2.46,4.92,2.46,4.92h.1s-.2-3.64-.2-6.1v-18.46h7.04v35.2h-6.89l-12.01-19.44c-1.13-1.87-2.51-4.87-2.51-4.87h-.1s.2,3.69.2,6.15v18.16h-7.04v-35.2Z"/>
  <path d="M245.86,90.69h7.24l11.72,19.64c1.13,1.92,2.46,4.92,2.46,4.92h.1s-.2-3.64-.2-6.1v-18.46h7.04v35.2h-6.89l-12.01-19.44c-1.13-1.87-2.51-4.87-2.51-4.87h-.1s.2,3.69.2,6.15v18.16h-7.04v-35.2Z"/>
  <path d="M279.68,90.69h7.14v35.2h-7.14v-35.2Z"/>
  <path d="M292.28,90.69h7.24l11.72,19.64c1.13,1.92,2.46,4.92,2.46,4.92h.1s-.2-3.64-.2-6.1v-18.46h7.04v35.2h-6.89l-12.01-19.44c-1.13-1.87-2.51-4.87-2.51-4.87h-.1s.2,3.69.2,6.15v18.16h-7.04v-35.2Z"/>
  <path d="M351.6,121.16h-.1c-2.41,4.04-5.71,5.46-9.89,5.46-5.32,0-9.45-1.92-12.36-5.12-2.9-3.25-4.58-7.78-4.58-13.09,0-5.86,2.07-10.98,5.76-14.37,2.86-2.61,6.6-4.04,11.32-4.04,8.86,0,13.93,4.87,15.06,11.76h-6.99c-.79-3.4-3.4-5.86-7.93-5.86-6.65,0-9.94,5.51-9.94,12.5s3.79,12.45,9.84,12.45c5.46,0,9.06-4.09,9.06-7.97v-.2h-8.47v-5.51h14.82v18.71h-5.37l-.25-4.73Z"/>
</svg>