<?xml version="1.0" encoding="UTF-8"?>
<svg id="Layer_1" xmlns="http://www.w3.org/2000/svg" version="1.1" viewBox="0 0 192.66 130.26">
  <!-- Generator: Adobe Illustrator 30.6.0, SVG Export Plug-In . SVG Version: 2.1.4 Build 109)  -->
  <path d="M18.33,5.25v6.1h-8.14v-5.25c0-1.2-.1-1.55-.7-1.55-.55,0-.65.35-.65,1.55v4.2c0,1.5.35,1.95,1.75,3.05l5.35,4.25c1.25,1,2.45,2.6,2.45,6.19v8.34c0,4.35-2.2,5.35-4.15,5.35H4.7c-1.9,0-4.2-.95-4.2-5.25v-7.24h8.39v6.39c0,1.25.1,1.55.65,1.55s.7-.3.7-1.55v-4.8c0-2-.6-2.75-1.65-3.6l-5.65-4.55c-1.3-1.05-2.3-2.55-2.3-6v-7.14C.65,1.25,2.75,0,4.7,0h9.89c1.9,0,3.75,1.25,3.75,5.25Z"/>
  <path d="M19.23,31.87V15.29c0-4.3,2.8-5.6,5.05-5.6h7.99c2.25,0,4.8,1.3,4.8,5.6v5.35h-8.29v-5.3c0-.9-.15-1.25-.7-1.25s-.7.35-.7,1.25v16.54c0,.9.15,1.25.7,1.25s.7-.35.7-1.25v-5.55h8.29v5.55c0,4.3-2.55,5.6-4.8,5.6h-7.99c-2.25,0-5.05-1.3-5.05-5.6Z"/>
  <path d="M47.45,15.59c0-.9-.2-1.25-.7-1.25s-.7.35-.7,1.25v21.88h-8.14V0h8.14v11.79c.65-1.15,1.8-2.1,3.35-2.1h2.85c1.75,0,3.5,1.1,3.5,4.45v23.33h-8.29V15.59Z"/>
  <path d="M69.53,37.47h-7.84c-2.25,0-5.05-1.3-5.05-5.6V15.29c0-4.3,2.8-5.6,5.05-5.6h7.84c2.25,0,5.05,1.3,5.05,5.6v16.59c0,4.3-2.8,5.6-5.05,5.6ZM66.28,15.84c0-1.4-.15-1.75-.75-1.75s-.75.35-.75,1.75v15.54c0,1.4.15,1.75.75,1.75s.75-.35.75-1.75v-15.54Z"/>
  <path d="M88.36,37.47h-7.84c-2.25,0-5.05-1.3-5.05-5.6V15.29c0-4.3,2.8-5.6,5.05-5.6h7.84c2.25,0,5.05,1.3,5.05,5.6v16.59c0,4.3-2.8,5.6-5.05,5.6ZM85.12,15.84c0-1.4-.15-1.75-.75-1.75s-.75.35-.75,1.75v15.54c0,1.4.15,1.75.75,1.75s.75-.35.75-1.75v-15.54Z"/>
  <path d="M102.45,0v37.47h-8.14V0h8.14Z"/>
  <path d="M121.83,37.47h-8.54c-2.25,0-4.9-1.25-4.9-6.14V6.14c0-4.9,2.65-6.14,4.9-6.14h8.54c2.25,0,4.9,1.25,4.9,6.14v25.18c0,4.9-2.65,6.14-4.9,6.14ZM118.38,6.19c0-1.1-.2-1.55-.8-1.55-.65,0-.8.45-.8,1.55v25.08c0,1.1.15,1.55.8,1.55.6,0,.8-.45.8-1.55V6.19Z"/>
  <path d="M127.52,9.69h1.95V3.75c0-3.1,1.8-3.75,3.05-3.75h7.84v5.65h-.75c-1.1,0-2,.3-2,2.1v1.95h2.75v6.09h-2.75v21.68h-8.14V15.79h-1.95v-6.09Z"/>
  <path d="M16.24,42l3.5,37.47h-8.44l-.6-7.44h-3.25l-.55,7.44H0l3.2-37.47h13.04ZM10.19,66.13l-1.2-14.89-1.1,14.89h2.3Z"/>
  <path d="M28.17,51.69v2.8c.75-2.3,1.85-2.8,2.85-2.8h1v8.94h-.7c-1.55,0-3.1.6-3.1,3v15.84h-8.14v-27.78h8.09Z"/>
  <path d="M32.77,73.87v-16.58c0-4.3,2.8-5.6,5.05-5.6h7.99c2.25,0,4.8,1.3,4.8,5.6v5.34h-8.29v-5.29c0-.9-.15-1.25-.7-1.25s-.7.35-.7,1.25v16.54c0,.9.15,1.25.7,1.25s.7-.35.7-1.25v-5.54h8.29v5.54c0,4.3-2.55,5.6-4.8,5.6h-7.99c-2.25,0-5.05-1.3-5.05-5.6Z"/>
  <path d="M60.99,57.59c0-.9-.2-1.25-.7-1.25s-.7.35-.7,1.25v21.88h-8.14v-37.47h8.14v11.79c.65-1.15,1.8-2.1,3.35-2.1h2.85c1.75,0,3.5,1.1,3.5,4.45v23.33h-8.29v-21.88Z"/>
  <path d="M70.18,43.2h8.14v7.74h-8.14v-7.74ZM78.32,51.69v27.78h-8.14v-27.78h8.14Z"/>
  <path d="M90.81,73.82h1.1v5.65h-7.84c-1.25,0-3.05-.65-3.05-3.75v-17.93h-1.95v-6.09h1.95v-6.79h8.14v6.79h2.75v6.09h-2.75v13.79c0,1.85.55,2.25,1.65,2.25Z"/>
  <path d="M102.15,73.87v-3.8h8.29v3.8c0,4.3-2.8,5.6-5.05,5.6h-7.84c-2.25,0-5.05-1.3-5.05-5.6v-16.58c0-4.3,2.8-5.6,5.05-5.6h7.84c2.25,0,5.05,1.3,5.05,5.6v10.09h-9.79v6.49c0,.9.15,1.25.75,1.25s.75-.35.75-1.25ZM100.65,61.98h1.5v-4.85c0-.9-.15-1.25-.75-1.25s-.75.35-.75,1.25v4.85Z"/>
  <path d="M111.34,73.87v-16.58c0-4.3,2.8-5.6,5.05-5.6h7.99c2.25,0,4.8,1.3,4.8,5.6v5.34h-8.29v-5.29c0-.9-.15-1.25-.7-1.25s-.7.35-.7,1.25v16.54c0,.9.15,1.25.7,1.25s.7-.35.7-1.25v-5.54h8.29v5.54c0,4.3-2.55,5.6-4.8,5.6h-7.99c-2.25,0-5.05-1.3-5.05-5.6Z"/>
  <path d="M141.36,73.82h1.1v5.65h-7.84c-1.25,0-3.05-.65-3.05-3.75v-17.93h-1.95v-6.09h1.95v-6.79h8.14v6.79h2.75v6.09h-2.75v13.79c0,1.85.55,2.25,1.65,2.25Z"/>
  <path d="M143.31,75.02v-23.33h8.29v21.88c0,.9.2,1.25.7,1.25s.7-.35.7-1.25v-21.88h8.14v27.78h-8.14v-2.1c-.65,1.15-1.8,2.1-3.35,2.1h-2.85c-1.75,0-3.5-1.1-3.5-4.45Z"/>
  <path d="M170.13,51.69v2.8c.75-2.3,1.85-2.8,2.85-2.8h1v8.94h-.7c-1.55,0-3.1.6-3.1,3v15.84h-8.14v-27.78h8.09Z"/>
  <path d="M184.37,73.87v-3.8h8.29v3.8c0,4.3-2.8,5.6-5.05,5.6h-7.84c-2.25,0-5.05-1.3-5.05-5.6v-16.58c0-4.3,2.8-5.6,5.05-5.6h7.84c2.25,0,5.05,1.3,5.05,5.6v10.09h-9.79v6.49c0,.9.15,1.25.75,1.25s.75-.35.75-1.25ZM182.87,61.98h1.5v-4.85c0-.9-.15-1.25-.75-1.25s-.75.35-.75,1.25v4.85Z"/>
  <path d="M16.59,94.89v11.74h11.29v3h-11.29v11.84h-3.2v-11.84H2.1v-3h11.29v-11.74h3.2Z"/>
  <path d="M43.81,108.53v12.94h-8.39v-37.47h13.89c2.5,0,4.35,1.75,4.35,5.59v12.89c0,4.7-2.2,6.04-4.65,6.04h-5.2ZM43.81,88.75v14.69h.2c1.1,0,1.3-.35,1.3-2.15v-10.39c0-1.8-.2-2.15-1.3-2.15h-.2Z"/>
  <path d="M62.69,84v37.47h-8.14v-37.47h8.14Z"/>
  <path d="M73.43,119.17c-.5,1.4-1.7,2.3-3.45,2.3h-3c-2,0-3.5-1.15-3.5-4.35v-7.39c0-2.75,1.15-4.2,3.55-4.7,1.8-.4,4.05-.3,5.15-.7.7-.25,1.05-.8,1.05-1.8v-3.2c0-.9-.1-1.25-.65-1.25s-.65.35-.65,1.25v3.3h-8.14v-3.35c0-4.3,2.8-5.6,5.05-5.6h7.64c2.25,0,5.05,1.3,5.05,5.6v22.18h-8.09v-2.3ZM72.48,117.32c.7,0,.75-.6.75-1.6v-8.74c-.1.15-.2.3-.35.45-.2.2-.4.35-.65.65-.35.45-.45.8-.45,1.7v5.95c0,1,0,1.6.7,1.6Z"/>
  <path d="M91.96,99.59c0-.9-.2-1.25-.7-1.25s-.7.35-.7,1.25v21.88h-8.14v-27.78h8.14v2.1c.65-1.15,1.8-2.1,3.35-2.1h2.85c1.75,0,3.5,1.1,3.5,4.45v23.33h-8.29v-21.88Z"/>
  <path d="M110.69,99.59c0-.9-.2-1.25-.7-1.25s-.7.35-.7,1.25v21.88h-8.14v-27.78h8.14v2.1c.65-1.15,1.8-2.1,3.35-2.1h2.85c1.75,0,3.5,1.1,3.5,4.45v23.33h-8.29v-21.88Z"/>
  <path d="M119.88,85.2h8.14v7.74h-8.14v-7.74ZM128.02,93.69v27.78h-8.14v-27.78h8.14Z"/>
  <path d="M138.46,99.59c0-.9-.2-1.25-.7-1.25s-.7.35-.7,1.25v21.88h-8.14v-27.78h8.14v2.1c.65-1.15,1.8-2.1,3.35-2.1h2.85c1.75,0,3.5,1.1,3.5,4.45v23.33h-8.29v-21.88Z"/>
  <path d="M147.65,98.29c0-3.55,1.85-4.6,3.75-4.6h2.55c1.5,0,2.55.75,3.4,2.1v-2.1h8.14v30.97c0,4.3-2.8,5.6-5.05,5.6h-7.74c-2.25,0-5.05-1.3-5.05-5.6v-1.6h8.29v1.6c0,.9.15,1.25.7,1.25s.7-.35.7-1.25v-5.3c-.85,1.35-1.9,2.1-3.4,2.1h-2.55c-1.9,0-3.75-1.05-3.75-4.6v-18.58ZM156.64,116.82c.5,0,.7-.35.7-1.25v-15.99c0-.9-.2-1.25-.7-1.25s-.7.35-.7,1.25v15.99c0,.9.2,1.25.7,1.25Z"/>
</svg>